<?xml version="1.0" encoding="utf-8"?>
<!-- Generator: Adobe Illustrator 18.0.0, SVG Export Plug-In . SVG Version: 6.00 Build 0)  -->
<!DOCTYPE svg PUBLIC "-//W3C//DTD SVG 1.1//EN" "http://www.w3.org/Graphics/SVG/1.1/DTD/svg11.dtd">
<svg version="1.1" id="_x37_4ad5bb7-fdcd-4b2d-be88-4cebbebfa027"
	 xmlns="http://www.w3.org/2000/svg" xmlns:xlink="http://www.w3.org/1999/xlink" x="0px" y="0px" viewBox="0 0 3352 2286"
	 enable-background="new 0 0 3352 2286" xml:space="preserve">
<title>Ride a bicycle</title>
<path opacity="0.1" fill="#6C63FF" enable-background="new    " d="M746.6,336.1c-16,19.2-22.1,46.6-29.1,72.2
	c-55,206.5-191.3,372.2-346.8,490.7c-65.5,50.4-145.6,117.6-131.3,207.6c7.9,48.3,41.6,83.9,67,123.2c53,82.4,70.2,194.5,44.8,293.2
	c-28.8,112.4-108.9,217-84.2,330.5c15.4,69.9,67.3,119.7,117.4,162.5c78,66.7,158.4,129,241.4,187.2c55.6,39,114.7,76.9,179.7,81.8
	c57.1,4.4,113-17.5,167.2-38.7c47.5-18.6,95.8-38.1,134.2-75.7c25-24.5,44.8-56.2,72.5-76c65.2-47.2,148.8-17.2,223.4,2.9
	c176.2,47.2,364.6,30,532.3-48.6c257.1-120.9,453.1-374.8,704.7-510.8c108-58.5,225.7-94.9,325.9-170.4
	c56.5-42.8,104.8-95.5,143.3-154.9c75.7-116.8,116.8-265.9,104.8-411.5s-78-286.3-182-368.7c-111.5-88.2-252.2-104.5-378.9-157.5
	c-130.8-54.7-247.2-148.5-376.8-207.1c-212.3-95.8-456.6-90.3-664.5,14.9c-140.9,71.3-283.9,237.9-441.2,250.4
	C1058.2,342.2,834.3,230.1,746.6,336.1z"/>
<path fill="none" stroke="#6C63FF" stroke-miterlimit="10" d="M2848.2,1305.5c0,0,51,100.2,9.3,154.6s3.8,203.8,3.8,203.8"/>
<path fill="#6C63FF" d="M2863.4,1274.3c0,19.2-14.3,34.9-14.3,34.9s-14.3-15.7-14.3-34.9c0-19.2,14.3-34.9,14.3-34.9
	S2863.4,1255.1,2863.4,1274.3z"/>
<path fill="none" stroke="#6C63FF" stroke-miterlimit="10" d="M2874.7,1305.5c0,0-51,100.2-9.3,154.6s-3.8,203.8-3.8,203.8"/>
<path fill="#6C63FF" d="M2859.6,1274.3c0,19.2,14.3,34.9,14.3,34.9s14.3-15.7,14.3-34.9c0-19.2-14.3-34.9-14.3-34.9
	S2859.6,1255.1,2859.6,1274.3z"/>
<path opacity="0.1" enable-background="new    " d="M2859.6,1274.3c0,19.2,14.3,34.9,14.3,34.9s14.3-15.7,14.3-34.9
	c0-19.2-14.3-34.9-14.3-34.9S2859.6,1255.1,2859.6,1274.3z"/>
<path fill="none" stroke="#6C63FF" stroke-miterlimit="10" d="M2895.4,1305.5c0,0,51,100.2,9.3,154.6
	c-41.6,54.5,3.8,203.8,3.8,203.8"/>
<path fill="#6C63FF" d="M2910.5,1274.3c0,19.2-14.3,34.9-14.3,34.9s-14.3-15.7-14.3-34.9c0-19.2,14.3-34.9,14.3-34.9
	S2910.5,1255.1,2910.5,1274.3z"/>
<path fill="#6C63FF" d="M2902.7,1354.4c-13.4,14-34.4,15.4-34.4,15.4s0.6-21,14-34.9c13.4-14,34.4-15.4,34.4-15.4
	S2915.8,1340.7,2902.7,1354.4z"/>
<path fill="#6C63FF" d="M2903.8,1423.4c-13.4,14-34.4,15.4-34.4,15.4s0.6-21,14-34.9c13.4-14,34.4-15.4,34.4-15.4
	S2917.2,1409.7,2903.8,1423.4z"/>
<path fill="#6C63FF" d="M2831.3,1461.6c12.5,14.6,12.2,35.5,12.2,35.5s-21-2.6-33.5-17.2c-12.5-14.6-12.2-35.5-12.2-35.5
	S2818.8,1447,2831.3,1461.6z"/>
<path fill="#6C63FF" d="M2843,1314.2c16,10.8,21.3,31.2,21.3,31.2s-21,3.2-37-7.6c-16-10.8-21.3-31.2-21.3-31.2
	S2827,1303.7,2843,1314.2z"/>
<path opacity="0.1" enable-background="new    " d="M2843,1314.2c16,10.8,21.3,31.2,21.3,31.2s-21,3.2-37-7.6
	c-16-10.8-21.3-31.2-21.3-31.2S2827,1303.7,2843,1314.2z"/>
<path fill="none" stroke="#6C63FF" stroke-miterlimit="10" d="M2921.9,1305.5c0,0-51,100.2-9.3,154.9s-3.8,203.8-3.8,203.8"/>
<path fill="#6C63FF" d="M2906.7,1274.3c0,19.2,14.3,34.9,14.3,34.9s14.3-15.7,14.3-34.9c0-19.2-14.3-34.9-14.3-34.9
	S2906.7,1255.1,2906.7,1274.3z"/>
<path opacity="0.1" enable-background="new    " d="M2906.7,1274.3c0,19.2,14.3,34.9,14.3,34.9s14.3-15.7,14.3-34.9
	c0-19.2-14.3-34.9-14.3-34.9S2906.7,1255.1,2906.7,1274.3z"/>
<path fill="#6C63FF" d="M2910.8,1356.2c-13.7,13.7-14.6,34.9-14.6,34.9s21-1.2,34.7-14.9c13.7-13.7,14.6-34.9,14.6-34.9
	S2924.2,1342.2,2910.8,1356.2z"/>
<path opacity="0.1" enable-background="new    " d="M2910.8,1356.2c-13.7,13.7-14.6,34.9-14.6,34.9s21-1.2,34.7-14.9
	c13.7-13.7,14.6-34.9,14.6-34.9S2924.2,1342.2,2910.8,1356.2z"/>
<path fill="#6C63FF" d="M2937.3,1451.7c-13.7,13.7-14.6,34.9-14.6,34.9s21-1.2,34.7-14.9c13.7-13.7,14.6-34.9,14.6-34.9
	S2950.7,1438,2937.3,1451.7z"/>
<path fill="none" stroke="#6C63FF" stroke-miterlimit="10" d="M2898.3,1430.7c0,0,30.6-48.3,73.7-49.5"/>
<path fill="none" stroke="#6C63FF" stroke-miterlimit="10" d="M2874.4,1401.3c0,0-30.6-48.3-73.7-49.5"/>
<path fill="none" stroke="#6C63FF" stroke-miterlimit="10" d="M2870.3,1470.3c0,0,30.6-48.3,73.7-49.5"/>
<circle fill="#6C63FF" cx="2970.5" cy="1380.9" r="7.9"/>
<circle fill="#6C63FF" cx="2801.3" cy="1352.4" r="7.9"/>
<path fill="none" stroke="#6C63FF" stroke-miterlimit="10" d="M2893.1,1486.3c0,0-30.6-48.3-73.7-49.5"/>
<circle fill="#6C63FF" cx="2820" cy="1437.1" r="7.9"/>
<circle fill="#6C63FF" cx="2944.6" cy="1421.4" r="7.9"/>
<path fill="#A8A8A8" d="M3062.5,1606c0,0-74-14.9-93.8-34.4s-108.3-54.2-118.2-29.7c-9.9,24.5-133.1,108.3-49.2,123.2
	c83.9,14.9,197.1,19.8,221.9,9.9C3048,1665.1,3062.5,1606,3062.5,1606z"/>
<path opacity="0.2" enable-background="new    " d="M2801.3,1656.1c83.9,14.9,197.1,19.8,221.9,9.9c18.6-7.6,31.7-43.7,37-60.3
	l2.3,0.6c0,0-14.9,59.1-39.3,69s-138,5-221.9-9.9c-24.2-4.4-31.2-14.3-28.5-27.1C2774.8,1646.5,2783.3,1652.9,2801.3,1656.1z"/>
<path fill="#6C63FF" d="M331.6,1712.6c0,0,24.5,32-11.4,80.1s-64.9,89.1-53,119.1c0,0,53.9-89.4,97.6-90.9S380,1766.5,331.6,1712.6z
	"/>
<path opacity="0.1" enable-background="new    " d="M331.6,1712.6c2,3.2,3.8,6.4,5,9.9c42.8,50.1,65.5,97,24.5,98.1
	c-38.1,1.2-84.2,69.6-95.2,86.8c0.3,1.5,0.9,2.6,1.2,3.8c0,0,53.9-89.4,97.6-90.9S380,1766.5,331.6,1712.6z"/>
<path fill="#FFD037" d="M377.1,1753.4c0,11.4-1.2,20.4-2.9,20.4s-2.9-9-2.9-20.4c0-11.4,1.5-5.8,3.2-5.8S377.1,1742.3,377.1,1753.4z
	"/>
<path fill="#FFD037" d="M392.8,1766.8c-9.9,5.2-18.3,8.7-19.2,7.3c-0.9-1.5,6.7-6.7,16.6-12.2c9.9-5.5,6.1-1.5,6.7,0
	C397.4,1763.3,402.7,1761.5,392.8,1766.8z"/>
<path fill="#6C63FF" d="M202.9,1712.6c0,0-24.5,32,11.4,80.1s64.9,88.8,53.3,118.8c0,0-53.9-89.4-97.6-90.9
	S154.6,1766.5,202.9,1712.6z"/>
<path opacity="0.1" enable-background="new    " d="M202.9,1712.6c-2,3.2-3.8,6.4-5,9.9c-42.8,50.1-65.5,97-24.5,98.1
	c38.1,1.2,84.2,69.6,95.2,86.8c-0.3,1.5-0.9,2.6-1.2,3.8c0,0-53.9-89.4-97.6-90.9S154.6,1766.5,202.9,1712.6z"/>
<path fill="#FFD037" d="M157.5,1753.4c0,11.4,1.2,20.4,2.9,20.4s2.9-9,2.9-20.4c0-11.4-1.5-5.8-3.2-5.8
	C158.4,1747.6,157.5,1742.3,157.5,1753.4z"/>
<path fill="#FFD037" d="M142.1,1766.8c9.9,5.2,18.3,8.7,19.2,7.3c0.9-1.5-6.7-6.7-16.6-12.2c-9.9-5.5-6.1-1.5-6.7,0
	C137.4,1763.3,132.1,1761.5,142.1,1766.8z"/>
<path fill="#A8A8A8" d="M165.3,1907.4c0,0,68.1-2,88.8-16.9s104.8-32,110.1-8.7c5.2,23.3,102.5,116.8,25.6,117.4
	c-76.9,0.6-179.1-11.9-199.5-24.5S165.3,1907.4,165.3,1907.4z"/>
<path opacity="0.2" enable-background="new    " d="M391,1991.3c-76.9,0.6-179.1-11.9-199.5-24.5c-15.7-9.6-21.8-43.7-23.9-59.4
	h-2.3c0,0,4.4,55,24.8,67.6s122.6,25,199.5,24.5c22.1-0.3,30-8.2,29.4-19.8C416.1,1986.9,407.6,1991.3,391,1991.3z"/>
<linearGradient id="SVGID_1_" gradientUnits="userSpaceOnUse" x1="941.9759" y1="2497.4468" x2="941.9759" y2="2288.2378" gradientTransform="matrix(2.9121 0 0 2.9121 -309.5002 -5058.3213)">
	<stop  offset="0" style="stop-color:#808080;stop-opacity:0.25"/>
	<stop  offset="0.54" style="stop-color:#808080;stop-opacity:0.12"/>
	<stop  offset="1" style="stop-color:#808080;stop-opacity:0.1"/>
</linearGradient>
<path fill="url(#SVGID_1_)" d="M2433.6,2214.5c-168.1,0-304.6-136.2-304.6-304.6c0-168.1,136.2-304.6,304.6-304.6
	c168.1,0,304.6,136.2,304.6,304.6C2738.2,2078,2601.7,2214.2,2433.6,2214.5z M2433.6,1675.2c-129.4,0-234.3,104.9-234.3,234.3
	s104.9,234.3,234.3,234.3s234.3-104.9,234.3-234.3C2668,1780.5,2563,1675.6,2433.6,1675.2z"/>
<ellipse id="_x35_3a1ace1-949e-4b57-abab-afbe5595ad7e" fill="#6C63FF" cx="1060.3" cy="810.3" rx="73.7" ry="93.7"/>
<path fill="#6C63FF" d="M1060.3,939.7c-60.4,0-109.4-58.1-109.4-129.4s49.2-129.4,109.4-129.4c60.4,0,109.4,58.1,109.4,129.4
	S1120.4,939.7,1060.3,939.7z M1060.3,752.2c-18,0-38,23.8-38,58.1c0,34.3,20,58.1,38,58.1c20,0,38-27.2,38-58.1
	C1098,779.4,1080.3,752.2,1060.3,752.2z"/>
<ellipse id="_x37_e8b9394-3556-4349-baf5-0e0c8c54f4a1" fill="#6C63FF" cx="804.6" cy="1937.7" rx="75.1" ry="83.5"/>
<ellipse id="_x32_140706b-a880-40b3-9811-76638d337747" opacity="0.6" enable-background="new    " cx="804.6" cy="1937.7" rx="75.1" ry="83.5"/>
<path fill="#6C63FF" d="M797.4,2217.9c-154.5,0-279.8-125.3-279.8-279.8s125.3-279.8,279.8-279.8s279.8,125.3,279.8,279.8
	C1076.9,2092.6,952,2217.9,797.4,2217.9z M797.4,1722.4c-118.9,0-215.3,96.4-215.3,215.3c0,118.9,96.4,215.3,215.3,215.3
	s215.3-96.4,215.3-215.3C1012.4,1818.9,916.3,1722.8,797.4,1722.4L797.4,1722.4z"/>
<rect x="644.7" y="1681.7" transform="matrix(0.2261 -0.9741 0.9741 0.2261 -1007.33 2169.176)" fill="#6C63FF" width="433.7" height="73.7"/>
<rect x="2200.1" y="1424.2" transform="matrix(0.9741 -0.2263 0.2263 0.9741 -313.3353 548.7737)" fill="#6C63FF" width="73.7" height="433.7"/>
<rect x="644.7" y="1681.7" transform="matrix(0.2261 -0.9741 0.9741 0.2261 -1007.33 2169.176)" opacity="0.6" enable-background="new    " width="433.7" height="73.7"/>
<rect x="2200.1" y="1424.2" transform="matrix(0.9741 -0.2263 0.2263 0.9741 -313.3353 548.7737)" opacity="0.6" enable-background="new    " width="73.7" height="433.7"/>
<path fill="#6C63FF" d="M2439.1,2189.4c-154.5,0-279.8-125.3-279.8-279.8s125.3-279.8,279.8-279.8c154.5,0,279.8,125.3,279.8,279.8
	C2718.6,2064.1,2593.6,2189.4,2439.1,2189.4z M2439.1,1693.9c-118.9,0-215.3,96.4-215.3,215.3c0,118.9,96.4,215.3,215.3,215.3
	c118.9,0,215.3-96.4,215.3-215.3C2654.4,1790.3,2557.9,1693.9,2439.1,1693.9L2439.1,1693.9z"/>
<linearGradient id="SVGID_2_" gradientUnits="userSpaceOnUse" x1="380.1206" y1="2507.0093" x2="380.1206" y2="2297.8003" gradientTransform="matrix(2.9121 0 0 2.9121 -309.5002 -5058.3213)">
	<stop  offset="0" style="stop-color:#808080;stop-opacity:0.25"/>
	<stop  offset="0.54" style="stop-color:#808080;stop-opacity:0.12"/>
	<stop  offset="1" style="stop-color:#808080;stop-opacity:0.1"/>
</linearGradient>
<path fill="url(#SVGID_2_)" d="M797.4,2242.3c-168.1,0-304.6-136.2-304.6-304.6c0-168.1,136.2-304.6,304.6-304.6
	c168.1,0,304.6,136.2,304.6,304.6C1101.7,2105.8,965.6,2242.3,797.4,2242.3z M797.4,1703.4c-129.4,0-234.3,104.9-234.3,234.3
	S668.1,2172,797.4,2172s234.3-104.9,234.3-234.3C1031.4,1808.3,926.8,1703.4,797.4,1703.4z"/>
<path opacity="0.6" enable-background="new    " d="M797.4,2217.9c-154.5,0-279.8-125.3-279.8-279.8s125.3-279.8,279.8-279.8
	s279.8,125.3,279.8,279.8C1076.9,2092.6,952,2217.9,797.4,2217.9z M797.4,1722.4c-118.9,0-215.3,96.4-215.3,215.3
	c0,118.9,96.4,215.3,215.3,215.3s215.3-96.4,215.3-215.3C1012.4,1818.9,916.3,1722.8,797.4,1722.4L797.4,1722.4z"/>
<path opacity="0.6" enable-background="new    " d="M2439.1,2189.4c-154.5,0-279.8-125.3-279.8-279.8s125.3-279.8,279.8-279.8
	c154.5,0,279.8,125.3,279.8,279.8C2718.6,2064.1,2593.6,2189.4,2439.1,2189.4z M2439.1,1693.9c-118.9,0-215.3,96.4-215.3,215.3
	c0,118.9,96.4,215.3,215.3,215.3c118.9,0,215.3-96.4,215.3-215.3C2654.4,1790.3,2557.9,1693.9,2439.1,1693.9L2439.1,1693.9z"/>
<path id="_x37_e4e0f08-be37-4e57-93cb-dbd3eb6ff66a" fill="#6C63FF" d="M863.7,1531.6c0,0,229.9,427.6,332.5,529.4h589.2
	c0,0,37.7,11.2,160.6-29.9l31.2-300.2c0,0,66.9-317.5,428.6-317.5h262.5v-233.3l-1145.5,130.1c0,0-104.6,125-20,183l219,240.1
	c0,0,13.9,125-57.4,115.8l-414.6-22.4l-137.9-604.5L864,1414.1C863.7,1414.1,803.6,1500.7,863.7,1531.6z"/>
<polygon id="b18053d2-7f1c-4a4e-8554-eb7afc69a56e" fill="#6C63FF" points="995.4,876.5 928.9,1414.7 1154,1414.7 1154,847.6 "/>
<polygon id="_x36_093f2e0-4475-4a54-9e1f-c297e525f4bb" fill="#6C63FF" points="847.7,904.3 1114.3,904.3 1056.6,1023.2 
	847.7,1023.2 "/>
<line id="b08dc8a9-90c3-4110-884f-5d5c6456559b" fill="none" x1="1049.1" y1="881.6" x2="1111.6" y2="1087"/>
<path id="_x37_bf8dec7-bcea-4648-99b4-27822b57ff5f" fill="#6C63FF" d="M1503.5,1359.1l165.4-285.3c0,0,653.4-102.6,860.2-49.2
	c0,0,206.8,180.7,132.4,237.7L1503.5,1359.1z"/>
<path id="fa89e115-5a5a-4109-b726-bbf0b9a585d9" opacity="0.4" fill="#FFFFFF" enable-background="new    " d="M1503.5,1359.1
	l165.4-285.3c0,0,653.4-102.6,860.2-49.2c0,0,206.8,180.7,132.4,237.7L1503.5,1359.1z"/>
<linearGradient id="SVGID_3_" gradientUnits="userSpaceOnUse" x1="627.2556" y1="2380.522" x2="627.2556" y2="1817.8148" gradientTransform="matrix(2.9121 0 0 2.9121 -309.5002 -5058.3213)">
	<stop  offset="0" style="stop-color:#808080;stop-opacity:0.25"/>
	<stop  offset="0.54" style="stop-color:#808080;stop-opacity:0.12"/>
	<stop  offset="1" style="stop-color:#808080;stop-opacity:0.1"/>
</linearGradient>
<path fill="url(#SVGID_3_)" d="M1940.9,1051.7c-2-134.1-29.5-266.6-80.5-390.5c-18-43.1-42.8-89-87.3-104.3
	c-5.1-1.7-10.5-3.1-16-3.7c0-5.8,1-11.9,1.7-17.3l13.9-187.1c6.5-87.3-80.1-107-152.8-113.1c-68.6-5.8-144,66.9-185.4,116.8
	c-12.9,15.6-26.5,33.3-26.1,53.3c0.7,26.8,25.5,45.8,44.1,65.2c27.2,28.2,45.2,64.2,51.3,103.2c3.1,20.4,3.1,42.1,13.9,59.4
	c15.3,24.8,45.2,32.3,75.7,33.6c-27.8,51.6-9.2,83.2-32.9,136.9c-23.8,53.7-73.7,108.3-134.5,106.3c-31.9-1-61.1-17.3-89-32.9
	c-27.8-15.3-58.1-30.9-90-29.9c-12.9,0.7-25.8,4.4-36.7,11.2c-15.6-30.9-53.3-43.5-84.2-27.8c-30.9,15.6-43.5,53.3-27.8,84.2
	c15.6,30.9,53.3,43.5,84.2,27.8c3.7-1.7,7.1-4.1,10.2-6.5c17,18.7,38.7,31.9,63.2,38c110,32.9,227.9,24.5,332.1-23.8
	c-4.1,39.7,6.5,79.8,29.2,112.7c-77.8,19.4-156.6,54-219.7,71.7c-47.2,13.9-99.8,31.2-119.9,75.7c-13.9,29.5-8.8,63.5-4.1,95.8
	l49.9,328.7c2,19.4,7.1,38.4,15.3,56c4.1,7.8,9.5,14.9,16,21.1c-18,25.8-37.4,50.6-58.4,74.4c-15.3,13.9-33.3,32.6-29.2,53.3
	c5.4,26.1,39.4,32.3,66.2,32.3l104.9,1c13.6,1.7,27.5-1.4,39.4-8.5c13.9-11.2,16.3-31.6,16.6-49.9c1-37,1.7-75.4-12.6-109.4
	c8.8-10.2,14.9-22.4,18-35.3c19-83.2-84.6-151.8-80.1-236.7c3.7-66.9,73.7-111.7,139.9-122.6c66.2-10.9,134.8-0.7,200-16
	c53.7-12.6,107.3-52.3,119.5-102.9l10.5,0.7c44.8,2.4,40.4,7.8,49.2-35.3C1942.9,1121.7,1943.9,1086.7,1940.9,1051.7z"/>
<path id="_x34_1d2faf2-aa50-40c9-9da9-81b766ca4305" fill="#F6B9AD" d="M1463.7,351.8c-12.6,14.9-25.5,31.9-25.1,51.6
	c0,25.8,24.5,44.1,42.1,62.8c26.1,27.2,43.5,61.8,49.2,99.2c3.1,19.7,3.1,40.4,13.9,57.1c19.7,31.9,64.9,34,102.6,31.9
	c27.8-1.4,59.4-4.1,79.1-24.1c19.7-20,21.7-48.2,23.8-75.1l12.9-180.7c6.1-83.9-77.1-102.9-147-108.7
	C1549.3,260.5,1503.8,303.6,1463.7,351.8z"/>
<path id="ffec4320-7938-4100-8dc8-03dd8b81e49a" fill="#6C63FF" d="M1846.5,675.8c-17.3-42.1-42.1-85.6-83.9-100.2
	c-56-19-114.8,22.8-143.6,73.7c-28.9,50.9-37.7,110.4-61.5,164c-23.8,53.3-71,104.3-129.4,102.2c-30.9-1-58.8-16.6-85.6-31.6
	c-26.8-14.9-56-29.5-86.6-28.5s-63.2,23.8-63.5,54.3c0,35.3,38,57.7,71.7,67.9c105.6,31.6,219.4,23.4,319.6-22.8
	c-9.5,76.1,44.5,148.7,111.7,185.4c55.4,28.5,116.5,44.5,178.6,47.5c43.1,2.4,38.7,7.8,47.2-34c4.8-33.6,5.8-67.6,3.4-101.5
	C1922.5,922.7,1895.7,795,1846.5,675.8z"/>
<path id="f030c97e-203a-442b-8b0c-f9cf51b201e0" fill="#6C63FF" d="M1400.6,1131.9c-45.2,12.9-96.1,30.2-115.5,73
	c-12.9,27.8-8.5,61.1-3.7,92l47.2,316.5c1.7,18.7,6.5,37.4,13.9,54.3c21.7,41.1,72.3,56.7,113.4,35c21.4-11.5,37-31.6,42.4-55.4
	c18.3-80.1-81.5-146-77.1-227.9c3.4-64.5,71-107.3,134.5-118.2s129.7-0.7,192.6-15.6c62.8-14.6,126-67.9,116.8-131.8
	c-7.5-37-32.3-68.3-66.6-83.9C1683.8,1009.6,1515.7,1099.3,1400.6,1131.9z"/>
<path id="_x32_ab26614-c4e8-4986-9208-726e0e79bc10" fill="#6C63FF" d="M1303.4,1759.4c-14.9,13.9-31.9,31.2-27.8,50.9
	c5.1,25.1,38,30.9,63.5,31.2l100.9,1c13.2,1.7,26.5-1.4,37.7-8.2c13.9-10.5,15.6-30.6,16-48.2c1-37.4,2-76.1-13.9-110
	C1421.6,1553.6,1351,1714.6,1303.4,1759.4z"/>
<circle id="a33ad536-4756-4f73-9c7d-ab8b9dd1fb24" fill="#F3F9FE" cx="1542.5" cy="317.5" r="27.8"/>
<g id="e6761180-a71a-458c-a01e-07754db6e419">
	
		<linearGradient id="SVGID_4_" gradientUnits="userSpaceOnUse" x1="681.8642" y1="1934.3087" x2="681.8642" y2="1783.9908" gradientTransform="matrix(2.9121 0 0 2.9121 -309.5002 -5058.3213)">
		<stop  offset="0" style="stop-color:#808080;stop-opacity:0.25"/>
		<stop  offset="0.54" style="stop-color:#808080;stop-opacity:0.12"/>
		<stop  offset="1" style="stop-color:#808080;stop-opacity:0.1"/>
	</linearGradient>
	<path fill="url(#SVGID_4_)" d="M1930.3,380.7c0-146-114.4-243.8-260.1-243.8c-115.1,0-211.9,48.2-248.2,204.1h124v233.6h326
		C1907.6,496.8,1930.3,441.5,1930.3,380.7z"/>
</g>
<path id="_x36_8018b46-7fd0-4cab-8ebe-d82d6dc6efc8" fill="#F44336" d="M1897.4,377.3c0-127.3-99.5-212.9-226.9-212.9
	c-100.5,0-185.1,42.1-216.7,178.3h108.3v204.1h284.9C1878.4,478.8,1897.4,430.6,1897.4,377.3z"/>
<path id="e19b9201-6d80-4497-8085-d821d8d2afc3" fill="none" stroke="#F3F9FE" stroke-width="1.05" stroke-miterlimit="10" d="
	M1558.1,478.5c-5.1,18.7-18,34-35.7,42.1"/>
<g id="a8d0c5a0-5c26-4df5-a99b-30f89e30803d">
	
		<linearGradient id="SVGID_5_" gradientUnits="userSpaceOnUse" x1="978.4183" y1="2390.4497" x2="978.4183" y2="2280.271" gradientTransform="matrix(2.9121 0 0 2.9121 -309.5002 -5058.3213)">
		<stop  offset="0" style="stop-color:#808080;stop-opacity:0.25"/>
		<stop  offset="0.54" style="stop-color:#808080;stop-opacity:0.12"/>
		<stop  offset="1" style="stop-color:#808080;stop-opacity:0.1"/>
	</linearGradient>
	<path fill="url(#SVGID_5_)" d="M2225.8,1597.8c0,0,341-101.5,627.9,209.9l-341,95.8l-197.3-95.8L2225.8,1597.8z"/>
</g>
<path id="_x38_7068615-025d-4ce5-8c87-19b446b71c73" fill="#6C63FF" d="M2244.1,1606.3c0,0,321.6-95.8,591.9,197.3l-321.6,90.3
	l-186.1-90.3L2244.1,1606.3z"/>
<path id="a699cf6f-f968-4d10-814a-5f03b0524c89" fill="#6C63FF" d="M1944.9,1748.9h486.3c45.5,0,82.2,36.7,82.2,82.2v66.2
	c0,45.5-36.7,82.2-82.2,82.2h-486.3c-45.5,0-82.2-36.7-82.2-82.2v-66.2C1862.8,1785.6,1899.4,1748.9,1944.9,1748.9z"/>
<linearGradient id="SVGID_6_" gradientUnits="userSpaceOnUse" x1="708.1675" y1="2451.0645" x2="708.1675" y2="2028.8842" gradientTransform="matrix(2.9121 0 0 2.9121 -309.5002 -5058.3213)">
	<stop  offset="0" style="stop-color:#808080;stop-opacity:0.25"/>
	<stop  offset="0.54" style="stop-color:#808080;stop-opacity:0.12"/>
	<stop  offset="1" style="stop-color:#808080;stop-opacity:0.1"/>
</linearGradient>
<path fill="url(#SVGID_6_)" d="M1515.7,1305.4c0,0-108,128.7-20.7,188.5l225.2,247.2c0,0,13.9,128.7-59.1,119.5l-426.9-23.1
	l-97.8-431.3V954.9c0-57.7-46.9-104.9-104.6-104.9c-6.5,0-12.9,0.7-19,1.7l-39.7,7.1l-3.4,27.8H820.9v122.6h133.5l-42.8,345
	l-74,57.4c0,0-61.8,89,0,120.9c0,0,236.7,440.1,342.3,545.4h606.5c0,0,38.7,11.5,165.4-30.6l5.8-54.3c3.7,0.3,7.8,0.3,11.5,0h464.2
	c56.7,0,102.6-46.2,102.9-102.9v-30.9c0-56.7-46.2-102.6-102.9-102.9H1982l1.7-17.3c0,0,68.9-326.7,441.1-326.7h270.7v-241.1
	L1515.7,1305.4z"/>
<path opacity="0.2" enable-background="new    " d="M1522.5,1310.2c0,0-104.6,125-20,183l219,240.1c0,0,13.9,125-57.4,115.8
	l-414.6-22.4l-95.8-419.7V969.9c0-56.4-45.5-101.9-101.9-101.9c-6.1,0-12.2,0.7-18.3,1.7l-38.4,7.1l-3.4,27.8H847.4v119.2h129.7
	L935,1359.4l-71.7,56c0,0-60.1,86.3,0,117.5c0,0,229.9,427.6,332.5,529.4h588.9c0,0,37.7,11.2,160.6-29.9l5.4-52.6
	c3.7,0.3,7.5,0.3,11.2,0h450.6c55,0,99.8-44.8,99.8-99.8v-30.9c0-55-44.8-99.8-99.8-99.8h-437.1l1.7-16.6
	c0,0,66.9-317.5,428.6-317.5h262.5v-234.3L1522.5,1310.2z"/>
<circle id="_x33_b2fe844-545e-4c0e-998f-9c214a6cf3af" fill="#F6B9AD" cx="1167.3" cy="892.8" r="60.4"/>
</svg>
