<?xml version="1.0" encoding="utf-8"?>
<!-- Generator: Adobe Illustrator 18.0.0, SVG Export Plug-In . SVG Version: 6.00 Build 0)  -->
<!DOCTYPE svg PUBLIC "-//W3C//DTD SVG 1.1//EN" "http://www.w3.org/Graphics/SVG/1.1/DTD/svg11.dtd">
<svg version="1.1" id="_x33_749cc32-969d-4bed-b310-fe7588ba7e4f"
	 xmlns="http://www.w3.org/2000/svg" xmlns:xlink="http://www.w3.org/1999/xlink" x="0px" y="0px" viewBox="0 0 3352 2286"
	 enable-background="new 0 0 3352 2286" xml:space="preserve">
<title>by_my_car</title>
<path opacity="0.1" fill="#6C63FF" enable-background="new    " d="M344.2,947.6c65.4,148.1-18.2,318.5-116.3,447.1
	c-33,43.1-69.2,88-73.9,142.1c-5.7,66,39.3,126.7,92.4,166.3c96.8,72.3,228.9,94.6,344,58.2C689.7,1730,773.7,1658.6,874,1630
	c167.9-48.1,345.9,31.8,489.6,130.8c101.6,70.1,210.7,155.6,333.3,140.6c86.5-10.7,159.7-71.1,209.4-142.4
	c23.9-34.6,45-73,79.9-96.2c20.8-13.8,45.3-21.1,69.5-26.4c222.9-47.8,459.4,68.5,679.5,8.8c148.7-40.6,267-157.9,340.5-293.1
	s108.2-287.7,136.8-439.3c20.4-107.5,37.1-223.6-9.4-322.3c-49.4-104.7-164.1-167.9-279.2-179.9c-115.1-11.9-230.5,21.1-336.8,67.3
	c-132.7,57.9-262.6,139-407.2,139.3c-98.4,0.3-192.4-37.7-286.8-66.3c-157.9-48.1-321.4-72-484.6-94.3
	c-156.3-21.1-314.1-40.9-471.3-28.3c-111.3,8.8-209.4,51.3-317.3,71.1c-70.4,12.9-141.2,3.1-210,24.8
	c-84.9,26.7-172.3,88.4-177,185.2C228.8,801.4,309.6,869,344.2,947.6z"/>
<g opacity="0.5">
	<path fill="#6C63FF" d="M2313.5,606.2c-15.7,4.4-35.2,16.4-45,48.4c-18.9,62.9,24.8,106,10.4,171.4c-3.8,17.3-11.3,33.6-22,48.1
		c-17.6,23.6-36.5,34.9-55,51.6c-23.3,21.4-40.2,48.7-48.4,79.2c-8.8,33.6-9.7,69.2-2.2,103.1c6.6,28.6,17.9,49.1,27.7,72.3
		c12.3,29.6,21.7,60.1,28.3,91.2c3.8,15.1,6,30.5,6.3,46.2c0.3,19.5-2.8,40.9-5.7,61.9l-26.7,185.8c-3.5,24.8-7.2,50-7.2,73.6
		c-0.3,27.4,4.1,50.6,8.5,73.3c9.4,49.1,19.5,100.3,40.9,126.1c21.4,26.1,57.9,17,80.2-36.2c21.4-50.3,21.7-117.6,40.6-171.4
		c29.6-84.9,88.7-96.2,121.1-177c31.4-77.7,21.7-172.9,37.7-261.3c11.3-63.5,35.5-121.4,50-183.9c20.8-90.2,18.6-183.9,2.2-253.4
		s-46.2-117-78.9-153.1c-13.8-15.4-28.6-28.9-46.2-30.2c-18.6-1.6-34.6,22-52.8,28.9C2356.3,608.4,2334.9,599.9,2313.5,606.2z"/>
	<path fill="none" stroke="#535461" stroke-width="2" stroke-miterlimit="10" d="M2413.8,576c0,0-31.4,802.8-163.2,1276"/>
	<path fill="none" stroke="#535461" stroke-width="2" stroke-miterlimit="10" d="M2267.9,658.4c0,0,140.9,128.3,114.1,372.9"/>
	<path fill="none" stroke="#535461" stroke-width="2" stroke-miterlimit="10" d="M2149.7,1023.4c0,0,231.4,46.5,214.1,184.9"/>
	<path fill="none" stroke="#535461" stroke-width="2" stroke-miterlimit="10" d="M2555.7,753c0,0-93.7,82.1-177,314.1"/>
	<path fill="none" stroke="#535461" stroke-width="2" stroke-miterlimit="10" d="M2464.2,1454.8c0,0-63.8,50.3-115.1-125.1"/>
	<path fill="none" stroke="#535461" stroke-width="2" stroke-miterlimit="10" d="M2188.7,1557c0,0,130.2-17,142.4-98.7"/>
</g>
<path fill="#6C63FF" d="M2628.6,67.5c-32.4,4.7-71.1,19.8-87.1,65.7c-31.1,90.6,63.8,158.8,41.8,253.4
	c-6.6,28.3-22.6,51.3-39.9,68.2c-33.3,33-71.7,47.2-107.9,69.5c-36.2,22.3-73.6,57.2-90.6,111.3c-16.4,51.9-9.1,108.8,7.5,151.6
	s42.8,74.5,65.4,109.7c28,43.4,51.3,89.3,69.8,137.4c8.2,21.1,15.7,43.4,18.2,68.9c2.8,28.9-0.9,60.1-4.4,90.6l-33,270.4
	c-4.4,36.2-8.8,72.6-6.3,107.2c2.8,39.9,14.8,74.8,26.4,109.1c25.2,73.6,52.2,150,99.4,190.6c47.5,40.9,122,31.8,161.9-43.4
	c38-71.7,31.1-170.7,63.5-247.8c51.3-121.4,172-131.1,229.9-246.5c55.7-110.7,24.5-251.9,46.9-380.5c16-92.1,59.4-174.5,81.8-265.1
	c32.1-130.5,16.7-268.8-25.8-372.9s-108.8-177.7-180.8-234.6c-30.5-24.2-62.9-45.9-99-50c-38.4-4.4-69.2,28-106.3,36.2
	C2717.3,76.3,2672.3,61.2,2628.6,67.5z"/>
<path fill="none" stroke="#535461" stroke-width="2" stroke-miterlimit="10" d="M2832.4,35.1c0,0,30.5,1178.5-186.8,1859.9"/>
<path fill="none" stroke="#535461" stroke-width="2" stroke-miterlimit="10" d="M2540.2,139.2c0,0,306.9,205.6,280.8,562.5"/>
<path fill="none" stroke="#535461" stroke-width="2" stroke-miterlimit="10" d="M2338.7,662.8c0,0,484.6,95.9,465.4,297.8"/>
<path fill="none" stroke="#535461" stroke-width="2" stroke-miterlimit="10" d="M3147.1,312.8c0,0-184.3,109.7-329.2,441.5"/>
<path fill="none" stroke="#535461" stroke-width="2" stroke-miterlimit="10" d="M3041.2,1335.3c0,0-126.4,66.3-253.1-198.1"/>
<path fill="none" stroke="#535461" stroke-width="2" stroke-miterlimit="10" d="M2683.4,1397.7c0,0,315.3-11.5,333.4-151.1"/>
<ellipse opacity="0.1" fill="#6C63FF" enable-background="new    " cx="1707.6" cy="1886.7" rx="1584.4" ry="152.3"/>
<path fill="#6C63FF" d="M330.7,1924.8c0,0,26.4,34.6-12.3,86.5c-38.7,51.9-70.4,95.9-57.2,128.3c0,0,58.2-96.5,105.3-98.1
	C413.7,2039.9,382.5,1983,330.7,1924.8z"/>
<path opacity="0.1" enable-background="new    " d="M330.7,1924.8c2.2,3.5,4.1,6.9,5.3,10.7c46.2,54.1,70.7,104.7,26.4,106
	c-41.2,1.3-90.9,75.2-102.8,93.7c0.3,1.6,0.9,2.8,1.3,4.1c0,0,58.2-96.5,105.3-98.1C413.4,2039.6,382.5,1983,330.7,1924.8z"/>
<path fill="#FFD037" d="M379.4,1968.8c0,12.3-1.3,22-3.1,22s-3.1-9.7-3.1-22s1.6-6.3,3.5-6.3S379.4,1956.5,379.4,1968.8z"/>
<path fill="#FFD037" d="M396.4,1983.3c-10.7,5.7-19.8,9.4-20.8,7.9c-0.9-1.6,7.2-7.2,17.9-13.2s6.6-1.6,7.2,0
	C401.4,1979.5,407.1,1977.3,396.4,1983.3z"/>
<path fill="#6C63FF" d="M191.4,1924.8c0,0-26.4,34.6,12.3,86.5c38.7,51.9,70.1,95.9,57.5,128.3c0,0-58.2-96.5-105.3-98.1
	C108.7,2039.9,139.2,1983,191.4,1924.8z"/>
<path opacity="0.1" enable-background="new    " d="M191.4,1924.8c-2.2,3.5-4.1,6.9-5.3,10.7c-46.2,54.4-70.7,105-26.4,106.3
	c41.2,1.3,90.9,75.2,102.8,93.7c-0.3,1.6-0.9,2.8-1.3,4.1c0,0-58.2-96.5-105.3-98.1C108.7,2039.9,139.2,1983,191.4,1924.8z"/>
<path fill="#FFD037" d="M142.3,1968.8c0,12.3,1.3,22,3.1,22s3.1-9.7,3.1-22s-1.6-6.3-3.5-6.3S142.3,1956.5,142.3,1968.8z"/>
<path fill="#FFD037" d="M125.6,1983.3c10.7,5.7,19.8,9.4,20.8,7.9c0.9-1.6-7.2-7.2-17.9-13.2s-6.6-1.6-7.2,0
	C120.6,1979.5,114.9,1977.3,125.6,1983.3z"/>
<path fill="#A8A8A8" d="M150.8,2135.1c0,0,73.6-2.2,95.9-18.2c22.3-16,113.2-34.6,118.9-9.4c5.7,25.2,110.7,126.1,27.7,126.7
	s-193.4-12.9-215.4-26.4S150.8,2135.1,150.8,2135.1z"/>
<path opacity="0.2" enable-background="new    " d="M394.5,2225.7c-83,0.6-193.4-12.9-215.4-26.4c-17-10.4-23.6-47.2-25.8-64.1h-2.5
	c0,0,4.7,59.4,26.7,73s132.4,27,215.7,26.4c23.9-0.3,32.4-8.8,31.8-21.4C421.5,2220.7,412.4,2225.7,394.5,2225.7z"/>
<path fill="#8CD0F3" d="M1066,1391.1c0,0,434.5-277.5,734.6-277.5c0,0,361.6-56.3,754.6,38.9c393.4,95.2,538.6,218.6,647.5,182.3
	l-457.9,13.3L1066,1391.1z"/>
<path opacity="0.1" fill="#8CD0F3" enable-background="new    " d="M1066,1391.1c0,0,434.5-277.5,734.6-277.5
	c0,0,361.6-56.3,754.6,38.9c393.4,95.2,538.6,218.6,647.5,182.3l-457.9,13.3L1066,1391.1z"/>
<polygon fill="#121C3F" points="3113.4,1816 464.4,1816 537.3,1524.1 987.8,1404.4 3113.4,1460.3 "/>
<path fill="#2856B8" d="M3252.7,1633.7v93c0,0-78.5,57-85.9,101.9c0,0-112.6,28.5-144.8,28.5c-3,0-6.3,0-9.3,0.4
	c5.2-13.3,8.9-27.4,11.9-41.5c29.6-147.8-66.7-291.5-214.5-321.2c-147.8-29.6-291.5,66.7-321.2,214.5c-7,35.2-7,71.5,0,106.7
	c3.7,19.3,9.6,37.8,17.4,55.6h-152.6c0,0-1.5,0.4-3.7,1.5c-8.1,3.7-27.4,13.3-30.4,28.9H1054.1l-25.9-0.4
	c5.6-9.3,10.4-18.9,14.8-28.5c8.1-18.2,14.1-37.4,18.2-57c29.6-147.8-65.9-291.9-214.1-321.9c-147.8-29.6-291.9,65.9-321.9,214.1
	c-3.7,17.8-5.6,35.9-5.2,54.1c0,18.2,1.9,35.9,5.2,53.7c5.9,30,17,58.5,32.2,84.8c-18.2-4.4-57.4-17-57.4-17s-168.2-17.8-210.8-55.6
	l6.7-4.4l27.4-18.9l-12.6-48.2c-1.5-1.9-2.6-4.1-3.7-6.7c-3.3-8.1-6.3-23,5.6-41.9c17.8-28.5,8.9-130.4,8.9-130.4
	s243-167.8,722-205.6c0,0,11.5,8.9,35.2,10.7c15.9,1.1,37.4-0.7,65.2-10.7c0,0,39.3,17.8,207.5-78.5c0,0,286-196.7,661.3-178.6
	c0,0,386-23.3,715,103.7c141.9,54.8,249.7,83.7,326.4,99.3c71.1,14.1,115.6,17,136,17h0.4c6.7,0,10.7,0,12.2,0h0.7
	c0,0,0,42.6,2.2,93v0.4c0.7,17.4,1.9,35.9,3.3,53.7v1.1c4.4,50,11.9,95.2,24.4,104.1L3252.7,1633.7z"/>
<path fill="#8CD0F3" d="M359.9,1574.1c0,0,107.8-84.1,241.9-65.9c0,0-121.9,96.7-177.1,90.4l-9.3-8.1l-55.6,3
	C359.9,1593.3,351.8,1580.4,359.9,1574.1z"/>
<path opacity="0.2" fill="#FFFFFF" enable-background="new    " d="M464.7,1719.3v49.6c0,0-3.7,47.4-46.7,49.3l-122.2,5.9l27.4-18.9
	l-12.6-48.2c-1.5-1.9-2.6-4.1-3.7-6.7c11.1-10.4,37.4-27.4,90.4-31.1H464.7z"/>
<path opacity="0.2" fill="#FFFFFF" enable-background="new    " d="M1033.4,1511.5l93.7-3.7c0,0-38.2,30-64.8,32.6
	C1035.6,1543,1033.4,1511.5,1033.4,1511.5z"/>
<path opacity="0.2" fill="#FFFFFF" enable-background="new    " d="M1230.8,1796c0,0,848.7-117.8,1053.6-80.4c0,0,60.4,4.1,83,28.2
	c23,24.1,0,8.5,0,8.5L1230.8,1796z"/>
<path opacity="0.5" fill="#18218A" enable-background="new    " d="M1706.1,1465.2c0,0,10.7-20,28.2-20.4l113-5.9
	c0,0-1.9,15.6-21.9,21.5L1706.1,1465.2z"/>
<path opacity="0.5" fill="#18218A" enable-background="new    " d="M2360.3,1431.1c0,0,10.7-20,28.2-20.4l113-5.9
	c0,0-1.9,15.6-21.9,21.5L2360.3,1431.1z"/>
<path fill="#8CD0F3" d="M1974.3,1155.5l-86.7,227.5l-312.7,0.4h-80.4h-70h-60.8h-68.5c0,0,41.9-30.7,109.3-69.6
	c22.2-13,47.4-26.7,74.8-40.7c25.2-13,52.2-25.9,80.8-38.2c22.2-9.6,45.6-19.3,69.6-27.8C1737.6,1166.9,1859.5,1140.3,1974.3,1155.5
	z"/>
<path fill="#8CD0F3" d="M2465.5,1321.4c0,0-130.8,19.3-255.2,33.7c-47.8,5.6-94.5,10.4-132.6,13l-5.2,0.4
	c-14.8,1.1-28.5,1.5-40.4,1.9c-18.5,0.4-32.2-0.4-39.3-2.6l35.9-217.8c0,0,44.5,0.4,110.4,3.7l14.4,0.7c13.7,0.7,28.2,1.9,43,2.6
	c21.5,1.5,44.1,3.3,67.4,5.6c112.6,10.4,240.4,28.9,321.2,62.2C2757.1,1296.2,2465.5,1321.4,2465.5,1321.4z"/>
<path fill="#8CD0F3" d="M3067.9,1431.1v58.2c0,0-93.7,1.5-73.7-17.4c13-12.6,24.8-25.9,35.2-40.7H3067.9z"/>
<path fill="#8CD0F3" d="M3208.6,1483.3l-76.3,5.9v-69.6c0,0,35.2-49.6,70.8,5.6l1.9,3.3L3208.6,1483.3z"/>
<circle fill="#182A7C" cx="793.3" cy="1762.3" r="218.2"/>
<path fill="#3F8FFE" d="M968.2,1762.3c0,97.1-78.2,175.6-175.2,176c-97.1,0-175.6-78.2-176-175.2c0-97.1,78.2-175.6,175.2-176
	c83.4,0,155.2,58.2,172.3,139.7C967.1,1738.2,968.2,1750,968.2,1762.3z"/>
<ellipse opacity="0.5" fill="#18218A" enable-background="new    " cx="793" cy="1762.3" rx="150.4" ry="150.8"/>
<path fill="#3F8FFE" d="M843.3,1593.7v6.3l-50,165.6l-40-174.9C783,1584.1,814.1,1585.2,843.3,1593.7L843.3,1593.7z"/>
<path fill="#3F8FFE" d="M843,1930.4c-28.5,8.5-58.9,9.6-88.2,3l38.5-167.8L843,1930.4z"/>
<path fill="#3F8FFE" d="M968.2,1762.3c0,18.2-3,36.3-8.5,53.7h-0.7l-165.6-50l171.5-39.3C967.1,1738.2,968.2,1750.4,968.2,1762.3z"
	/>
<path fill="#3F8FFE" d="M793.3,1766l-165.6,50h-1.5c-9.3-28.9-10.7-59.6-4.8-89.6L793.3,1766z"/>
<circle fill="#182A7C" cx="793" cy="1762.3" r="19.3"/>
<circle fill="#182A7C" cx="2755.6" cy="1762.3" r="218.2"/>
<path fill="#3F8FFE" d="M2930.4,1762.3c0,97.1-78.2,175.6-175.2,176c-97.1,0-175.6-78.2-176-175.2c0-97.1,78.2-175.6,175.2-176
	c83.4,0,155.2,58.2,172.3,139.7C2929,1738.2,2930.4,1750,2930.4,1762.3z"/>
<ellipse opacity="0.5" fill="#18218A" enable-background="new    " cx="2755.2" cy="1762.3" rx="150.4" ry="150.8"/>
<path fill="#3F8FFE" d="M2805.6,1593.7v6.3l-50,165.6l-40-174.9C2745.2,1584.1,2776.3,1585.2,2805.6,1593.7z"/>
<path fill="#3F8FFE" d="M2805.2,1930.4c-28.5,8.5-58.9,9.6-88.2,3l38.5-167.8L2805.2,1930.4z"/>
<path fill="#3F8FFE" d="M2930.4,1762.3c0,18.2-3,36.3-8.5,53.7h-0.7l-165.6-50l171.5-39.3C2929.3,1738.2,2930.4,1750,2930.4,1762.3z
	"/>
<path fill="#3F8FFE" d="M2755.6,1766l-165.6,50h-1.5c-9.3-28.9-10.7-59.6-4.8-89.6L2755.6,1766z"/>
<circle fill="#182A7C" cx="2755.2" cy="1762.3" r="19.3"/>
<path opacity="0.2" fill="#FFFFFF" enable-background="new    " d="M1478.7,1272.9l-54.8,110.4h-60.8l40.4-69.6
	C1426.4,1300.7,1451.6,1287,1478.7,1272.9z"/>
<path opacity="0.2" fill="#FFFFFF" enable-background="new    " d="M1629.1,1206.6l-54.5,176.7h-80.4l65.6-148.5
	C1582,1224.7,1605.3,1215.5,1629.1,1206.6z"/>
<path opacity="0.2" fill="#FFFFFF" enable-background="new    " d="M2196.6,1157.3l-118.9,210.8l-5.2,0.4
	c-14.8,1.1-28.5,1.5-40.4,1.9l107.1-216.3l14.4,0.7C2166.9,1155.5,2181.4,1156.2,2196.6,1157.3z"/>
<polygon opacity="0.2" fill="none" stroke="#FFFFFF" stroke-miterlimit="10" enable-background="new    " points="1296.8,1382.6 
	1229,1850.1 1795.8,1837.8 1889.1,1384.8 "/>
<path opacity="0.5" fill="#18218A" enable-background="new    " d="M2349.9,1873c-8.1,3.7-27.4,13.3-30.4,28.9H1054.1l-25.9-0.4
	c5.6-9.3,10.4-18.9,14.8-28.5H2349.9z"/>
<path fill="#6C63FF" d="M1270.8,2113.7c7.2-6.9,14.2-14.8,16.4-24.5c2.2-9.7-1.9-21.4-11.3-25.2c-10.4-4.1-21.7,3.1-30.2,10.7
	s-18.2,15.7-29.2,14.1c11.6-10.7,17-26.4,13.8-41.8c-0.6-3.1-1.9-6-3.8-8.5c-6-6.3-16.4-3.5-23.3,1.3c-22,15.7-28.3,45.6-28.3,73
	c-2.2-9.7-0.3-19.8-0.3-29.9s-2.8-21.1-11.3-26.4c-5.3-2.8-11.3-4.1-17.3-4.1c-10.1-0.3-21.1,0.6-28,7.9c-8.5,9.1-6.3,24.2,1.3,34.3
	c7.5,10.1,18.6,16.4,28.9,23c8.2,5,15.4,11.6,20.4,19.8c0.6,1.3,1.3,2.2,1.6,3.5h61.9C1246.3,2133.2,1259.2,2124.1,1270.8,2113.7z"
	/>
<path fill="#6C63FF" d="M2576.1,2166.5c5.7-4.7,10.1-11,11.9-18.2c1.6-7.2-1.6-15.7-8.5-18.6c-7.9-2.8-16,2.5-22.3,7.9
	c-6.3,5.3-13.5,11.6-21.7,10.4c8.5-7.9,12.6-19.5,10.1-30.8c-0.3-2.2-1.3-4.4-2.8-6.3c-4.4-4.7-11.9-2.5-17.3,0.9
	c-16.4,11.6-21.1,33.6-21.1,53.8c-1.6-7.2-0.3-14.8-0.3-22c0-7.2-2.2-15.7-8.2-19.5c-3.8-2.2-8.2-3.1-12.6-3.1
	c-7.2-0.3-15.4,0.6-20.4,6c-6.3,6.6-4.7,17.9,0.9,25.2c5.7,7.2,13.5,11.9,21.4,17c6,3.8,11.3,8.5,15.1,14.5c0.3,0.9,0.9,1.6,1.3,2.5
	h46.2C2557.9,2181,2567.3,2174.4,2576.1,2166.5z"/>
<path fill="#6C63FF" d="M2780.5,2266.5c5.7-4.7,10.1-11,11.9-18.2c1.6-7.2-1.6-15.7-8.5-18.6c-7.9-2.8-16,2.5-22.3,7.9
	c-6.3,5.3-13.5,11.6-21.7,10.4c8.5-7.9,12.6-19.5,10.1-30.8c-0.3-2.2-1.3-4.4-2.8-6.3c-4.4-4.7-11.9-2.5-17.3,0.9
	c-16.4,11.6-21.1,33.6-21.1,53.8c-1.6-7.2-0.3-14.8-0.3-22s-2.2-15.7-8.2-19.5c-3.8-2.2-8.2-3.1-12.6-3.1c-7.2-0.3-15.4,0.6-20.4,6
	c-6.3,6.6-4.7,17.9,0.9,25.2s13.5,11.9,21.4,17c6,3.8,11.3,8.5,15.1,14.5c0.3,0.9,0.9,1.6,1.3,2.5h46.2
	C2762.2,2281,2771.7,2274.4,2780.5,2266.5z"/>
<path opacity="0.1" enable-background="new    " d="M1819.8,1676.3h-1.1C1818.7,1676.3,1861.3,1664.8,1819.8,1676.3z"/>
<path opacity="0.1" enable-background="new    " d="M2172.1,1890.8v6.3C2171.4,1894.9,2171.4,1892.7,2172.1,1890.8z"/>
</svg>
