<?xml version="1.0" encoding="utf-8"?>
<!-- Generator: Adobe Illustrator 18.0.0, SVG Export Plug-In . SVG Version: 6.00 Build 0)  -->
<!DOCTYPE svg PUBLIC "-//W3C//DTD SVG 1.1//EN" "http://www.w3.org/Graphics/SVG/1.1/DTD/svg11.dtd">
<svg version="1.1" id="_x35_608f773-9105-4ac5-92ee-00dc8494bf09"
	 xmlns="http://www.w3.org/2000/svg" xmlns:xlink="http://www.w3.org/1999/xlink" x="0px" y="0px" viewBox="0 0 969.5 765.7"
	 enable-background="new 0 0 969.5 765.7" xml:space="preserve">
<title>btc_p2p</title>
<path fill="#6C63FF" d="M246.4,88.4c-12.2,6.3-24.3,14.3-30.5,26.5c-4.5,9-5.4,19.3-6.1,29.4l-9,119.9c-2,26.7-4.2,54.2-15.9,78.3
	c-20.1,41.5-63.8,65.3-96.7,97.7c-53.8,53.1-76.9,142.7-36.5,206.6c17.8,27.9,45.4,48.3,77.3,57.1c18.7,5.1,38.3,6,57.7,6.9
	c162.5,7,325.1,9.9,487.8,8.5c19.3-0.2,39.2-0.5,57-7.8c24.6-10.1,42.3-32.4,54.5-56.1s20-49.4,31.5-73.4
	c23.6-49,62-88.9,95.5-131.8c18.4-23.6,35.7-48.6,46.1-76.7c16.5-44.7,13.6-97.2-12.2-137.2c-11.1-17.3-26.3-32.3-33.8-51.4
	c-10.6-26.8-4.7-56.7-2.2-85.4c2.5-28.7-0.2-61.4-22.3-79.8C876.6,9.3,860.4,5.3,844.7,3C769.5-8,694,13.8,619.4,28.4
	c-65.8,13-132.5,20.4-199.3,26.4C360.9,60.1,300.5,60.2,246.4,88.4z"/>
<path fill="none" stroke="#535461" stroke-width="2" stroke-miterlimit="10" d="M220.9,647.2c0,0-29.1-98.8,5.5-171.6
	c14.5-30.5,19.3-64.8,12.6-97.9c-3.2-15.7-7.8-31.1-13.9-46"/>
<path fill="#6C63FF" d="M246.6,285.8c0,12.1-21.9,47.2-21.9,47.2s-21.9-35.1-21.9-47.2c0-12.1,9.8-21.9,21.9-21.9
	C236.8,263.9,246.6,273.7,246.6,285.8L246.6,285.8z"/>
<path fill="#6C63FF" d="M282.9,352.8c-6.6,10.2-44.1,27.7-44.1,27.7s0.7-41.4,7.3-51.6c6.6-10.2,20.2-13.1,30.3-6.5
	C286.6,329.1,289.5,342.7,282.9,352.8z"/>
<path fill="#6C63FF" d="M281.3,467.5c-10.8,5.5-52,1.7-52,1.7s21.4-35.4,32.3-40.9c10.9-5.4,24-0.9,29.4,9.9
	C296.2,449,292,462,281.3,467.5z"/>
<path fill="#6C63FF" d="M260.6,554c-9.7,7.2-51,10.5-51,10.5s15.2-38.5,24.9-45.7c9.7-7.3,23.4-5.4,30.7,4.2s5.4,23.4-4.2,30.7
	C260.9,553.8,260.7,553.9,260.6,554L260.6,554z"/>
<path fill="#6C63FF" d="M192.7,382.9c8.7,8.4,49.2,17.2,49.2,17.2s-9.9-40.2-18.6-48.6c-8.7-8.4-22.6-8.1-31,0.6
	C184,360.8,184.2,374.5,192.7,382.9z"/>
<path fill="#6C63FF" d="M169.8,484.4c10.8,5.5,52,1.7,52,1.7s-21.5-35.4-32.3-40.8c-10.8-5.5-24-1.3-29.5,9.5
	c-5.5,10.8-1.3,24,9.5,29.5C169.5,484.3,169.6,484.3,169.8,484.4L169.8,484.4z"/>
<path fill="#6C63FF" d="M161,586c9.7,7.2,51,10.5,51,10.5s-15.2-38.5-24.9-45.7c-9.8-7.1-23.5-4.9-30.6,5
	C149.5,565.4,151.5,578.8,161,586L161,586z"/>
<path opacity="0.25" enable-background="new    " d="M246.6,285.8c0,12.1-21.9,47.2-21.9,47.2s-21.9-35.1-21.9-47.2
	c0-12.1,9.8-21.9,21.9-21.9C236.8,263.9,246.6,273.7,246.6,285.8L246.6,285.8z"/>
<path opacity="0.25" enable-background="new    " d="M282.9,352.8c-6.6,10.2-44.1,27.7-44.1,27.7s0.7-41.4,7.3-51.6
	c6.6-10.2,20.2-13.1,30.3-6.5C286.6,329.1,289.5,342.7,282.9,352.8z"/>
<path opacity="0.25" enable-background="new    " d="M281.3,467.5c-10.8,5.5-52,1.7-52,1.7s21.4-35.4,32.3-40.9
	c10.9-5.4,24-0.9,29.4,9.9C296.2,449,292,462,281.3,467.5z"/>
<path opacity="0.25" enable-background="new    " d="M260.6,554c-9.7,7.2-51,10.5-51,10.5s15.2-38.5,24.9-45.7
	c9.7-7.3,23.4-5.4,30.7,4.2s5.4,23.4-4.2,30.7C260.9,553.8,260.7,553.9,260.6,554L260.6,554z"/>
<path opacity="0.25" enable-background="new    " d="M192.7,382.9c8.7,8.4,49.2,17.2,49.2,17.2s-9.9-40.2-18.6-48.6
	c-8.7-8.4-22.6-8.1-31,0.6C184,360.8,184.2,374.5,192.7,382.9z"/>
<path opacity="0.25" enable-background="new    " d="M169.8,484.4c10.8,5.5,52,1.7,52,1.7s-21.5-35.4-32.3-40.8
	c-10.8-5.5-24-1.3-29.5,9.5c-5.5,10.8-1.3,24,9.5,29.5C169.5,484.3,169.6,484.3,169.8,484.4L169.8,484.4z"/>
<path opacity="0.25" enable-background="new    " d="M161,586c9.7,7.2,51,10.5,51,10.5s-15.2-38.5-24.9-45.7
	c-9.8-7.1-23.5-4.9-30.6,5C149.5,565.4,151.5,578.8,161,586L161,586z"/>
<path fill="none" stroke="#535461" stroke-width="2" stroke-miterlimit="10" d="M779.3,594.1c0,0-29.1-98.8,5.4-171.6
	c14.5-30.5,19.3-64.8,12.6-97.9c-3.2-15.7-7.8-31.1-13.9-46"/>
<path fill="#6C63FF" d="M805,232.6c0,12.1-21.9,47.2-21.9,47.2s-21.9-35.1-21.9-47.2c0-12.1,9.8-21.9,21.9-21.9
	C795.2,210.7,805,220.5,805,232.6C805,232.6,805,232.6,805,232.6z"/>
<path fill="#6C63FF" d="M841.3,299.7c-6.6,10.2-44.1,27.7-44.1,27.7s0.7-41.4,7.3-51.6c6.6-10.2,20.2-13.1,30.3-6.5
	C844.9,276,847.9,289.6,841.3,299.7z"/>
<path fill="#6C63FF" d="M839.7,414.4c-10.8,5.5-52,1.7-52,1.7s21.5-35.4,32.3-40.8c10.6-5.8,24-1.9,29.8,8.8
	c5.8,10.6,1.9,24-8.8,29.8C840.6,413.9,840.2,414.2,839.7,414.4z"/>
<path fill="#6C63FF" d="M819,500.8c-9.7,7.2-51,10.5-51,10.5s15.2-38.5,24.9-45.7c9.6-7.4,23.4-5.6,30.8,4c7.4,9.6,5.6,23.4-4,30.8
	C819.4,500.5,819.2,500.7,819,500.8z"/>
<path fill="#6C63FF" d="M751.1,329.8c8.7,8.4,49.2,17.2,49.2,17.2s-9.9-40.2-18.6-48.7c-8.7-8.4-22.6-8.2-31,0.4
	C742.2,307.5,742.4,321.4,751.1,329.8z"/>
<path fill="#6C63FF" d="M728.2,431.2c10.8,5.5,52,1.7,52,1.7s-21.5-35.4-32.3-40.8c-10.8-5.5-24-1.3-29.5,9.5s-1.3,24,9.5,29.5
	C728,431.1,728.1,431.2,728.2,431.2z"/>
<path fill="#6C63FF" d="M719.4,532.9c9.7,7.2,51,10.5,51,10.5s-15.2-38.5-24.9-45.7c-9.8-7.1-23.5-4.9-30.6,4.9
	C707.9,512.2,709.9,525.7,719.4,532.9L719.4,532.9z"/>
<path opacity="0.25" enable-background="new    " d="M805,232.6c0,12.1-21.9,47.2-21.9,47.2s-21.9-35.1-21.9-47.2
	c0-12.1,9.8-21.9,21.9-21.9C795.2,210.7,805,220.5,805,232.6C805,232.6,805,232.6,805,232.6z"/>
<path opacity="0.25" enable-background="new    " d="M841.3,299.7c-6.6,10.2-44.1,27.7-44.1,27.7s0.7-41.4,7.3-51.6
	c6.6-10.2,20.2-13.1,30.3-6.5C844.9,276,847.9,289.6,841.3,299.7z"/>
<path opacity="0.25" enable-background="new    " d="M839.7,414.4c-10.8,5.5-52,1.7-52,1.7s21.5-35.4,32.3-40.8
	c10.6-5.8,24-1.9,29.8,8.8c5.8,10.6,1.9,24-8.8,29.8C840.6,413.9,840.2,414.2,839.7,414.4z"/>
<path opacity="0.25" enable-background="new    " d="M819,500.8c-9.7,7.2-51,10.5-51,10.5s15.2-38.5,24.9-45.7
	c9.6-7.4,23.4-5.6,30.8,4c7.4,9.6,5.6,23.4-4,30.8C819.4,500.5,819.2,500.7,819,500.8z"/>
<path opacity="0.25" enable-background="new    " d="M751.1,329.8c8.7,8.4,49.2,17.2,49.2,17.2s-9.9-40.2-18.6-48.7
	c-8.7-8.4-22.6-8.2-31,0.4C742.2,307.5,742.4,321.4,751.1,329.8z"/>
<path opacity="0.25" enable-background="new    " d="M728.2,431.2c10.8,5.5,52,1.7,52,1.7s-21.5-35.4-32.3-40.8
	c-10.8-5.5-24-1.3-29.5,9.5s-1.3,24,9.5,29.5C728,431.1,728.1,431.2,728.2,431.2z"/>
<path opacity="0.25" enable-background="new    " d="M719.4,532.9c9.7,7.2,51,10.5,51,10.5s-15.2-38.5-24.9-45.7
	c-9.8-7.1-23.5-4.9-30.6,4.9C707.9,512.2,709.9,525.7,719.4,532.9L719.4,532.9z"/>
<g opacity="0.1">
	<path fill="#00FFFF" d="M0.9,765.7c11.1-4,1.4-0.7-0.6-0.1C0.5,765.6,0.7,765.7,0.9,765.7z"/>
</g>
<g opacity="0.1">
	<path fill="#00FFFF" d="M0.3,765.5L0,765.5v0.2L0.3,765.5z"/>
</g>
<linearGradient id="SVGID_1_" gradientUnits="userSpaceOnUse" x1="752.1013" y1="20.8872" x2="752.1013" y2="575.292" gradientTransform="matrix(1 0 0 -1 -115.27 700.83)">
	<stop  offset="0" style="stop-color:#808080;stop-opacity:0.25"/>
	<stop  offset="0.54" style="stop-color:#808080;stop-opacity:0.12"/>
	<stop  offset="1" style="stop-color:#808080;stop-opacity:0.1"/>
</linearGradient>
<path fill="url(#SVGID_1_)" d="M762,640.5c0-0.1,0-0.3,0.1-0.4s0-0.1,0-0.1c0-0.2,0-0.5,0-0.8c0,0-1.3-2.6-2.9-6.1l0,0
	c-2.1-4.8-4.7-11.5-4.7-15.9c0,0-23.4-81.8-39.2-90.7c0,0-13-23.2-12.9-36.2c0-4.2-0.3-8.3-1-12.4c-2.3-14.4-6.2-41.9-2.6-46.9
	c4.5-6.4,11.9-34.2-5.9-55.2l3.1-0.5c0,0-0.2-0.2-0.5-0.6l0.5-0.1c0,0-6.9-8.3-6.9-26.5c0.1-10.5,2.5-24.2,9.6-41.5
	c0.9-2.3,1.8-4.6,2.6-6.8c3.3-1.7,6.4-3.8,9-6.5l0.3-0.3l0.4-0.3c6.6-6.6,10.5-15.4,13.3-24.3c2.5-8.2,4.2-16.6,4.8-25.1
	c0.7-9.3,0.3-18.6,0-27.9c-0.5-10.8-1-22-5.3-31.9c-1.7-3.9-4-7.5-5-11.6c-0.6-2.8-1-5.7-1.2-8.5c-1.4-11.2-6.8-22.1-15.5-29.3
	s-20.9-10.4-31.8-7.4c-6.2,1.7-11.8,5.3-17,9.2c-2.2,1.7-4.3,3.5-6.3,5.5c-6.3,6.1-11,14.2-6.5,22.7c0.3,0.6,0.7,1.2,1.1,1.8
	c-9.1,14.5-4.7,33.6,9.8,42.6c1.5,1,3.1,1.8,4.8,2.5l0.8,1.4h0.1c2.4,4.4,5,9.9,5.6,14c-3,2.1-5.7,4.6-8,7.4
	c-8.1,9.6-12.5,16.2-14.9,20.5c-2.3,4-4.9,7.7-7.9,11.1c-3.7,4.3-8,12.8-8,28.6c0,1.2,0,2.4,0,3.6c-19.4,21.1-94.9,5.6-94.9,5.6
	c-9.1-3.5-19.7,0.7-24.6,3.2c-1.5,0.7-2.1,2.5-1.4,4c0.1,0.2,0.2,0.4,0.4,0.6c8,9.6,27.7,3.9,27.7,3.9s70.8,12.4,76.3,16.5
	c3.7,2.8,10.3,0.5,14.2-1.2l-0.8,0.9l1-0.5l-5.4,48.9h0.1l-0.1,0.7c0,0,1.3-0.1,3.3-0.3l1.7,4.3h-0.1l1.7,4.1l0,0l1.4,3.4
	c-4.3,15.4-21.5,79-19.7,93.5c0,0-11,26.1-6.9,40.5c0,0-15.1,108.6-24.7,114.1l1.3,0.6c-10.3,5.9-32.6,16.9-48.1,11.8
	c0,0-9.6,2.8,5.5,12.4c0,0,61.8,16.5,70.1,11l-1.4-23.8l0.7,0.3c0.1-1.3,1-11.2,4.8-15.7c0,0,24.7-67.3,23.4-101.7l23.1-55.8
	c2.5,6.4,5.2,11.8,7.8,15.3l9.6,24.7l15.8,20.6c0,0,49.5,78.3,46,101.7l1.2,0.3c-4.6,8.2-16.2,25.1-32.8,25.1
	c0,0-14.4,15.1,12.4,13.1c0,0,33.7-2.1,58.4-15.8L762,640.5z"/>
<path fill="#333333" d="M586.6,634.2c0,0-31.8,21.2-51.7,14.6c0,0-9.3,2.7,5.3,11.9c0,0,59.7,15.9,67.6,10.6l-2-34.5L586.6,634.2z"
	/>
<path fill="#333333" d="M736.4,634.2c0,0-12.6,28.5-33.8,28.5c0,0-13.9,14.6,11.9,12.6c0,0,32.5-2,56.3-15.2l-11.4-29.7L736.4,634.2
	z"/>
<polygon fill="#FDB797" points="623.1,381.3 628.1,394.3 660.5,391.9 657.2,370.1 "/>
<path fill="#252A62" d="M630.4,394.3c0,0-21.9,77.6-19.9,93.5c0,0-10.6,25.2-6.6,39.1c0,0-14.6,104.7-23.9,110
	c0,0,27,12.2,27.8,11.9c9.3-3.3-0.7,0-0.7,0s0.7-10.6,4.6-15.2c0,0,23.9-65,22.5-98.1l31.8-76.9L630.4,394.3z"/>
<path opacity="0.1" enable-background="new    " d="M630.4,394.3c0,0-21.9,77.6-19.9,93.5c0,0-10.6,25.2-6.6,39.1
	c0,0-14.6,104.7-23.9,110c0,0,27,12.2,27.8,11.9c9.3-3.3-0.7,0-0.7,0s0.7-10.6,4.6-15.2c0,0,23.9-65,22.5-98.1l31.8-76.9
	L630.4,394.3z"/>
<path fill="#252A62" d="M626.4,390.3l14.6,34.5c0,0,11.3,56.3,23.2,71.6l9.3,23.9l15.2,19.9c0,0,47.7,75.5,44.4,98.1
	c0,0,29.8,8,29.2-2c0,0-7.3-13.9-7.3-21.2c0,0-22.5-78.9-37.8-87.5c0,0-12.5-22.3-12.4-34.9c0-4-0.3-8-1-12
	c-2.2-13.9-5.9-40.4-2.5-45.2c4.6-6.6,12.6-37.1-9.9-57.7L626.4,390.3z"/>
<path opacity="0.1" enable-background="new    " d="M762.3,636.2c0,0-7.3-13.9-7.3-21.2c0,0-22.5-78.9-37.8-87.5
	c0,0-12.5-22.3-12.4-34.9c0-4-0.3-8-1-12c-2.2-13.9-5.9-40.4-2.5-45.2c4.6-6.6,12.6-37.1-9.9-57.7l-3.8,0.8
	c21.5,20.5,13.7,50.4,9.2,56.9c-4.6,6.6,4,53.7,4,53.7c-3.3,11.3,11.9,38.4,11.9,38.4c15.2,8.6,37.8,87.5,37.8,87.5
	c0,7.3,7.3,21.2,7.3,21.2c0.2,3.3-2.9,4.6-7.2,4.9C756.9,641.4,762.6,640.5,762.3,636.2z"/>
<path fill="#FDB797" d="M656.9,217.3c0,0,12.6,19.2,9.3,25.2l32.5-8c0,0-8.6-9.3-6.6-31.8L656.9,217.3z"/>
<path opacity="0.1" enable-background="new    " d="M703.3,231.2c0,0-27.2-6-44.4,14.6c-7.8,9.3-12.1,15.6-14.4,19.7
	c-2.2,3.8-4.8,7.4-7.6,10.8c-4.3,5.1-9.6,16.1-7.1,38.4l-8,71.6c0,0,23.2-2,29.2,0s47.7-4.6,47.7-4.6s-16.6-19.9,2.7-66.3
	C720.5,269,703.3,231.2,703.3,231.2z"/>
<path fill="#F55F44" d="M703.3,230.6c0,0-27.2-6-44.4,14.6c-7.8,9.3-12.1,15.6-14.4,19.7c-2.2,3.8-4.8,7.4-7.6,10.8
	c-4.3,5.1-9.6,16.1-7.1,38.4l-8,71.6c0,0,23.2-2,29.2,0s47.7-4.6,47.7-4.6s-16.6-19.9,2.7-66.3C720.5,268.3,703.3,230.6,703.3,230.6
	z"/>
<path opacity="0.1" enable-background="new    " d="M670.5,291.8c0,0-25.9,37.1-37.8,43.8l-6.6,3.3
	C626.1,338.9,667.8,291.8,670.5,291.8z"/>
<path fill="#FDB797" d="M646.3,273c0,0,17-6.7,24.3,15.5c0.6,1.8,0.2,3.9-1.1,5.3l-39.7,42.9c0,0-11.3,6.6-16.6,2.6
	c-5.3-4-73.6-15.9-73.6-15.9s-19,5.6-26.7-3.7c-1-1.2-0.9-3,0.4-4c0.2-0.1,0.4-0.3,0.6-0.4c3.7-1.9,9.9-0.8,17.2-1.7
	c5.6-0.7,11.2-0.5,16.8,0.3c22.7,3.6,76.3,9.4,84.6-12.4C643,273.6,646.3,273,646.3,273z"/>
<path opacity="0.1" enable-background="new    " d="M646,273.3c0,0,20.5-3.3,25.2,17.2v-1.3C671.1,289.2,665.2,266.7,646,273.3z"/>
<path opacity="0.1" enable-background="new    " d="M692.7,204.1l-35.2,14.6c0,0,1.6,2.4,3.5,5.8c3.4,1.4,8.2,0.5,12.1,0.5
	c8,0,13.8-2.1,19.2-7.3C691.9,213.7,692.2,209.5,692.7,204.1z"/>
<circle fill="#FDB797" cx="671.5" cy="195.4" r="29.8"/>
<path opacity="0.1" enable-background="new    " d="M671.5,191.4c0.7,2.3-1.3,4.4-2.6,6.4c-4.8,6.8-3.9,16.1-1.7,24.2
	c1.1,4,2.7,8.1,6.2,10.2c2.8,1.6,6.3,1.6,9.5,2.4c5.7,1.5,10.3,6,13,11.2s3.7,11.2,4,17.1c1,17-3.1,33.9-11.8,48.6
	c8.8,1.5,18-2.5,24.3-8.9c6.3-6.4,10.2-14.8,12.8-23.4c2.5-7.9,4-16,4.7-24.2c0.7-8.9,0.3-17.9,0-26.9c-0.4-10.5-0.9-21.2-5.2-30.8
	c-1.7-3.7-3.8-7.3-4.9-11.2c-0.6-2.7-1-5.5-1.2-8.2c-1.4-10.8-6.5-21.3-14.9-28.3s-20.2-10-30.7-7.1c-6,1.7-11.4,5.1-16.4,8.9
	c-8.1,6.1-17.3,16-11.6,26.5C650.1,187.1,661.1,193,671.5,191.4z"/>
<path fill="#72351C" d="M672.2,190.7c0.7,2.3-1.3,4.4-2.6,6.4c-4.8,6.8-3.9,16.1-1.7,24.2c1.1,4,2.7,8.1,6.2,10.2
	c2.8,1.6,6.3,1.6,9.5,2.4c5.7,1.5,10.3,6,13,11.2s3.7,11.2,4,17.1c1,17-3.1,33.9-11.8,48.6c8.8,1.5,18-2.5,24.3-8.9
	c6.3-6.4,10.2-14.8,12.8-23.4c2.5-7.9,4-16,4.7-24.2c0.7-8.9,0.3-17.9,0-26.9c-0.4-10.5-0.9-21.2-5.2-30.8
	c-1.7-3.7-3.8-7.3-4.9-11.2c-0.6-2.7-1-5.5-1.2-8.2c-1.4-10.8-6.5-21.3-14.9-28.3s-20.2-10-30.7-7.1c-6,1.7-11.4,5.1-16.4,8.9
	c-8.1,6.1-17.3,16-11.6,26.5C650.8,186.4,661.7,192.4,672.2,190.7z"/>
<path opacity="0.1" enable-background="new    " d="M675.1,338.9c0,0,12.6,0,17.2-6"/>
<path opacity="0.1" enable-background="new    " d="M675.1,343.5c0,0,12.6,0,17.2-6"/>
<path opacity="0.1" enable-background="new    " d="M687.1,267.3c0,0-2,15.9-9.3,23.2"/>
<g opacity="0.1">
	
		<linearGradient id="SVGID_2_" gradientUnits="userSpaceOnUse" x1="514.88" y1="36.38" x2="514.88" y2="36.54" gradientTransform="matrix(1 0 0 -1 -115.27 700.83)">
		<stop  offset="0" style="stop-color:#808080;stop-opacity:0.25"/>
		<stop  offset="0.54" style="stop-color:#808080;stop-opacity:0.12"/>
		<stop  offset="1" style="stop-color:#808080;stop-opacity:0.1"/>
	</linearGradient>
	<path fill="url(#SVGID_2_)" d="M399.7,664.5v-0.2l-0.2,0.1L399.7,664.5z"/>
</g>
<g opacity="0.1">
	
		<linearGradient id="SVGID_3_" gradientUnits="userSpaceOnUse" x1="512.4348" y1="36.3797" x2="512.4348" y2="37.9397" gradientTransform="matrix(1 0 0 -1 -115.27 700.83)">
		<stop  offset="0" style="stop-color:#808080;stop-opacity:0.25"/>
		<stop  offset="0.54" style="stop-color:#808080;stop-opacity:0.12"/>
		<stop  offset="1" style="stop-color:#808080;stop-opacity:0.1"/>
	</linearGradient>
	<path fill="url(#SVGID_3_)" d="M399,664.5c0.2,0,0.3,0,0.5-0.1C397.9,663.8,390.2,661.3,399,664.5z"/>
</g>
<linearGradient id="SVGID_4_" gradientUnits="userSpaceOnUse" x1="478.693" y1="18.5152" x2="478.693" y2="566.0009" gradientTransform="matrix(1 0 0 -1 -115.27 700.83)">
	<stop  offset="0" style="stop-color:#808080;stop-opacity:0.25"/>
	<stop  offset="0.54" style="stop-color:#808080;stop-opacity:0.12"/>
	<stop  offset="1" style="stop-color:#808080;stop-opacity:0.1"/>
</linearGradient>
<path fill="url(#SVGID_4_)" d="M498.5,313.4c-5.1-2.5-15.9-6.7-25.1-3.2c0,0-89,17.6-100.2-10.9c-0.5-1.3-1-2.6-1.5-3.9
	c0.2-1.9,0.3-3.7,0.3-5.6c0-2.3-0.1-4.6-0.5-6.9c-0.6-3.3-1.9-6.5-3.8-9.3c-2.2-3.7-4-7.6-5.4-11.7c-4.4-11.9-13.6-21.4-25.4-26
	c0.2-4.3,3.2-10.5,5.9-15.4h0.1l0.8-1.4c11.8-4.5,19.6-15.7,19.7-28.3c0-5.9-1.8-11.7-5.1-16.6c9.4-1.5,6.2-9.5,0.4-16.4
	c-1.1-1.3-2.3-2.6-3.6-3.8c-5.7-5.6-12.8-9.5-20.6-11.2c-0.9-0.2-1.9-0.4-2.8-0.5c-11.3-3.9-23.9-2.4-33.9,4.1
	c-2.5-7.1-9.2-11.7-16.7-11.7c-9.7,0-17.5,7.6-17.5,17s7.8,17,17.5,17h1c-0.6,2.7-1,5.4-1,8.2c0,17.1,12.1,31.5,28.5,35.5l0.3,0.3
	c0,0.3,0,0.6-0.1,0.9l0.1,0.1c-0.6,5-2.2,9.9-4.7,14.3l-0.6-0.1c-12.9,9-17.6,22.6-17.5,36.9c-0.1,12.1,3.3,24.7,8,35
	c1.7,4.1,2.6,8.5,2.5,13c-0.3,15.4-7.3,33.9-12.2,44.7c-1.9,4.3-29.6,71.3-29.6,71.3l0.6-0.2l-0.6,1.5c6.1-1.7,12.6-0.9,18.1,0.6
	c7.7,2,15.8,0.9,22.7-3.2c0.7,3.2,2,6.3,3.8,9.1c3.6,5-0.3,32.1-2.7,46.3c-0.7,4.1-1,8.2-1,12.3c0.1,12.9-13.1,35.7-13.1,35.7
	c-16.1,8.8-40,89.6-40,89.6c0,4.3-2.6,10.9-4.8,15.7l0,0c-1.6,3.5-3,6-3,6c0,0.2,0,0.5,0,0.7c0,0,0,0.1,0,0.1c0,0.1,0,0.3,0.1,0.4
	l-9.2,23.2c25.2,13.6,59.6,15.6,59.6,15.6c27.3,2,12.6-12.9,12.6-12.9c-17,0-28.7-16.7-33.4-24.8l1.2-0.3
	c-3.5-23.1,47-100.4,47-100.4l16.1-20.4l9.8-24.5c2.7-3.4,5.4-8.7,8-15.1l23.5,55.1c-1.4,33.9,23.8,100.4,23.8,100.4
	c3.9,4.4,4.8,14.1,4.9,15.5l0.7-0.2l-1.4,23.5c8.4,5.4,71.5-10.9,71.5-10.9c15.4-9.5,5.6-12.2,5.6-12.2c-15.7,5.1-38.6-5.8-49-11.6
	l1.4-0.6c-9.8-5.4-25.2-112.6-25.2-112.6c4.2-14.3-7-40-7-40c1.3-9.9-6.8-43.2-13.3-67.7c8.3-0.1,16.7-0.9,24.9-2.5
	c-0.5-0.3-1-0.7-1.5-1c1-0.2,1.5-0.3,1.5-0.3c-21.7-13.8-34-60.6-39.3-87.1c1.3,1.1,2.8,2.1,4.3,3l7,3.4l-0.8-0.9
	c3.9,1.7,10.6,4,14.5,1.2c5.6-4.1,77.8-16.3,77.8-16.3s20,5.7,28.2-3.8c1.1-1.2,1-3-0.2-4.1C499,313.7,498.8,313.5,498.5,313.4z"/>
<circle fill="#FFC533" cx="321.2" cy="183.8" r="35.8"/>
<path fill="#FDB797" d="M348.1,219.3c0,0-12.6,19.2-9.3,25.2l-32.5-8c0,0,8.6-9.3,6.6-31.8L348.1,219.3z"/>
<path opacity="0.1" enable-background="new    " d="M312.3,206l35.1,14.6c0,0-1.6,2.4-3.5,5.8c-3.4,1.4-8.2,0.5-12.1,0.5
	c-8,0-13.9-2.1-19.2-7.3C313.1,215.7,312.7,211.5,312.3,206z"/>
<circle fill="#FDB797" cx="333.5" cy="197.4" r="29.8"/>
<circle fill="#FFC533" cx="285.4" cy="159.3" r="16.6"/>
<path opacity="0.1" enable-background="new    " d="M354.7,181.4c-7.5-0.1-15.9-1.6-21.5,3.3c-4,3.5-5.1,9.3-6.4,14.4
	c-2,7.8-6.6,16.3-14.5,17.5c-4.9,0.7-9.8-1.7-13.2-5.2s-5.7-8-7.8-12.4s-4.2-9-4-13.9c0.2-5.8,3.6-11,7.1-15.6
	c2.1-2.9,4.4-5.7,7-8.2c15.5-14.9,40.2-14.5,55.1,1c0.9,0.9,1.7,1.9,2.5,2.9C365,172.7,368.1,181.7,354.7,181.4z"/>
<path fill="#FFC533" d="M354,180.8c-7.5-0.1-15.9-1.6-21.5,3.3c-4,3.5-5.1,9.3-6.4,14.4c-2,7.8-6.6,16.3-14.5,17.5
	c-4.9,0.7-9.8-1.7-13.2-5.2s-5.7-8-7.8-12.4s-4.2-9-4-13.9c0.2-5.8,3.6-11,7.1-15.6c2.1-2.9,4.4-5.7,7-8.2
	c15.5-14.9,40.2-14.5,55.1,1c0.9,0.9,1.7,1.9,2.5,2.9C364.4,172.1,367.5,181,354,180.8z"/>
<path fill="#333333" d="M418.3,636.2c0,0,31.8,21.2,51.7,14.6c0,0,9.3,2.7-5.3,11.9c0,0-59.7,15.9-67.6,10.6l2-34.5L418.3,636.2z"/>
<path fill="#333333" d="M268.5,636.2c0,0,12.6,28.5,33.8,28.5c0,0,13.9,14.6-11.9,12.6c0,0-32.5-2-56.3-15.2l11.4-29.7L268.5,636.2z
	"/>
<path fill="#3AD29F" d="M374.6,396.2c0,0,21.9,77.5,19.9,93.4c0,0,10.6,25.2,6.6,39.1c0,0,14.6,104.7,23.9,110
	c0,0-27,12.2-27.8,11.9c-9.3-3.3,0.7,0,0.7,0s-0.7-10.6-4.6-15.2c0,0-23.9-65-22.5-98.1l-31.8-76.9L374.6,396.2z"/>
<path opacity="0.1" enable-background="new    " d="M374.6,396.2c0,0,21.9,77.5,19.9,93.4c0,0,10.6,25.2,6.6,39.1
	c0,0,14.6,104.7,23.9,110c0,0-27,12.2-27.8,11.9c-9.3-3.3,0.7,0,0.7,0s-0.7-10.6-4.6-15.2c0,0-23.9-65-22.5-98.1l-31.8-76.9
	L374.6,396.2z"/>
<path fill="#3AD29F" d="M378.6,392.3L364,426.7c0,0-11.3,56.3-23.2,71.6l-9.3,23.9L316.3,542c0,0-47.7,75.5-44.4,98.1
	c0,0-29.8,8-29.2-2c0,0,7.3-13.9,7.3-21.2c0,0,22.5-78.9,37.8-87.5c0,0,12.5-22.3,12.4-34.9c0-4,0.3-8,1-12
	c2.2-13.9,5.9-40.4,2.5-45.2c-4.6-6.6-12.6-37.1,9.9-57.7L378.6,392.3z"/>
<path opacity="0.1" enable-background="new    " d="M242.7,638.1c0,0,7.3-13.9,7.3-21.2c0,0,22.5-78.9,37.8-87.5
	c0,0,12.5-22.3,12.4-34.9c0-4,0.3-8,1-12c2.2-13.9,5.9-40.4,2.5-45.2c-4.6-6.6-12.6-37.1,9.9-57.7l3.8,0.8
	c-21.6,20.5-13.8,50.4-9.2,56.9s-4,53.7-4,53.7c3.3,11.3-11.9,38.4-11.9,38.4c-15.2,8.6-37.8,87.5-37.8,87.5
	c0,7.3-7.3,21.2-7.3,21.2c-0.2,3.3,2.9,4.6,7.1,4.9C248.1,643.4,242.4,642.5,242.7,638.1z"/>
<path opacity="0.1" enable-background="new    " d="M307.7,234.8l24.6,6.1c14,3.5,25.2,13.7,30,27.3c1.3,4,3,7.8,5.1,11.4
	c1.8,2.8,3,5.9,3.6,9.1c1,6.5,0.9,17-5.9,28.9c0,0,11.2,84.2,40.3,103.4c0,0-28.4,6.5-53.3-1.5c-16.7-5.4-35-3.1-49.3,7.1l-0.6,0.5
	c-6.7,5-15.3,6.7-23.4,4.5c-5.2-1.5-11.4-2.2-17.1-0.5c0,0,26.2-65.4,28-69.6c6.1-14.2,16.1-41.9,9.1-57.6
	C289,281.9,285.4,249.4,307.7,234.8z"/>
<path fill="#535461" d="M307.7,233.5l24.6,6.1c14,3.5,25.2,13.7,30,27.3c1.3,4,3,7.8,5.1,11.4c1.8,2.8,3,5.9,3.6,9.1
	c1,6.5,0.9,17-5.9,28.9c0,0,11.2,84.2,40.3,103.4c0,0-28.4,6.5-53.3-1.5c-16.7-5.4-35-3.1-49.3,7.1l-0.6,0.5
	c-6.7,5-15.3,6.7-23.4,4.5c-5.2-1.5-11.4-2.2-17.1-0.5c0,0,26.2-65.4,28-69.6c6.1-14.2,16.1-41.9,9.1-57.7
	C289,280.6,285.4,249.4,307.7,233.5z"/>
<path opacity="0.1" enable-background="new    " d="M334.5,293.8c0,0,25.9,37.1,37.8,43.7l6.6,3.3
	C378.9,340.9,337.1,293.8,334.5,293.8z"/>
<path fill="#FDB797" d="M358.7,275c0,0-17-6.7-24.3,15.5c-0.6,1.8-0.2,3.9,1.1,5.3l39.7,42.9c0,0,11.3,6.6,16.6,2.7
	c5.3-4,73.6-15.9,73.6-15.9s18.8,5.5,26.6-3.6c1.1-1.2,0.9-3.1-0.3-4.1c-0.2-0.1-0.4-0.3-0.5-0.4c-4.1-2.1-11.6-2-19.7-2.7
	c-2.8-0.2-5.6-0.1-8.4,0.4c-17.3,3.1-81.3,12.6-90.4-11.4C362,275.6,358.7,275,358.7,275z"/>
<path opacity="0.1" enable-background="new    " d="M359,275.3c0,0-20.5-3.3-25.2,17.2v-1.3C333.8,291.2,339.8,268.7,359,275.3z"/>
<path opacity="0.5" fill="#FFFFFF" enable-background="new    " d="M573.7,244.1c0,40.6-32.9,73.6-73.6,73.6s-73.6-32.9-73.6-73.6
	s32.9-73.6,73.6-73.6l0,0C540.8,170.6,573.7,203.5,573.7,244.1z M513.3,259.5c-2.5,10-19.4,4.6-24.8,3.3l4.4-17.8
	C498.3,246.4,515.9,249.1,513.3,259.5L513.3,259.5z"/>
<path fill="none" stroke="#535461" stroke-width="2" stroke-miterlimit="10" d="M491.7,631.8c0,0-15.8-53.5,3-92.9
	c7.9-16.5,10.3-35.1,6.8-53c-1.7-8.5-4.3-16.8-7.5-24.9"/>
<path fill="#6C63FF" d="M505.6,436.2c0,6.6-11.9,25.6-11.9,25.6s-11.9-19-11.9-25.6c0-6.6,5.3-11.9,11.9-11.9
	S505.6,429.6,505.6,436.2L505.6,436.2z"/>
<path fill="#6C63FF" d="M525.2,472.5c-3.6,5.5-23.9,15-23.9,15s0.4-22.4,3.9-27.9c3.6-5.5,10.9-7.1,16.4-3.5S528.8,467,525.2,472.5
	L525.2,472.5z"/>
<path fill="#6C63FF" d="M524.4,534.5c-5.8,3-28.2,0.9-28.2,0.9s11.6-19.2,17.5-22.1c5.9-3,13-0.6,15.9,5.3S530.2,531.6,524.4,534.5
	L524.4,534.5z"/>
<path fill="#6C63FF" d="M513.1,581.4c-5.3,3.9-27.6,5.7-27.6,5.7s8.2-20.8,13.5-24.8c5.3-3.9,12.7-2.8,16.6,2.5
	C519.5,570,518.4,577.5,513.1,581.4L513.1,581.4z"/>
<path fill="#6C63FF" d="M476.4,488.8c4.7,4.6,26.6,9.3,26.6,9.3s-5.4-21.8-10.1-26.3c-4.5-4.7-12-4.9-16.8-0.4
	c-4.7,4.5-4.9,12-0.4,16.8C476,488.4,476.2,488.6,476.4,488.8L476.4,488.8z"/>
<path fill="#6C63FF" d="M464,543.7c5.8,3,28.2,0.9,28.2,0.9s-11.6-19.2-17.5-22.1c-5.9-3-13-0.6-15.9,5.3S458.2,540.7,464,543.7
	L464,543.7z"/>
<path fill="#6C63FF" d="M459.2,598.7c5.3,3.9,27.6,5.7,27.6,5.7s-8.2-20.8-13.5-24.8c-5.3-3.9-12.7-2.8-16.6,2.5
	C452.9,587.4,454,594.8,459.2,598.7L459.2,598.7z"/>
<path opacity="0.5" fill="#FFFFFF" enable-background="new    " d="M505.6,436.2c0,6.6-11.9,25.6-11.9,25.6s-11.9-19-11.9-25.6
	c0-6.6,5.3-11.9,11.9-11.9S505.6,429.6,505.6,436.2L505.6,436.2z"/>
<path opacity="0.5" fill="#FFFFFF" enable-background="new    " d="M525.2,472.5c-3.6,5.5-23.9,15-23.9,15s0.4-22.4,3.9-27.9
	c3.6-5.5,10.9-7.1,16.4-3.5S528.8,467,525.2,472.5L525.2,472.5z"/>
<path opacity="0.5" fill="#FFFFFF" enable-background="new    " d="M524.4,534.5c-5.8,3-28.2,0.9-28.2,0.9s11.6-19.2,17.5-22.1
	c5.9-3,13-0.6,15.9,5.3S530.2,531.6,524.4,534.5L524.4,534.5z"/>
<path opacity="0.5" fill="#FFFFFF" enable-background="new    " d="M513.1,581.4c-5.3,3.9-27.6,5.7-27.6,5.7s8.2-20.8,13.5-24.8
	c5.3-3.9,12.7-2.8,16.6,2.5C519.5,570,518.4,577.5,513.1,581.4L513.1,581.4z"/>
<path opacity="0.5" fill="#FFFFFF" enable-background="new    " d="M476.4,488.8c4.7,4.6,26.6,9.3,26.6,9.3s-5.4-21.8-10.1-26.3
	c-4.5-4.7-12-4.9-16.8-0.4c-4.7,4.5-4.9,12-0.4,16.8C476,488.4,476.2,488.6,476.4,488.8L476.4,488.8z"/>
<path opacity="0.5" fill="#FFFFFF" enable-background="new    " d="M464,543.7c5.8,3,28.2,0.9,28.2,0.9s-11.6-19.2-17.5-22.1
	c-5.9-3-13-0.6-15.9,5.3S458.2,540.7,464,543.7L464,543.7z"/>
<path opacity="0.5" fill="#FFFFFF" enable-background="new    " d="M459.2,598.7c5.3,3.9,27.6,5.7,27.6,5.7s-8.2-20.8-13.5-24.8
	c-5.3-3.9-12.7-2.8-16.6,2.5C452.9,587.4,454,594.8,459.2,598.7L459.2,598.7z"/>
<g>
	<path fill="#5F5FF9" d="M528.8,226.8c-0.4-0.4-0.9-0.6-1.5-0.6h-11.1c-0.7-3.6-2.1-6.7-4.2-9.4h15.2c0.6,0,1.1-0.2,1.5-0.6
		c0.4-0.4,0.6-0.9,0.6-1.5v-6.6c0-0.6-0.2-1.1-0.6-1.5c-0.4-0.4-0.9-0.6-1.5-0.6H473c-0.6,0-1.1,0.2-1.5,0.6
		c-0.4,0.4-0.6,0.9-0.6,1.5v8.7c0,0.6,0.2,1.1,0.6,1.5c0.4,0.4,0.9,0.6,1.5,0.6h9.4c9.2,0,15,2.5,17.5,7.4H473
		c-0.6,0-1.1,0.2-1.5,0.6c-0.4,0.4-0.6,0.9-0.6,1.5v6.6c0,0.6,0.2,1.1,0.6,1.5c0.4,0.4,0.9,0.6,1.5,0.6h27.8c-1,3.6-3.2,6.3-6.7,8.1
		c-3.5,1.9-8.1,2.8-13.8,2.8H473c-0.6,0-1.1,0.2-1.5,0.6c-0.4,0.4-0.6,0.9-0.6,1.5v8.3c0,0.6,0.2,1,0.6,1.4
		c8.3,8.9,19.2,21.3,32.5,37.2c0.4,0.5,0.9,0.8,1.6,0.8h12.7c0.9,0,1.5-0.4,1.9-1.2c0.4-0.8,0.4-1.5-0.3-2.2
		c-12.7-15.6-22.7-27.2-29.9-34.9c7.4-0.9,13.4-3.3,18-7.2c4.6-3.9,7.4-9,8.4-15.2h10.9c0.6,0,1.1-0.2,1.5-0.6
		c0.4-0.4,0.6-0.9,0.6-1.5v-6.6C529.4,227.7,529.2,227.2,528.8,226.8L528.8,226.8z M528.8,226.8"/>
</g>
</svg>
