<?xml version="1.0" encoding="utf-8"?>
<!-- Generator: Adobe Illustrator 18.0.0, SVG Export Plug-In . SVG Version: 6.00 Build 0)  -->
<!DOCTYPE svg PUBLIC "-//W3C//DTD SVG 1.1//EN" "http://www.w3.org/Graphics/SVG/1.1/DTD/svg11.dtd">
<svg version="1.1" id="ba7a25ce-c07b-4ac4-a0ea-a259ac25350d"
	 xmlns="http://www.w3.org/2000/svg" xmlns:xlink="http://www.w3.org/1999/xlink" x="0px" y="0px" viewBox="0 0 886 757.3"
	 enable-background="new 0 0 886 757.3" xml:space="preserve">
<title>for sale</title>
<linearGradient id="SVGID_1_" gradientUnits="userSpaceOnUse" x1="709" y1="522.465" x2="768" y2="522.465" gradientTransform="matrix(1 0 0 -1 0 760)">
	<stop  offset="0" style="stop-color:#808080;stop-opacity:0.25"/>
	<stop  offset="0.54" style="stop-color:#808080;stop-opacity:0.12"/>
	<stop  offset="1" style="stop-color:#808080;stop-opacity:0.1"/>
</linearGradient>
<polygon fill="url(#SVGID_1_)" points="709,242.4 709,176 768,176 768,299.1 "/>
<polygon fill="#6C63FF" points="716,247 716,189 760,189 760,299.1 "/>
<linearGradient id="SVGID_2_" gradientUnits="userSpaceOnUse" x1="816" y1="650" x2="816" y2="760" gradientTransform="matrix(1 0 0 -1 0 760)">
	<stop  offset="0" style="stop-color:#808080;stop-opacity:0.25"/>
	<stop  offset="0.54" style="stop-color:#808080;stop-opacity:0.12"/>
	<stop  offset="1" style="stop-color:#808080;stop-opacity:0.1"/>
</linearGradient>
<circle fill="url(#SVGID_2_)" cx="816" cy="55" r="55"/>
<circle fill="#FF9800" cx="816" cy="55" r="44"/>
<g id="f741385e-e577-4271-b030-1aa9bd75830a">
	
		<linearGradient id="SVGID_3_" gradientUnits="userSpaceOnUse" x1="347.6348" y1="200.28" x2="347.6348" y2="601.59" gradientTransform="matrix(1 0 0 -1 -157 700)">
		<stop  offset="0" style="stop-color:#808080;stop-opacity:0.25"/>
		<stop  offset="0.54" style="stop-color:#808080;stop-opacity:0.12"/>
		<stop  offset="1" style="stop-color:#808080;stop-opacity:0.1"/>
	</linearGradient>
	<path fill="url(#SVGID_3_)" d="M345.5,305.5c31.3-35.8,27.7-90.3-8.2-121.6c-3-2.7-6.3-5.1-9.6-7.3c5.3-8.3,8.2-17.9,8.2-27.8
		c0-27.8-22.1-50.4-49.3-50.4c-22.4,0-41.3,15.3-47.3,36.3c-12.9-21.8-36.2-36.3-62.9-36.3c-40.6,0-73.5,33.6-73.5,75.1
		c0,8.8,1.5,17.6,4.5,25.9c-1.5-0.1-3-0.2-4.5-0.2c-32.6,0-59,27-59,60.3c0,2,0.1,4.1,0.3,6.1C17.2,277.8-0.2,304.7,0,334.4
		c0,41.4,32.8,74.9,73.2,74.9c4.2,0,8.5-0.4,12.7-1.1c-0.2,2.5-0.4,5-0.4,7.6c0,46.4,36.8,84,82.2,84c16.8,0,33.1-5.2,46.8-15
		c11,9.7,25.1,15,39.7,15c33.9,0,61.4-28.1,61.4-62.8c0-1.5-0.1-3-0.2-4.5h0.2c36.3,0,65.7-30.1,65.7-67.2
		C381.4,340.3,367.6,317.2,345.5,305.5z"/>
</g>
<path id="aa86aca2-1def-4b5e-bdbf-3429bf39090e" fill="#00897B" d="M336,305.1c29.4-33.6,26-84.7-7.6-114.1
	c-2.9-2.5-5.9-4.8-9.1-6.9c5-7.7,7.7-16.8,7.7-26c0-26.1-20.7-47.3-46.3-47.3c-21,0-38.8,14.4-44.4,34.1c-12.2-21-34.7-34-59-34.1
	c-38.1,0-69,31.6-69,70.5c0,8.3,1.4,16.5,4.2,24.3c-1.4-0.1-2.8-0.2-4.2-0.2C77.8,205.4,53,230.7,53,262c0,1.9,0.1,3.8,0.3,5.7
	c-25.4,11.4-41.7,36.7-41.6,64.6c0,38.8,30.8,70.3,68.7,70.3c4,0,8-0.4,11.9-1.1c-0.2,2.3-0.3,4.7-0.3,7.1
	c0,43.6,34.5,78.9,77.1,78.9c15.7,0,31.1-4.9,43.9-14c10.3,9,23.6,14,37.3,14c31.8,0,57.6-26.4,57.6-58.9c0-1.4-0.1-2.8-0.2-4.2h0.2
	c34.1,0,61.7-28.3,61.7-63.1C369.7,337.7,356.8,316.1,336,305.1z"/>
<linearGradient id="SVGID_4_" gradientUnits="userSpaceOnUse" x1="205.395" y1="99.42" x2="205.395" y2="544.93" gradientTransform="matrix(1 0 0 -1 0 760)">
	<stop  offset="0" style="stop-color:#808080;stop-opacity:0.25"/>
	<stop  offset="0.54" style="stop-color:#808080;stop-opacity:0.12"/>
	<stop  offset="1" style="stop-color:#808080;stop-opacity:0.1"/>
</linearGradient>
<rect x="196.4" y="215.1" fill="url(#SVGID_4_)" width="17.9" height="445.5"/>
<rect x="201.5" y="221.3" fill="#795548" width="9" height="439.3"/>
<rect x="186.6" y="309.4" transform="matrix(-0.6794 0.7337 -0.7337 -0.6794 635.0405 350.3779)" fill="#795548" width="108.8" height="9"/>
<rect x="161.2" y="346.3" transform="matrix(-0.5962 0.8028 -0.8028 -0.5962 580.7939 495.9128)" fill="#795548" width="9" height="95.5"/>
<g id="b1e29bf6-85c6-472a-ba69-b630e8d8f49d">
	
		<linearGradient id="SVGID_5_" gradientUnits="userSpaceOnUse" x1="527.14" y1="182.4797" x2="527.14" y2="518.1713" gradientTransform="matrix(1 0 0 -1 -157 700)">
		<stop  offset="0" style="stop-color:#808080;stop-opacity:0.25"/>
		<stop  offset="0.54" style="stop-color:#808080;stop-opacity:0.12"/>
		<stop  offset="1" style="stop-color:#808080;stop-opacity:0.1"/>
	</linearGradient>
	<path fill="url(#SVGID_5_)" d="M233,355c-12.1-12.9-18.8-29.9-18.9-47.5c0-25.4,13.8-47.7,34.6-60.3c-4.7-6.8-7.2-14.9-7.2-23.2
		c0-23.3,19.5-42.2,43.6-42.2c19.9,0,36.6,12.8,41.9,30.4c12.1-19,33.1-30.5,55.7-30.4c35.9,0,65,28.1,65,62.8
		c0,7.4-1.4,14.8-4,21.7c1.3-0.1,2.6-0.2,4-0.2c28.8,0,52.2,22.6,52.2,50.4c0,1.7-0.1,3.4-0.3,5.1c23.1,9.6,39.2,31.8,39.2,57.5
		c0,34.6-29,62.6-64.8,62.6c-3.8,0-7.5-0.4-11.2-1c0.2,2.1,0.3,4.2,0.3,6.3c0,38.8-32.6,70.3-72.8,70.3c-14.7,0-29.1-4.3-41.4-12.5
		c-9.9,8.1-22.4,12.6-35.2,12.5c-30,0-54.4-23.5-54.4-52.5c0-1.3,0.1-2.5,0.2-3.7h-0.2c-32.1,0-58.2-25.2-58.2-56.2
		C201.3,383.2,214.2,364.3,233,355z"/>
</g>
<path id="da8ae254-7852-462b-b033-1b79dc847a6a" fill="#009688" d="M238.9,354.8c-11.6-12.3-18-28.6-18-45.5
	c0-24.4,13.2-45.7,33.1-57.7c-4.5-6.5-6.9-14.3-6.9-22.2c0-22.3,18.7-40.4,41.8-40.4c19,0,35,12.3,40.1,29.1
	c11.6-18.2,31.7-29.2,53.3-29c34.4,0,62.3,26.9,62.3,60.1c0,7.1-1.3,14.1-3.8,20.8c1.3-0.1,2.5-0.2,3.8-0.2c27.6,0,50,21.6,50,48.3
	c0,1.6-0.1,3.3-0.3,4.9c22.1,9.2,37.5,30.4,37.5,55.1c0,33.1-27.8,60-62.1,60c-3.6,0-7.2-0.3-10.7-1c0.2,2,0.3,4,0.3,6.1
	c0,37.2-31.2,67.3-69.6,67.3c-14.1,0-27.9-4.1-39.6-12c-9.5,7.8-21.4,12-33.7,12c-28.7,0-52-22.5-52-50.3c0-1.2,0.1-2.4,0.2-3.6
	h-0.2c-30.8,0-55.7-24.1-55.7-53.8C208.6,381.8,220.9,363.7,238.9,354.8z"/>
<line id="d827a518-3361-4086-b50f-c6b47e6818cd" fill="none" x1="357" y1="284.4" x2="357" y2="658.3"/>
<linearGradient id="SVGID_6_" gradientUnits="userSpaceOnUse" x1="356.615" y1="101.68" x2="356.615" y2="475.6" gradientTransform="matrix(1 0 0 -1 0 760)">
	<stop  offset="0" style="stop-color:#808080;stop-opacity:0.25"/>
	<stop  offset="0.54" style="stop-color:#808080;stop-opacity:0.12"/>
	<stop  offset="1" style="stop-color:#808080;stop-opacity:0.1"/>
</linearGradient>
<rect x="346.4" y="284.4" fill="url(#SVGID_6_)" width="20.4" height="373.9"/>
<rect x="351.3" y="284.4" fill="#795548" width="11.3" height="373.9"/>
<line id="_x34_a2b3956-f53f-4918-93e5-f7b78a79ae92" fill="none" x1="358.1" y1="396.4" x2="291.3" y2="328.3"/>
<rect x="319.1" y="314.6" transform="matrix(-0.7141 0.7 -0.7 -0.7141 810.218 393.7841)" fill="#795548" width="11.3" height="95.4"/>
<line id="_x31_00a92bc-a3f1-4f9a-a93f-0d91ae55d71b" fill="none" x1="358.1" y1="454.9" x2="427.3" y2="406.4"/>
<rect x="350.4" y="425" transform="matrix(-0.8186 0.5744 -0.5744 -0.8186 961.5079 557.5391)" fill="#795548" width="84.6" height="11.3"/>
<linearGradient id="SVGID_7_" gradientUnits="userSpaceOnUse" x1="719.12" y1="-30.22" x2="719.12" y2="350" gradientTransform="matrix(1 0 0 -1 -157 700)">
	<stop  offset="0" style="stop-color:#808080;stop-opacity:0.25"/>
	<stop  offset="0.54" style="stop-color:#808080;stop-opacity:0.12"/>
	<stop  offset="1" style="stop-color:#808080;stop-opacity:0.1"/>
</linearGradient>
<path fill="url(#SVGID_7_)" d="M813.2,350H311c-11.5,0-20.8,5.2-20.8,11.5v368.7H834V361.5C834,355.2,824.7,350,813.2,350z"/>
<polygon fill="#FFFFFF" points="560.5,139 298.5,333.6 298.5,716.2 824.1,716.2 824.1,347.5 "/>
<linearGradient id="SVGID_8_" gradientUnits="userSpaceOnUse" x1="561.04" y1="387.09" x2="561.04" y2="503.77" gradientTransform="matrix(1 0 0 -1 0 760)">
	<stop  offset="0" style="stop-color:#808080;stop-opacity:0.25"/>
	<stop  offset="0.54" style="stop-color:#808080;stop-opacity:0.12"/>
	<stop  offset="1" style="stop-color:#808080;stop-opacity:0.1"/>
</linearGradient>
<circle fill="url(#SVGID_8_)" cx="561" cy="314.6" r="58.3"/>
<linearGradient id="SVGID_9_" gradientUnits="userSpaceOnUse" x1="400.095" y1="229.79" x2="400.095" y2="332.92" gradientTransform="matrix(1 0 0 -1 0 760)">
	<stop  offset="0" style="stop-color:#808080;stop-opacity:0.25"/>
	<stop  offset="0.54" style="stop-color:#808080;stop-opacity:0.12"/>
	<stop  offset="1" style="stop-color:#808080;stop-opacity:0.1"/>
</linearGradient>
<rect x="348.5" y="427.1" fill="url(#SVGID_9_)" width="103.1" height="103.1"/>
<linearGradient id="SVGID_10_" gradientUnits="userSpaceOnUse" x1="719.905" y1="229.79" x2="719.905" y2="332.92" gradientTransform="matrix(1 0 0 -1 0 760)">
	<stop  offset="0" style="stop-color:#808080;stop-opacity:0.25"/>
	<stop  offset="0.54" style="stop-color:#808080;stop-opacity:0.12"/>
	<stop  offset="1" style="stop-color:#808080;stop-opacity:0.1"/>
</linearGradient>
<rect x="668.3" y="427.1" fill="url(#SVGID_10_)" width="103.1" height="103.1"/>
<linearGradient id="SVGID_11_" gradientUnits="userSpaceOnUse" x1="560.015" y1="329.3" x2="560.015" y2="659.25" gradientTransform="matrix(1 0 0 -1 0 760)">
	<stop  offset="0" style="stop-color:#808080;stop-opacity:0.25"/>
	<stop  offset="0.54" style="stop-color:#808080;stop-opacity:0.12"/>
	<stop  offset="1" style="stop-color:#808080;stop-opacity:0.1"/>
</linearGradient>
<polygon fill="url(#SVGID_11_)" points="248,430.7 234,352.6 561.7,100.8 886,357.6 877,427.7 561.6,189.7 "/>
<polygon fill="#6C63FF" points="248.6,415 239,361 561.6,109.3 881,361 871.3,415 561.5,170.8 "/>
<linearGradient id="SVGID_12_" gradientUnits="userSpaceOnUse" x1="560.525" y1="43.84" x2="560.525" y2="216.25" gradientTransform="matrix(1 0 0 -1 0 760)">
	<stop  offset="0" style="stop-color:#808080;stop-opacity:0.25"/>
	<stop  offset="0.54" style="stop-color:#808080;stop-opacity:0.12"/>
	<stop  offset="1" style="stop-color:#808080;stop-opacity:0.1"/>
</linearGradient>
<rect x="497.5" y="543.8" fill="url(#SVGID_12_)" width="126" height="172.4"/>
<rect x="501.1" y="547.4" fill="#6C63FF" width="118.8" height="168.8"/>
<rect x="353.2" y="430.7" fill="#6C63FF" width="95.8" height="33.9"/>
<rect x="353.2" y="464.6" opacity="0.2" fill="#6C63FF" enable-background="new    " width="95.8" height="62"/>
<rect x="672" y="430.7" fill="#6C63FF" width="95.8" height="33.9"/>
<rect x="672" y="464.6" opacity="0.2" fill="#6C63FF" enable-background="new    " width="95.8" height="62"/>
<path fill="#6C63FF" d="M560.5,367.2c29.3,0,53.1-23.8,53.1-53.1c0,0,0,0,0-0.1H507.4C507.4,343.3,531.1,367.2,560.5,367.2
	C560.5,367.2,560.5,367.2,560.5,367.2z"/>
<path opacity="0.2" enable-background="new    " d="M560.5,366.7c29.3,0,53.1-23.8,53.1-53.1l0,0H507.4
	C507.4,342.9,531.2,366.7,560.5,366.7L560.5,366.7z"/>
<path opacity="0.2" fill="#6C63FF" enable-background="new    " d="M560.5,260.9c-29.3,0-53.1,23.8-53.1,53.1h106.3
	C613.6,284.7,589.8,260.9,560.5,260.9z"/>
<path opacity="0.2" fill="#6C63FF" enable-background="new    " d="M560.5,260.9c-29.3,0-53.1,23.8-53.1,53.1h106.3
	C613.6,284.7,589.8,260.9,560.5,260.9z"/>
<linearGradient id="SVGID_13_" gradientUnits="userSpaceOnUse" x1="592.29" y1="116.24" x2="592.29" y2="141.24" gradientTransform="matrix(1 0 0 -1 0 760)">
	<stop  offset="0" style="stop-color:#808080;stop-opacity:0.25"/>
	<stop  offset="0.54" style="stop-color:#808080;stop-opacity:0.12"/>
	<stop  offset="1" style="stop-color:#808080;stop-opacity:0.1"/>
</linearGradient>
<circle fill="url(#SVGID_13_)" cx="592.3" cy="631.3" r="12.5"/>
<circle fill="#263238" cx="592.3" cy="631.3" r="9.4"/>
<linearGradient id="SVGID_14_" gradientUnits="userSpaceOnUse" x1="558.435" y1="18.32" x2="558.435" y2="68.32" gradientTransform="matrix(1 0 0 -1 0 760)">
	<stop  offset="0" style="stop-color:#808080;stop-opacity:0.25"/>
	<stop  offset="0.54" style="stop-color:#808080;stop-opacity:0.12"/>
	<stop  offset="1" style="stop-color:#808080;stop-opacity:0.1"/>
</linearGradient>
<rect x="481.9" y="691.7" fill="url(#SVGID_14_)" width="153.1" height="50"/>
<rect x="485" y="695.8" fill="#FFFFFF" width="146.9" height="42.7"/>
<g id="_x30_6ed4a51-c0d7-4f18-ace3-f8895d5abf4f">
	
		<linearGradient id="SVGID_15_" gradientUnits="userSpaceOnUse" x1="424.135" y1="34.04" x2="424.135" y2="219.0699" gradientTransform="matrix(1 0 0 -1 -157 700)">
		<stop  offset="0" style="stop-color:#808080;stop-opacity:0.25"/>
		<stop  offset="0.54" style="stop-color:#808080;stop-opacity:0.12"/>
		<stop  offset="1" style="stop-color:#808080;stop-opacity:0.1"/>
	</linearGradient>
	<path fill="url(#SVGID_15_)" d="M338.5,576.4c14.4-16.5,12.7-41.6-3.8-56.1c-1.4-1.2-2.9-2.3-4.4-3.4c2.5-3.8,3.8-8.3,3.8-12.8
		c0.3-12.5-9.6-22.9-22.1-23.2c-10.4-0.3-19.7,6.6-22.4,16.7c-6-10.3-17.1-16.7-29-16.7c-18.7,0-33.9,15.5-33.9,34.6
		c0,4.1,0.7,8.2,2.1,12c-0.7,0-1.4-0.1-2.1-0.1c-15,0-27.2,12.4-27.2,27.8c0,1,0,1.9,0.1,2.8c-12.5,5.6-20.5,18-20.4,31.7
		c0,19.1,15.1,34.5,33.8,34.5c2,0,3.9-0.2,5.8-0.5c-0.1,1.2-0.2,2.3-0.2,3.5c0,21.4,17,38.7,37.9,38.7c7.7,0,15.3-2.4,21.6-6.9
		c5.1,4.4,11.6,6.9,18.3,6.9c15.6,0,28.3-13,28.3-28.9c0-0.7,0-1.4-0.1-2h0.1c16.7,0,30.3-13.9,30.3-31
		C355.1,592.4,348.7,581.8,338.5,576.4z"/>
</g>
<path id="_x37_8683fa5-7813-42ce-9e3f-16828d09ffb2" fill="#00897B" d="M334.1,576.2c13.6-15.5,12-39.1-3.5-52.6
	c-1.3-1.1-2.7-2.2-4.2-3.2c2.3-3.6,3.5-7.7,3.5-12c0.3-11.7-9-21.5-20.7-21.8c-9.8-0.2-18.5,6.2-21.1,15.7
	c-5.6-9.7-16-15.7-27.2-15.7c-17.5,0-31.8,14.5-31.8,32.5c0,3.8,0.7,7.6,2,11.2c-0.6,0-1.3-0.1-2-0.1c-14.1,0-25.5,11.7-25.5,26.1
	c0,0.9,0,1.8,0.1,2.6c-11.7,5.3-19.2,16.9-19.2,29.8c0,17.9,14.2,32.4,31.7,32.4c1.8,0,3.7-0.2,5.5-0.5c-0.1,1.1-0.1,2.2-0.1,3.3
	c0,20.1,15.9,36.3,35.5,36.3c7.3,0,14.3-2.3,20.2-6.5c4.8,4.2,10.9,6.5,17.2,6.5c14.7,0,26.5-12.2,26.5-27.2c0-0.7,0-1.3-0.1-1.9
	h0.1c15.7,0,28.4-13,28.4-29.1C349.7,591.2,343.7,581.3,334.1,576.2z"/>
<linearGradient id="SVGID_16_" gradientUnits="userSpaceOnUse" x1="273.95" y1="19.93" x2="273.95" y2="225.29" gradientTransform="matrix(1 0 0 -1 0 760)">
	<stop  offset="0" style="stop-color:#808080;stop-opacity:0.25"/>
	<stop  offset="0.54" style="stop-color:#808080;stop-opacity:0.12"/>
	<stop  offset="1" style="stop-color:#808080;stop-opacity:0.1"/>
</linearGradient>
<rect x="269.8" y="534.7" fill="url(#SVGID_16_)" width="8.3" height="205.4"/>
<rect x="272.2" y="537.6" fill="#795548" width="4.1" height="202.5"/>
<rect x="265.3" y="578.2" transform="matrix(-0.6794 0.7337 -0.7337 -0.6794 913.3794 761.41)" fill="#795548" width="50.2" height="4.2"/>
<rect x="253.6" y="595.2" transform="matrix(-0.5962 0.8028 -0.8028 -0.5962 903.5708 779.963)" fill="#795548" width="4.1" height="44"/>
<g id="_x39_72b0d41-b6e5-4c12-bd64-332f8d6d9bc4">
	
		<linearGradient id="SVGID_17_" gradientUnits="userSpaceOnUse" x1="506.955" y1="25.8399" x2="506.955" y2="180.6414" gradientTransform="matrix(1 0 0 -1 -157 700)">
		<stop  offset="0" style="stop-color:#808080;stop-opacity:0.25"/>
		<stop  offset="0.54" style="stop-color:#808080;stop-opacity:0.12"/>
		<stop  offset="1" style="stop-color:#808080;stop-opacity:0.1"/>
	</linearGradient>
	<path fill="url(#SVGID_17_)" d="M286.7,599.2c-5.6-5.9-8.7-13.8-8.7-21.9c0.1-11.4,6.1-22,16-27.8c-2.2-3.1-3.3-6.9-3.3-10.7
		c0-10.7,9-19.4,20.1-19.4c8.8-0.1,16.7,5.6,19.3,14c5.6-8.8,15.3-14.1,25.7-14c16.6,0,30,13,30,29c0,3.4-0.6,6.8-1.8,10
		c0.6,0,1.2-0.1,1.8-0.1c13.3,0,24.1,10.4,24.1,23.3c0,0.8,0,1.6-0.1,2.3c10.8,4.4,18,14.8,18.1,26.5c0,16-13.4,28.9-29.9,28.9
		c-1.7,0-3.5-0.1-5.2-0.4c0.1,1,0.1,1.9,0.1,2.9c0,17.9-15,32.4-33.5,32.4c-6.8,0-13.4-2-19.1-5.8c-4.6,3.7-10.3,5.8-16.2,5.7
		c-13.8,0-25-10.8-25-24.2c0-0.6,0-1.2,0.1-1.7H299c-14.8,0-26.8-11.6-26.8-25.9C272.2,612.4,277.8,603.5,286.7,599.2z"/>
</g>
<path id="b9cc99c1-468f-47c5-9d53-f370b6656f3a" fill="#009688" d="M289.4,599.1c-5.3-5.7-8.3-13.2-8.3-21
	c0.1-10.9,5.9-21,15.3-26.6c-2.1-3-3.2-6.6-3.2-10.2c0-10.3,8.6-18.6,19.3-18.6c8.4-0.1,15.9,5.3,18.5,13.4
	c5.3-8.4,14.6-13.5,24.6-13.4c15.8,0,28.7,12.4,28.7,27.7c0,3.3-0.6,6.5-1.8,9.6c0.6,0,1.2-0.1,1.8-0.1c12.7,0,23,10,23,22.3
	c0,0.8,0,1.5-0.1,2.3c10.4,4.2,17.2,14.2,17.3,25.4c0,15.3-12.8,27.6-28.6,27.6c-1.7,0-3.3-0.1-5-0.4c0.1,0.9,0.1,1.8,0.1,2.8
	c0,17.1-14.4,31-32.1,31c-6.5,0-12.9-1.9-18.3-5.5c-4.4,3.6-9.9,5.5-15.5,5.5c-13.2,0-24-10.4-24-23.2c0-0.5,0-1.1,0.1-1.6H301
	c-14.2,0-25.7-11.1-25.7-24.8C275.4,611.7,280.9,603.2,289.4,599.1z"/>
<line id="_x37_a451371-7fbb-4ddd-b5af-3dcf3eef4c8e" fill="none" x1="343.8" y1="566.7" x2="343.8" y2="739"/>
<linearGradient id="SVGID_18_" gradientUnits="userSpaceOnUse" x1="343.655" y1="20.98" x2="343.655" y2="193.34" gradientTransform="matrix(1 0 0 -1 0 760)">
	<stop  offset="0" style="stop-color:#808080;stop-opacity:0.25"/>
	<stop  offset="0.54" style="stop-color:#808080;stop-opacity:0.12"/>
	<stop  offset="1" style="stop-color:#808080;stop-opacity:0.1"/>
</linearGradient>
<rect x="339" y="566.7" fill="url(#SVGID_18_)" width="9.4" height="172.4"/>
<rect x="341.2" y="566.7" fill="#795548" width="5.2" height="172.4"/>
<line id="f8907fab-e671-432b-8785-92f5b3540283" fill="none" x1="344.3" y1="618.3" x2="313.6" y2="586.9"/>
<rect x="326.4" y="580.6" transform="matrix(-0.7141 0.7 -0.7 -0.7141 985.6891 802.6339)" fill="#795548" width="5.2" height="44"/>
<line id="_x38_3bfd14d-9fcf-4efd-aa6d-a51063723d88" fill="none" x1="344.3" y1="645.3" x2="376.3" y2="622.9"/>
<rect x="340.8" y="631.5" transform="matrix(-0.8186 0.5744 -0.5744 -0.8186 1019.4449 946.097)" fill="#795548" width="39" height="5.2"/>
<linearGradient id="SVGID_19_" gradientUnits="userSpaceOnUse" x1="259.89" y1="248.24" x2="259.89" y2="264.24" gradientTransform="matrix(1 0 0 -1 0 760)">
	<stop  offset="0" style="stop-color:#808080;stop-opacity:0.25"/>
	<stop  offset="0.54" style="stop-color:#808080;stop-opacity:0.12"/>
	<stop  offset="1" style="stop-color:#808080;stop-opacity:0.1"/>
</linearGradient>
<circle fill="url(#SVGID_19_)" cx="259.9" cy="503.8" r="8"/>
<circle fill="#E6E6E6" cx="259.9" cy="503.8" r="6.2"/>
<g id="_x36_3650477-b8a1-43d8-a2c1-7cd9fae56092">
	
		<linearGradient id="SVGID_20_" gradientUnits="userSpaceOnUse" x1="-1963.5602" y1="10.11" x2="-1963.5602" y2="178.3083" gradientTransform="matrix(-1 0 0 -1 -1162.92 700)">
		<stop  offset="0" style="stop-color:#808080;stop-opacity:0.25"/>
		<stop  offset="0.54" style="stop-color:#808080;stop-opacity:0.12"/>
		<stop  offset="1" style="stop-color:#808080;stop-opacity:0.1"/>
	</linearGradient>
	<path fill="url(#SVGID_20_)" d="M735.7,608.5c-13.1-15-11.6-37.8,3.5-51c1.3-1.1,2.6-2.1,4-3c-2.2-3.5-3.4-7.5-3.4-11.6
		c-0.3-11.4,8.7-20.8,20-21.1c9.5-0.3,18,6,20.4,15.2c5.5-9.4,15.5-15.2,26.4-15.2c17,0,30.8,14.1,30.8,31.5c0,3.7-0.6,7.4-1.9,10.9
		c0.6,0,1.3-0.1,1.9-0.1c13.7,0,24.7,11.3,24.7,25.3c0,0.9,0,1.7-0.1,2.5c11.3,5.1,18.6,16.4,18.6,28.8c0,17.3-13.7,31.4-30.7,31.4
		c-1.8,0-3.6-0.2-5.3-0.5c0.1,1,0.2,2.1,0.2,3.2c0,19.5-15.4,35.2-34.4,35.2c-7,0-13.9-2.2-19.6-6.3c-4.6,4-10.5,6.3-16.7,6.3
		c-14.2,0-25.7-11.8-25.7-26.3c0-0.6,0-1.3,0.1-1.9h-0.1c-15.2,0-27.5-12.6-27.5-28.2C720.7,623,726.5,613.4,735.7,608.5z"/>
</g>
<path id="d9fb3d72-af8e-4f1d-b977-47710d21b422" fill="#00897B" d="M739.7,608.3c-12.3-14.1-10.9-35.5,3.2-47.8c1.2-1,2.5-2,3.8-2.9
	c-2.1-3.2-3.2-7-3.2-10.9c-0.3-10.7,8.2-19.6,18.8-19.8c8.9-0.2,16.8,5.7,19.2,14.3c5.1-8.8,14.5-14.2,24.7-14.3
	c16,0,28.9,13.2,28.9,29.5c0,3.5-0.6,6.9-1.8,10.2c0.6,0,1.2-0.1,1.8-0.1c12.8,0,23.2,10.6,23.2,23.7c0,0.8,0,1.6-0.1,2.4
	c10.7,4.8,17.5,15.4,17.4,27.1c0,16.3-12.9,29.5-28.8,29.5c-1.7,0-3.3-0.2-5-0.5c0.1,1,0.1,2,0.1,3c0,18.3-14.5,33-32.3,33
	c-6.6,0-13-2.1-18.4-5.9c-4.3,3.8-9.9,5.9-15.6,5.9c-13.3,0-24.1-11-24.1-24.7c0-0.6,0-1.2,0.1-1.8h-0.1
	c-14.3,0-25.8-11.8-25.8-26.4C725.6,622,731,612.9,739.7,608.3z"/>
<linearGradient id="SVGID_21_" gradientUnits="userSpaceOnUse" x1="-1957.3651" y1="-57.3" x2="-1957.365" y2="129.41" gradientTransform="matrix(-1 0 0 -1 -1162.92 700)">
	<stop  offset="0" style="stop-color:#808080;stop-opacity:0.25"/>
	<stop  offset="0.54" style="stop-color:#808080;stop-opacity:0.12"/>
	<stop  offset="1" style="stop-color:#808080;stop-opacity:0.1"/>
</linearGradient>
<rect x="790.7" y="570.6" fill="url(#SVGID_21_)" width="7.5" height="186.7"/>
<rect x="792.3" y="573.2" fill="#795548" width="3.8" height="184.1"/>
<rect x="777.6" y="589.3" transform="matrix(-0.7337 0.6794 -0.6794 -0.7337 1767.3906 531.5552)" fill="#795548" width="3.8" height="45.6"/>
<rect x="791.1" y="643.7" transform="matrix(-0.8028 0.5962 -0.5962 -0.8028 1847.1547 680.2372)" fill="#795548" width="40" height="3.8"/>
<g id="ea5e6e86-8f22-4c0d-a253-147f504d396e">
	
		<linearGradient id="SVGID_22_" gradientUnits="userSpaceOnUse" x1="-1888.3151" y1="2.65" x2="-1888.3151" y2="143.4109" gradientTransform="matrix(-1 0 0 -1 -1162.92 700)">
		<stop  offset="0" style="stop-color:#808080;stop-opacity:0.25"/>
		<stop  offset="0.54" style="stop-color:#808080;stop-opacity:0.12"/>
		<stop  offset="1" style="stop-color:#808080;stop-opacity:0.1"/>
	</linearGradient>
	<path fill="url(#SVGID_22_)" d="M782.9,629.2c5.1-5.4,7.9-12.5,7.9-19.9c0-10.4-5.6-20-14.5-25.3c2-2.9,3-6.3,3-9.7
		c0-9.8-8.2-17.7-18.3-17.7c-8-0.1-15.1,5.1-17.5,12.7c-5.1-8-13.9-12.8-23.3-12.7c-15.1,0-27.3,11.8-27.3,26.3
		c0,3.1,0.6,6.2,1.7,9.1c-0.5,0-1.1-0.1-1.7-0.1c-12.1,0-21.9,9.5-21.9,21.1c0,0.7,0,1.4,0.1,2.1c-9.9,4-16.3,13.5-16.4,24.1
		c0,14.5,12.2,26.3,27.2,26.3c1.6,0,3.1-0.1,4.7-0.4c-0.1,0.9-0.1,1.8-0.1,2.7c0,16.3,13.7,29.5,30.5,29.5c6.2,0,12.2-1.8,17.4-5.3
		c4.2,3.4,9.4,5.3,14.8,5.3c12.6,0,22.8-9.8,22.8-22c0-0.5,0-1-0.1-1.6h0.1c13.5,0,24.4-10.5,24.4-23.6
		C796.1,641.3,790.9,633.1,782.9,629.2z"/>
</g>
<path id="_x37_9f8c247-f548-4c1c-8f49-a16aaa215201" fill="#009688" d="M780.4,629.1c4.9-5.2,7.6-12,7.6-19.1
	c-0.1-9.9-5.3-19.1-13.9-24.2c1.9-2.7,2.9-6,2.9-9.3c0-9.3-7.8-16.9-17.5-16.9c-7.7-0.1-14.5,4.9-16.8,12.2
	c-4.9-7.6-13.3-12.2-22.3-12.2c-14.4,0-26.1,11.3-26.1,25.2c0,3,0.5,5.9,1.6,8.7c-0.5,0-1.1-0.1-1.6-0.1c-11.6,0-20.9,9.1-20.9,20.2
	c0,0.7,0,1.3,0.1,2c-9.4,3.8-15.6,12.9-15.7,23.1c0,13.9,11.6,25.1,26,25.1c1.5,0,3-0.1,4.5-0.4c-0.1,0.8-0.1,1.7-0.1,2.5
	c0,15.6,13.1,28.2,29.2,28.2c5.9,0,11.7-1.7,16.6-5c4,3.3,9,5,14.1,5c12,0,21.8-9.4,21.8-21.1c0-0.5,0-1-0.1-1.5h0.1
	c12.9,0,23.3-10.1,23.3-22.6C793.1,640.6,788.1,632.8,780.4,629.1z"/>
<line id="_x38_6901f0c-b7b5-4ba8-942f-e54f281a8bcd" fill="none" x1="730.9" y1="599.7" x2="730.9" y2="756.4"/>
<linearGradient id="SVGID_23_" gradientUnits="userSpaceOnUse" x1="-1894" y1="-56.36" x2="-1894" y2="100.35" gradientTransform="matrix(-1 0 0 -1 -1162.92 700)">
	<stop  offset="0" style="stop-color:#808080;stop-opacity:0.25"/>
	<stop  offset="0.54" style="stop-color:#808080;stop-opacity:0.12"/>
	<stop  offset="1" style="stop-color:#808080;stop-opacity:0.1"/>
</linearGradient>
<rect x="726.8" y="599.7" fill="url(#SVGID_23_)" width="8.5" height="156.7"/>
<rect x="728.6" y="599.7" fill="#795548" width="4.7" height="156.7"/>
<line id="_x36_3650f42-d3c3-489e-a647-f3904e46b7bd" fill="none" x1="730.5" y1="646.6" x2="758.4" y2="618"/>
<rect x="724.5" y="630" transform="matrix(-0.7 0.7141 -0.7141 -0.7 1717.1299 543.3446)" fill="#795548" width="40" height="4.7"/>
<line id="_x32_5077b7e-584e-4c29-8c8c-a60ca5d6c1ae" fill="none" x1="730.5" y1="671.1" x2="701.4" y2="650.8"/>
<rect x="713.6" y="643.2" transform="matrix(-0.5744 0.8186 -0.8186 -0.5744 1668.2395 454.5846)" fill="#795548" width="4.7" height="35.4"/>
</svg>
