<?xml version="1.0" encoding="utf-8"?>
<!-- Generator: Adobe Illustrator 18.0.0, SVG Export Plug-In . SVG Version: 6.00 Build 0)  -->
<!DOCTYPE svg PUBLIC "-//W3C//DTD SVG 1.1//EN" "http://www.w3.org/Graphics/SVG/1.1/DTD/svg11.dtd">
<svg version="1.1" id="e2331fcb-09a1-43a6-a836-11e9ed08f05e"
	 xmlns="http://www.w3.org/2000/svg" xmlns:xlink="http://www.w3.org/1999/xlink" x="0px" y="0px" viewBox="0 0 3352 2286"
	 enable-background="new 0 0 3352 2286" xml:space="preserve">
<title>street_food</title>
<ellipse opacity="0.1" enable-background="new    " cx="1747.8" cy="1503.2" rx="1532.9" ry="437.8"/>
<path fill="#6C63FF" d="M2876,891c0,0,61.7,61.7,27,153.4c-34.7,91.6,59.8,244,59.8,244l-2.9-0.3
	c-126.9-22.3-189.9-167.7-119.3-275.5C2866.8,972.8,2888.1,925.7,2876,891z"/>
<path fill="none" stroke="#535461" stroke-miterlimit="10" d="M2876,891c0,0,35,75.7,0,137.4c-35,61.7-6,235.1,86.9,260.3"/>
<path fill="#6C63FF" d="M2765.9,1141.1c0,0,70.6-11.1,77,51.9s135.5,71.9,135.5,71.9l-2.5,1.6c-106.6,70-208.7,44.5-193.1-48.4
	C2788.5,1183.7,2788.2,1148.7,2765.9,1141.1z"/>
<path opacity="0.2" fill="#F5F5F5" enable-background="new    " d="M2765.9,1141.1c0,0,70.6-11.1,77,51.9s135.5,71.9,135.5,71.9
	l-2.5,1.6c-106.6,70-208.7,44.5-193.1-48.4C2788.5,1183.7,2788.2,1148.7,2765.9,1141.1z"/>
<path fill="none" stroke="#535461" stroke-miterlimit="10" d="M2765.9,1141.1c0,0,54.7,12.1,50.3,61.7
	c-4.5,49.6,81.1,109.4,162.3,62"/>
<polygon fill="#F5F5F5" points="2632,1542.3 2479.6,1531.2 477,1531.2 477,1237.8 2632,1237.8 "/>
<path fill="#EDEDF4" d="M456.4,487.6H325v-77.3c0-29.9,24.2-54.1,54.1-54.1l0,0h23.2c29.9,0,54.1,24.2,54.1,54.1l0,0L456.4,487.6
	L456.4,487.6z"/>
<path fill="#6C63FF" d="M2712.8,1096.9v447.3l-147-1.9c0-3.2,0.3-6.4,0.3-9.2c0-160-129.5-289.5-289.5-289.5S1987,1373,1987,1533.1
	l0,0c0,0.6,0,1.3,0,1.9l-146.7-1.9h-759.8c0-10.5-0.6-21.3-1.9-31.8c-0.6-5.1-1.3-10.2-1.9-15c-1.9-12.7-5.1-25.5-8.6-37.9
	c-1.6-5.1-3.2-10.2-5.1-15c-4.8-13-10.5-25.5-16.9-37.5c-2.9-5.1-5.7-10.2-8.6-15c-8.3-13.4-17.5-25.8-27.7-37.5
	c-4.5-5.1-9.2-10.2-14-15c-112.9-112.9-296.2-112.9-409.2,0c-4.8,4.8-9.5,9.9-14,15c-10.2,11.8-19.4,24.5-27.7,37.5
	c-3.2,4.8-6,9.9-8.6,15c-6.7,12.1-12.1,24.8-16.9,37.5c-1.9,5.1-3.5,9.9-5.1,15c-3.8,12.4-6.7,24.8-8.6,37.5c-1,5.1-1.6,9.9-1.9,15
	c-1.3,10.5-1.9,21.3-1.9,31.8H212.6V543.9h2042l202.7,441.6l251.7,109.1L2712.8,1096.9z"/>
<path fill="#F5F5F5" d="M257.2,450h1917.3c43.9,0,79.5,35.6,79.5,79.5v14.3l0,0H212l0,0v-48.7C212,470.1,232.4,450,257.2,450
	L257.2,450z"/>
<path fill="#EDEDF4" d="M1795.2,450h-466.4v-17.5c0-48.4,39.1-87.8,87.8-87.8h269.5L1795.2,450z"/>
<path opacity="0.1" enable-background="new    " d="M205.6,1386.4h193.1c19.4,0,35,15.6,35,35v110.4c0,19.4-15.6,35-35,35H205.6
	c-19.4,0-35-15.6-35-35v-110.4C170.6,1402,186.2,1386.4,205.6,1386.4z"/>
<polygon opacity="0.1" enable-background="new    " points="1838.5,1531.2 1620.2,1531.2 1620.2,542 2049.1,542 2049.1,1226.4 "/>
<path fill="#F5F5F5" d="M201.8,1394h193.1c19.4,0,35,15.6,35,35v110.4c0,19.4-15.6,35-35,35H201.8c-19.4,0-35-15.6-35-35V1429
	C166.8,1409.6,182.7,1394,201.8,1394z"/>
<path opacity="0.1" enable-background="new    " d="M2677.8,1378.8h54.7c24.2,0,43.9,19.7,43.9,43.9v122.5
	c0,24.2-19.7,43.9-43.9,43.9h-54.7c-24.2,0-43.9-19.7-43.9-43.9v-122.5C2633.9,1398.5,2653.6,1378.8,2677.8,1378.8z"/>
<path fill="#F5F5F5" d="M2685.4,1382.6h54.7c24.2,0,43.9,19.7,43.9,43.9V1549c0,24.2-19.7,43.9-43.9,43.9h-54.7
	c-24.2,0-43.9-19.7-43.9-43.9v-122.5C2641.2,1402.3,2660.9,1382.6,2685.4,1382.6z"/>
<path fill="#F5F5F5" d="M1733.1,615.5h214.1c28,0,50.9,22.9,50.9,50.9v334.4c0,28-22.9,50.9-50.9,50.9h-214.1
	c-28,0-50.9-22.9-50.9-50.9V666.4C1682.2,638.4,1705.1,615.5,1733.1,615.5z"/>
<path fill="#F5F5F5" d="M2126.1,677.5V989c0,9.5,8,17.5,17.5,17.5l0,0h191.9c9.5,0,17.5-8,17.5-17.5c0-3.2-1-6.4-2.5-9.2
	l-191.9-311.5c-5.1-8.3-15.9-10.8-24.2-5.7C2129.3,665.7,2126.1,671.5,2126.1,677.5z"/>
<polygon fill="#FFFFFF" points="1783.7,615.5 1682.2,705.8 1682.2,752.6 1827,615.5 "/>
<polygon fill="#FFFFFF" points="1682.2,807.3 1682.2,861.7 1923.1,615.5 1876,615.5 "/>
<polygon fill="#FFFFFF" points="2189.7,718.9 2126.1,807.3 2126.1,841.1 2210.7,752.6 "/>
<polygon fill="#FFFFFF" points="2239.3,807.3 2126.1,904.1 2126.1,931.4 2264.8,841.1 "/>
<circle fill="#1A2246" cx="791.1" cy="1533.1" r="203"/>
<circle fill="#FFFFFF" cx="791.1" cy="1533.1" r="112.9"/>
<circle fill="#1A2246" cx="789.2" cy="1531.2" r="30.2"/>
<circle fill="#1A2246" cx="2276.6" cy="1533.1" r="203"/>
<circle fill="#FFFFFF" cx="2276.6" cy="1533.1" r="112.9"/>
<circle fill="#1A2246" cx="2278.5" cy="1531.2" r="30.2"/>
<rect x="210.1" y="1222.9" opacity="0.1" enable-background="new    " width="1410.1" height="15"/>
<polyline opacity="0.1" enable-background="new    " points="2686.4,1237.8 2041.4,1237.8 2049.1,1226.4 2049.1,1222.9 
	2686.4,1222.9 "/>
<polyline opacity="0.1" enable-background="new    " points="2686.4,1173.9 2049.1,1173.9 2049.1,1158.9 2686.4,1158.9 "/>
<polyline opacity="0.1" enable-background="new    " points="2686.4,1109.9 2049.1,1109.9 2049.1,1095 2681.9,1095 "/>
<path opacity="0.1" enable-background="new    " d="M658.7,1275.3c-8.9,4.5-17.5,9.5-25.8,15H210.1v-15H658.7z"/>
<path opacity="0.1" enable-background="new    " d="M1620.2,1275.3v15H949.5c-8.3-5.4-16.9-10.5-25.8-15H1620.2z"/>
<path opacity="0.1" enable-background="new    " d="M586.5,1328.2c-4.8,4.8-9.5,9.9-14,15H210.1v-15H586.5z"/>
<path opacity="0.1" enable-background="new    " d="M1620.2,1328.2v15h-610.6c-4.5-5.1-9.2-10.2-14-15H1620.2z"/>
<path opacity="0.1" enable-background="new    " d="M544.8,1380.7c-3.2,4.8-6,9.9-8.6,15H210.1v-15H544.8z"/>
<path opacity="0.1" enable-background="new    " d="M1620.2,1380.7v15h-574c-2.9-5.1-5.7-10.2-8.6-15H1620.2z"/>
<path opacity="0.1" enable-background="new    " d="M519.4,1433.5c-1.9,5.1-3.5,9.9-5.1,15H436v-15H519.4z"/>
<path opacity="0.1" enable-background="new    " d="M1620.2,1433.5v15h-552c-1.6-5.1-3.2-10.2-5.1-15H1620.2z"/>
<path opacity="0.1" enable-background="new    " d="M505.4,1486c-1,5.1-1.6,9.9-1.9,15H436v-15H505.4z"/>
<path opacity="0.1" enable-background="new    " d="M1620.2,1486v15H1079c-0.6-5.1-1.3-10.2-1.9-15H1620.2z"/>
<path opacity="0.1" enable-background="new    " d="M605.9,979.1c0,0,12.7,12.7,39.1,8.3C647.9,987.1,610.7,973.7,605.9,979.1z"/>
<path fill="#6C63FF" d="M1530.8,698.5c0,0,37.5,78.9,137.1,0"/>
<path fill="#6C63FF" d="M1395.6,698.5c0,0,37.5,78.9,137.1,0"/>
<rect x="456.4" y="1134.4" opacity="0.1" enable-background="new    " width="925.2" height="11.5"/>
<path fill="#A8A8A8" d="M3035.4,1276.9c0,0-44.2-8.9-56.3-20.7c-11.8-11.8-64.9-32.5-71-17.8c-6,15-79.9,64.9-29.6,73.8
	c50.3,8.9,118.4,11.8,133,6C3026.5,1312.3,3035.4,1276.9,3035.4,1276.9z"/>
<path opacity="0.2" enable-background="new    " d="M2878.8,1306.8c50.3,8.9,118.4,11.8,133,6c11.1-4.5,19.1-26.1,22.3-36.3l1.6,0.3
	c0,0-8.9,35.3-23.5,41.4c-14.6,5.7-82.7,2.9-133-6c-14.6-2.5-18.8-8.6-17.2-16.2C2862.9,1301.1,2868,1304.9,2878.8,1306.8z"/>
<path fill="none" stroke="#535461" stroke-width="2" stroke-miterlimit="10" d="M3158.5,1528.3c0,0,42-142.9-8-247.8
	c-21.3-43.9-27.7-93.5-18.1-141.6c4.8-22.6,11.5-44.9,20-66.5"/>
<path fill="#6C63FF" d="M3121.3,1006.2c0,17.5,31.8,68.1,31.8,68.1s31.8-50.9,31.8-68.1c-1.6-17.5-17.2-30.2-34.7-28.6
	C3135,978.8,3122.9,990.9,3121.3,1006.2L3121.3,1006.2z"/>
<path fill="#6C63FF" d="M3068.8,1102.9c9.5,14.6,63.6,40.1,63.6,40.1s-1-59.8-10.5-74.5c-8.3-15.6-27.4-21.6-43-13.4
	c-15.6,8.3-21.6,27.4-13.4,43C3066.6,1099.7,3067.5,1101.6,3068.8,1102.9L3068.8,1102.9z"/>
<path fill="#6C63FF" d="M3071,1268.7c15.6,8,75.1,2.5,75.1,2.5s-31.2-51.2-46.8-58.9c-15-9.2-34.7-4.5-43.9,10.5
	s-4.5,34.7,10.5,43.9C3067.8,1267.1,3069.4,1268,3071,1268.7L3071,1268.7z"/>
<path fill="#6C63FF" d="M3101.2,1393.7c14,10.5,73.8,15.3,73.8,15.3s-22-55.7-36-66.2c-15-8.9-34.7-4.1-43.6,10.8
	C3087.2,1366.7,3089.8,1383.2,3101.2,1393.7L3101.2,1393.7z"/>
<path fill="#6C63FF" d="M3198.9,1146.5c-12.4,12.1-71,24.8-71,24.8s14.3-58.2,26.7-70.3c11.5-13.4,31.5-15,44.9-3.5
	c13.4,11.5,15,31.5,3.5,44.9C3201.8,1143.9,3200.5,1145.2,3198.9,1146.5z"/>
<path fill="#6C63FF" d="M3232.3,1292.8c-15.6,8-75.1,2.5-75.1,2.5s31.2-51.2,46.8-58.9c16.2-6.7,34.7,1.3,41.4,17.5
	C3251.1,1268.3,3245.7,1284.9,3232.3,1292.8L3232.3,1292.8z"/>
<path fill="#6C63FF" d="M3245.1,1439.8c-14,10.5-73.8,15.3-73.8,15.3s22-55.7,36-66.2c15-8.9,34.7-4.1,43.6,10.8
	C3258.7,1412.8,3256.2,1429.7,3245.1,1439.8L3245.1,1439.8z"/>
<path fill="#A8A8A8" d="M3249.8,1514.3c0,0-77-15.3-97.4-36c-20.4-20.7-112.6-56.3-122.8-30.9c-10.2,25.5-138.4,112.6-51.2,128.2
	s204.9,20.4,230.4,10.2C3234.2,1575.7,3249.8,1514.3,3249.8,1514.3z"/>
<path opacity="0.2" enable-background="new    " d="M2978.4,1566.1c87.2,15.3,204.9,20.4,230.4,10.2c19.4-8,33.1-45.2,38.5-62.7
	l2.5,0.6c0,0-15.3,61.4-41,71.6c-25.8,10.2-143.5,5.1-230.4-10.2c-25.1-4.5-32.5-15-29.6-28
	C2950.8,1556.3,2959.7,1563,2978.4,1566.1z"/>
<linearGradient id="SVGID_1_" gradientUnits="userSpaceOnUse" x1="-3404.7839" y1="2421.2019" x2="-3404.7839" y2="2122.335" gradientTransform="matrix(-3.328 0 0 3.328 -9958.7539 -6285.2139)">
	<stop  offset="0" style="stop-color:#808080;stop-opacity:0.25"/>
	<stop  offset="0.54" style="stop-color:#808080;stop-opacity:0.12"/>
	<stop  offset="1" style="stop-color:#808080;stop-opacity:0.1"/>
</linearGradient>
<path fill="url(#SVGID_1_)" d="M1128.3,1160.2c0,0-1.9,17.2,8.6,25.8c0,0,32.5,42.6,48.7,66.8c-1,6.7-1.6,10.5-1.6,10.5l0,0v1h0.3
	l-0.3,2.5h0.3c-9.2,32.8-12.7,80.8-12.7,80.8v1.9c0,1,0,1.6,0,1.6s3.8,55,3.8,97.4c0,20.7-1,37.9-3.8,43.6c-3.5,7-4.8,41.7-4.8,81.1
	c0,57,2.5,125.7,4.8,133.9c0.3,1.6,1.3,2.9,2.5,4.1c-3.2,12.7-9.2,30.5-18.1,33.7c-6.4,2.2-10.5,8-11.1,14.6c0,0,0,0,0,0.3
	c0,0.3,0,0.6,0,1v0.3c0,0.3,0,0.6,0,1v0.3c0,0.3,0,0.6,0.3,1v0.3c0,0.3,0.3,0.6,0.3,1v0.3c0,0.3,0.3,0.6,0.3,1v0.3
	c0.3,0.6,1,1.6,1.6,2.2l0,0l1,0.6l0.3,0.3l1,0.6l0.3,0.3l1,0.3l0.6,0.3l1,0.3l0.6,0.3l1,0.3l0.6,0.3l1.3,0.3h0.6h1.3h0.6h2.2
	c22.6,0,35-5.1,41.7-15.6l14-3.5v-0.3l0,0v-0.3v-0.3v-0.3v-0.3v-1v-0.6v-0.3v-0.6l0,0l0.3-1.6l0,0l0.3-1l0,0c0-1,0.3-1.9,0.6-3.2
	v-0.3c0.3-1.3,0.3-2.2,0.6-3.5l0,0c0.3-1.3,0.3-2.5,0.6-3.8l0,0c0-1.3,0.3-2.5,0.3-4.1v-0.3v-1.3l0,0c0-1,0-1.9,0.3-2.5v-0.3
	c0-0.3,0-1,0-1.3v-0.3c0-1,0-1.6,0-2.5h1.3l12.1-192.5l43.6-171.8l21,144.1c0,4.8,0,14.3,0,26.4c0,41,1,116.8,7,126.6
	c2.9,4.1,3.8,12.4,3.8,21.6c-0.3,14-1.6,28-3.8,42h0.6c-0.3,2.2-0.6,3.5-0.6,3.5h1.6c-1.3,11.1-1.6,23.5-1.6,29.3l0,0v1
	c0,1.6,0,2.5,0,2.5s29.6,3.5,35,3.5c29.3,0,66.2,13.7,78.3,5.1l1-1l0.3-0.3l0.6-0.6v-0.3l0.3-0.6l0,0c0-0.3,0.3-0.3,0.3-0.6l0,0
	c0-0.3,0-0.3,0.3-0.6l0,0c0-0.3,0-0.3,0-0.6l0,0c0-0.3,0-0.6,0-0.6l0,0c-1.6-6-19.1-11.5-31.2-16.9c-10.5-4.5-19.4-22.3-24.2-33.4
	c1.6-1.9,2.2-4.5,1.6-7c0.3-1.6,0.3-3.2-0.3-4.5c-6.4-19.1-8.3-180.1-8.6-204.9l15.6-111.7c1.6-6.7,2.2-13.4,1.9-20.4
	c0.3-25.5-4.8-69-8-93.2h4.5l-0.6-3.5h0.6l-7-41.4v-54.1l8.6-94.5l10.5,7c1,0,2.2-1.3,4.1-3.2c22.3,9.9,50.9,22.3,67.1,29
	c29.6,12.1,31.5,0,31.5,0l57.6-111.7c0,0,101.2-41.4,68.1-58.5c-33.1-17.2-80.2,17.2-87.2,34.4s-47.1,72.2-55.7,82.4
	c-8.6,10.2-14,3.5-22.6-5.1c-7.3-6.4-15.3-12.4-23.2-18.1l0.6-1c-3.5-1.6-6.7-3.8-9.2-7c-13.7-15.6-43.6-46.8-60.5-48
	c-21-1.6-48-22.6-51.9-25.5c-0.3-5.1-0.3-10.2,0.3-15.3h0.3c0-0.6,0-1.3,0.3-1.6c24.8-5.1,42.3-26.7,42.6-52.2c0-1.3,0-2.5-0.3-4.1
	c0.3,0,0.6,0,1,0c2.2-0.6,3.5-21.6,3.5-24.8c0-1.9,0.6-3.8,1.3-5.7c0.6-1.6,1.9-2.9,2.5-4.5c0.6-1.3,0.6-2.9,0.6-4.5
	c0-3.5-1-6.7-2.5-9.9c-4.8-12.1-11.1-23.9-18.8-34.4c-1-1.6-2.5-2.9-4.1-3.8c-1.9-0.6-4.1-1-6-0.6c-9.5,0-18.5-4.5-27.4-7.6
	c-9.2-3.2-19.7-4.5-27.7,1s-10.8,16.2-19.1,20.4c-2.2,1.3-4.8,1.6-7,2.9c-2.5,2.2-4.5,4.8-6,7.6c-4.8,5.4-8.6,11.5-11.1,18.5
	c-1.3,4.8-1.6,9.5-1.6,14.3c0,1.6,0,3.2,0,4.8c0,9.5,1,20.4,8.9,26.1c1.9,1.3,3.2,2.9,4.5,4.8c1.3,2.2,2.2,5.1,2.2,7.6
	c0.3,5.4,2.5,10.5,2.9,15.9c0,1.9,0.6,4.1,1.6,5.7c1.3,1.6,3.5,2.2,5.4,1l0,0l0.3-1.3c0.6,1,1.3,1.6,1.6,2.5
	c-1.9,11.5-5.1,23.9-10.2,31.8h-1.3c-8.3,0-16.2,2.9-23.2,7.6c-19.4,14-59.8,25.1-59.8,25.1c-2.9,2.9-5.1,6.7-5.4,10.8
	c-7.3,17.2-13.4,34.7-17.8,52.8l0,0c-3.2,13-5.4,23.9-5.1,27.7v0.6h0.3l0,0l-0.3,1.6l6,1.6C1129,1097.2,1122,1143.3,1128.3,1160.2z
	 M1166.5,1151.6c4.5-11.5,8.6-22.9,11.8-34.7c3.8,11.8,7.6,20.7,10.8,24.5c3.2,3.8,4.1,12.7,4.5,25.1c0,12.4-1.3,27-2.5,41
	C1181.1,1189.4,1173.2,1171,1166.5,1151.6L1166.5,1151.6z"/>
<path fill="#59495D" d="M1363.8,1691.8c0,0,11.8,35.6,27,42.3c15.3,6.7,39.1,13.7,27,22c-11.8,8.6-47.7-5.1-76.4-5.1
	c-5.1,0-33.7-3.5-33.7-3.5s0-45.8,6.7-54.1C1321.1,1685.1,1363.8,1691.8,1363.8,1691.8z"/>
<path fill="#59495D" d="M1182.4,1691.8c0,0-6.7,40.7-20.4,45.8c-13.7,5.1-16.9,27,5.1,27s33.7-5.1,40.7-15.3l13.7-3.5
	c0,0,8.6-39.1,0-49.3L1182.4,1691.8z"/>
<path fill="#59495D" d="M1363.8,1691.8c0,0,11.8,35.6,27,42.3c15.3,6.7,39.1,13.7,27,22c-11.8,8.6-47.7-5.1-76.4-5.1
	c-5.1,0-33.7-3.5-33.7-3.5s0-45.8,6.7-54.1C1321.1,1685.1,1363.8,1691.8,1363.8,1691.8z"/>
<path fill="#59495D" d="M1182.4,1691.8c0,0-6.7,40.7-20.4,45.8c-13.7,5.1-16.9,27,5.1,27s33.7-5.1,40.7-15.3l13.7-3.5
	c0,0,8.6-39.1,0-49.3L1182.4,1691.8z"/>
<path fill="#F0B9BB" d="M1406.1,1020.8c0,0,32.1,22,40.7,30.5s13.7,15.3,22,5.1c8.3-10.2,47.4-64.3,54.1-81.4s52.5-50.9,84.6-33.7
	s-66.2,57.6-66.2,57.6l-55.7,110.1c0,0-1.6,11.8-30.5,0c-29-11.8-96.7-42.3-96.7-42.3L1406.1,1020.8z"/>
<path opacity="0.1" enable-background="new    " d="M1366.9,1253.1c0,0,15.3,105,8.6,125.4l-15.3,110.1c0,0,1.6,184.9,8.6,205.2
	s-61.1,22-61.1,22s8.6-52.5,0-66.2c-8.6-13.7-6.7-150.8-6.7-150.8l-20.4-142.5l-42.3,169.6l-11.8,189.9c0,0-45.8-1.6-49-15.3
	c-3.5-13.7-8.6-191.5,0-208.4c8.6-16.9,0-142.2,0-142.2s6.7-96.7,27-108.5C1224.7,1229.2,1366.9,1253.1,1366.9,1253.1z"/>
<path fill="#524D64" d="M1366.9,1249.6c0,0,15.3,105,8.6,125.4l-15.3,110.1c0,0,1.6,184.9,8.6,205.2s-61.1,22-61.1,22
	s8.6-52.5,0-66.2c-8.6-13.7-6.7-150.8-6.7-150.8l-20.4-142.2l-42.3,169.6l-11.8,189.9c0,0-45.8-1.6-49-15.3
	c-3.5-13.7-8.6-191.5,0-208.4c8.6-16.9,0-142.2,0-142.2s6.7-96.7,27-108.5C1224.7,1225.7,1366.9,1249.6,1366.9,1249.6z"/>
<path fill="#F0B9BB" d="M1256.9,888.5c0,0-3.5,81.4-32.1,66.2l25.5,76.4l57.6-3.5l33.7-45.8l-25.5-15.3c0,0-18.8,6.7-5.1-56
	L1256.9,888.5z"/>
<path opacity="0.1" enable-background="new    " d="M1305.8,956.2c0,0,29,23.9,50.9,25.5c16.5,1.3,45.5,32.1,58.9,47.4
	c2.5,2.9,5.4,5.1,8.9,6.7c0,0-33.7,47.4-39.1,47.4l-10.2-6.7l-8.6,93.2v56.3l6.7,40.7c0,0-106.9,1.6-117.1-6.7
	c-10.2-8.3-67.8,6.7-67.8,6.7s16.9-110.1,5.1-123.8c-11.8-13.7-32.1-108.5-32.1-108.5s-13.7-39.1,0-50.9c0,0,39.1-11.1,58.2-24.8
	c6.4-4.8,14.3-7.3,22.6-7.6h1.3c0,0,1.3,25.5,26.7,30.5S1311.9,977.5,1305.8,956.2z"/>
<path fill="#E2E8F0" d="M1305.8,953c0,0,29,23.9,50.9,25.5c16.5,1.3,45.5,32.1,58.9,47.4c2.5,2.9,5.4,5.1,8.9,6.7
	c0,0-33.7,47.4-39.1,47.4l-10.2-6.7l-8.6,93.2v56l6.7,40.7c0,0-106.9,1.6-117.1-6.7s-67.8,6.7-67.8,6.7s16.9-110.1,5.1-123.8
	c-11.8-13.7-32.1-108.5-32.1-108.5s-13.7-39.1,0-50.9c0,0,39.1-11.1,58.2-24.8c6.4-4.8,14.3-7.3,22.6-7.6h1.3
	c0,0,1.3,25.5,26.7,30.5C1295.7,983.6,1311.9,974.4,1305.8,953z"/>
<path fill="#E2E8F0" d="M1190.7,1078.4c0,0-50.9-6.7-56-6.7c-5.1,0,16.9-83,29-91.6c12.1-8.6,27,30.5,27,30.5V1078.4z"/>
<g opacity="0.1">
	<path d="M1311.9,958.5c1.9,15.3-8.6,22.9-26.4,22.3c16.2-1,24.8-10.2,20.4-26.7C1305.8,953.7,1308.4,955.6,1311.9,958.5z"/>
	<path d="M1380.6,1074.3l7.6,5.1c-0.6,0.6-1.6,1.3-2.5,1.6l-5.4-3.5L1380.6,1074.3z"/>
	<path d="M1162,1032c0,0,25.5,94.8,37.2,108.5c11.1,12.7-2.9,109.8-4.8,122.5l-5.4,1.3c0,0,16.9-110.1,5.1-123.8
		C1182.4,1126.8,1162,1032,1162,1032z"/>
	<path d="M1261.9,1257.2c7,6,61.1,7,93.2,7c-31.2,0-90.7-0.6-98.3-7c-2.9-1.9-6.4-2.5-9.9-2.5
		C1254,1254.3,1259.4,1255,1261.9,1257.2z"/>
</g>
<path fill="#F0B9BB" d="M1143.3,1056.5c0,0-16.9,81.4-8.6,105c0,0-1.6,16.9,8.6,25.5c0,0,56,74.5,56,81.4s16.9,39.1,45.8,11.8
	c0,0,13.7-18.8-16.9-34c-30.5-15.3-56-93.2-56-93.2s25.5-62.7,15.3-83C1177.3,1049.5,1143.3,1056.5,1143.3,1056.5z"/>
<polygon opacity="0.1" enable-background="new    " points="1196.7,1087.6 1134,1072.4 1139.1,1044.4 1166.2,1040.2 1201.8,1052 "/>
<polygon fill="#E2E8F0" points="1196.7,1086 1134,1070.8 1139.1,1042.8 1166.2,1038.6 1201.8,1050.4 "/>
<path opacity="0.1" enable-background="new    " d="M1256.9,890.4l54.1,22c-1.9,8.6-3.5,17.2-4.5,26.1c-20,4.1-40.7-3.5-53.1-20
	C1255.3,909.1,1256.2,899.6,1256.9,890.4z"/>
<circle fill="#F0B9BB" cx="1295.7" cy="885.3" r="52.5"/>
<path opacity="0.1" enable-background="new    " d="M1352.6,857c0-1.9,0.6-3.8,1.3-5.7c0.6-1.6,1.9-2.9,2.5-4.5
	c1.6-3.8,0-8.3-1.9-12.4c-4.8-12.1-10.8-23.2-18.1-34c-1-1.6-2.5-2.9-4.1-3.8c-1.9-0.6-3.8-1-6-0.6c-9.2,0-17.8-4.5-26.7-7.6
	c-8.9-2.9-19.1-4.5-27,1c-7.6,5.4-10.5,15.9-18.8,20c-2.2,1.3-4.8,1.6-7,2.9c-2.9,1.9-5.4,4.5-7.3,7.3c-9.2,9.2-14,22.3-12.4,35.3
	c0,9.5,1,20,8.6,25.8c1.6,1.3,3.2,2.9,4.5,4.8c1.3,2.2,2.2,4.8,1.9,7.6c0.3,5.1,2.5,10.5,2.9,15.6c0,1.9,0.3,3.8,1.6,5.7
	c1.3,1.6,3.5,2.2,5.1,1l0,0l5.4-22c0.6-4.5,2.5-8.6,4.8-12.1c3.8-4.8,11.1-7.3,13-13c1.6-4.1,0.3-9.5,3.5-12.7
	c1.3-1,3.2-1.9,4.8-2.2c15.3-3.5,31.2-4.1,46.5-1.6c1.6,0.3,3.2,0.6,4.8,1.6c2.5,1.9,4.1,4.8,5.1,8c1.3,3.2,5.1,21,9.5,19.7
	C1351.3,880.5,1352.6,859.8,1352.6,857z"/>
<path fill="#575168" d="M1352.6,855.4c0-1.9,0.6-3.8,1.3-5.7c0.6-1.6,1.9-2.9,2.5-4.5c1.6-3.8,0-8.3-1.9-12.4
	c-4.8-12.1-10.8-23.2-18.1-34c-1-1.6-2.5-2.9-4.1-3.8c-1.9-0.6-3.8-1-6-0.6c-9.2,0-17.8-4.5-26.7-7.6c-8.9-2.9-19.1-4.5-27,1
	c-7.6,5.4-10.5,15.9-18.8,20c-2.2,1.3-4.8,1.6-7,2.9c-2.9,1.9-5.4,4.5-7.3,7.3c-9.2,9.2-13.7,22-12.4,35c0,9.5,1,20,8.6,25.8
	c1.6,1.3,3.2,2.9,4.5,4.8c1.6,2.2,2.2,5.1,2.2,8c0.3,5.1,2.5,10.5,2.9,15.6c0,1.9,0.3,3.8,1.6,5.7c1.3,1.6,3.5,2.2,5.1,1l0,0l5.4-22
	c0.6-4.5,2.5-8.6,4.8-12.1c3.8-4.8,11.1-7.3,13-13c1.6-4.1,0.3-9.5,3.5-12.7c1.3-1,3.2-1.9,4.8-2.2c15.3-3.5,31.2-4.1,46.5-1.6
	c1.6,0.3,3.2,0.6,4.8,1.6c2.5,1.9,4.1,4.8,5.1,8c1.3,3.2,5.1,21,9.5,19.7C1351.3,878.9,1352.6,858.2,1352.6,855.4z"/>
<ellipse fill="#F0B9BB" cx="1261" cy="882.7" rx="5.1" ry="11.8"/>
<path opacity="0.1" enable-background="new    " d="M1341.5,1747.8c28.3,0,64.3,13.7,76.4,5.1c1.3-0.6,2.2-1.6,2.9-2.9
	c1,1.9,0.3,4.1-2.9,6.4c-11.8,8.6-47.7-5.1-76.4-5.1c-5.1,0-33.7-3.5-33.7-3.5s0-1.3,0-3.5
	C1308.4,1744.6,1336.7,1747.8,1341.5,1747.8z"/>
<path opacity="0.1" enable-background="new    " d="M1167.1,1761.5c22,0,33.7-5.1,40.7-15.3l13.7-3.5c2.2-9.9,3.2-20,3.8-30.2
	c0,11.5-1.3,22.6-3.8,33.7l-13.7,3.5c-6.7,10.2-18.8,15.3-40.7,15.3c-12.4,0-16.5-7-15.9-13.7
	C1152.2,1756.7,1156.6,1761.5,1167.1,1761.5z"/>
<rect x="1198.4" y="1269" transform="matrix(-0.9451 0.3269 -0.3269 -0.9451 2809.0691 2089.8008)" fill="#524D64" width="61.1" height="23.9"/>
<rect x="1198.4" y="1269" transform="matrix(-0.9451 0.3269 -0.3269 -0.9451 2809.0691 2089.8008)" opacity="0.1" enable-background="new    " width="61.1" height="23.9"/>
</svg>
