<?xml version="1.0" encoding="utf-8"?>
<!-- Generator: Adobe Illustrator 18.0.0, SVG Export Plug-In . SVG Version: 6.00 Build 0)  -->
<!DOCTYPE svg PUBLIC "-//W3C//DTD SVG 1.1//EN" "http://www.w3.org/Graphics/SVG/1.1/DTD/svg11.dtd">
<svg version="1.1" id="Layer_1" xmlns="http://www.w3.org/2000/svg" xmlns:xlink="http://www.w3.org/1999/xlink" x="0px" y="0px"
	 viewBox="0 0 986 786" enable-background="new 0 0 986 786" xml:space="preserve">
<path fill="none" stroke="#535461" stroke-width="2" stroke-miterlimit="10" d="M115.2,727.4c0,0-39.3-133.4,7.4-231.7
	c19.6-41.2,26.1-87.5,17-132.2c-4.3-21.2-10.5-42-18.8-62.1"/>
<path fill="#6C63FF" d="M149.9,239.4c0,16.3-29.6,63.7-29.6,63.7s-29.6-47.4-29.6-63.7s13.2-29.6,29.6-29.6S149.9,223,149.9,239.4
	L149.9,239.4z"/>
<path fill="#6C63FF" d="M198.9,329.9c-8.9,13.8-59.6,37.4-59.6,37.4s0.9-55.9,9.9-69.7c8.9-13.8,27.3-17.7,40.9-8.8
	C203.9,297.9,207.8,316.2,198.9,329.9z"/>
<path fill="#6C63FF" d="M196.8,484.8c-14.6,7.4-70.2,2.3-70.2,2.3s28.9-47.8,43.6-55.2c14.7-7.3,32.4-1.2,39.7,13.4
	C216.9,459.8,211.2,477.3,196.8,484.8z"/>
<path fill="#6C63FF" d="M168.8,601.6c-13.1,9.7-68.9,14.2-68.9,14.2s20.5-52,33.6-61.7c13.1-9.9,31.6-7.3,41.5,5.7
	s7.3,31.6-5.7,41.5C169.2,601.3,168.9,601.4,168.8,601.6L168.8,601.6z"/>
<path fill="#6C63FF" d="M77.1,370.5c11.7,11.3,66.4,23.2,66.4,23.2s-13.4-54.3-25.1-65.6c-11.7-11.3-30.5-10.9-41.9,0.8
	C65.4,340.7,65.6,359.2,77.1,370.5z"/>
<path fill="#6C63FF" d="M46.2,507.6c14.6,7.4,70.2,2.3,70.2,2.3s-29-47.8-43.6-55.1c-14.6-7.4-32.4-1.8-39.8,12.8
	s-1.8,32.4,12.8,39.8C45.8,507.4,45.9,507.4,46.2,507.6L46.2,507.6z"/>
<path fill="#6C63FF" d="M34.3,644.8c13.1,9.7,68.9,14.2,68.9,14.2s-20.5-52-33.6-61.7c-13.2-9.6-31.7-6.6-41.3,6.8
	C18.8,617,21.5,635.1,34.3,644.8L34.3,644.8z"/>
<path opacity="0.5" fill="#FFFFFF" enable-background="new    " d="M149.9,239.4c0,16.3-29.6,63.7-29.6,63.7s-29.6-47.4-29.6-63.7
	s13.2-29.6,29.6-29.6S149.9,223,149.9,239.4L149.9,239.4z"/>
<path opacity="0.5" fill="#FFFFFF" enable-background="new    " d="M198.9,329.9c-8.9,13.8-59.6,37.4-59.6,37.4s0.9-55.9,9.9-69.7
	c8.9-13.8,27.3-17.7,40.9-8.8C203.9,297.9,207.8,316.2,198.9,329.9z"/>
<path opacity="0.5" fill="#FFFFFF" enable-background="new    " d="M196.8,484.8c-14.6,7.4-70.2,2.3-70.2,2.3s28.9-47.8,43.6-55.2
	c14.7-7.3,32.4-1.2,39.7,13.4C216.9,459.8,211.2,477.3,196.8,484.8z"/>
<path opacity="0.5" fill="#FFFFFF" enable-background="new    " d="M168.8,601.6c-13.1,9.7-68.9,14.2-68.9,14.2s20.5-52,33.6-61.7
	c13.1-9.9,31.6-7.3,41.5,5.7s7.3,31.6-5.7,41.5C169.2,601.3,168.9,601.4,168.8,601.6L168.8,601.6z"/>
<path opacity="0.5" fill="#FFFFFF" enable-background="new    " d="M77.1,370.5c11.7,11.3,66.4,23.2,66.4,23.2s-13.4-54.3-25.1-65.6
	c-11.7-11.3-30.5-10.9-41.9,0.8C65.4,340.7,65.6,359.2,77.1,370.5z"/>
<path opacity="0.5" fill="#FFFFFF" enable-background="new    " d="M46.2,507.6c14.6,7.4,70.2,2.3,70.2,2.3s-29-47.8-43.6-55.1
	c-14.6-7.4-32.4-1.8-39.8,12.8s-1.8,32.4,12.8,39.8C45.8,507.4,45.9,507.4,46.2,507.6L46.2,507.6z"/>
<path opacity="0.5" fill="#FFFFFF" enable-background="new    " d="M34.3,644.8c13.1,9.7,68.9,14.2,68.9,14.2s-20.5-52-33.6-61.7
	c-13.2-9.6-31.7-6.6-41.3,6.8C18.8,617,21.5,635.1,34.3,644.8L34.3,644.8z"/>
<path fill="none" stroke="#535461" stroke-width="2" stroke-miterlimit="10" d="M869.3,655.7c0,0-39.3-133.4,7.3-231.7
	c19.6-41.2,26.1-87.5,17-132.2c-4.3-21.2-10.5-42-18.8-62.1"/>
<path fill="#6C63FF" d="M904,167.5c0,16.3-29.6,63.7-29.6,63.7s-29.6-47.4-29.6-63.7c0-16.3,13.2-29.6,29.6-29.6
	C890.8,138,904,151.2,904,167.5L904,167.5z"/>
<path fill="#6C63FF" d="M953,258.2c-8.9,13.8-59.6,37.4-59.6,37.4s0.9-55.9,9.9-69.7c8.9-13.8,27.3-17.7,40.9-8.8
	C957.9,226.1,961.9,244.5,953,258.2z"/>
<path fill="#6C63FF" d="M950.9,413.1c-14.6,7.4-70.2,2.3-70.2,2.3s29-47.8,43.6-55.1c14.3-7.8,32.4-2.6,40.2,11.9
	c7.8,14.3,2.6,32.4-11.9,40.2C952.1,412.4,951.5,412.8,950.9,413.1z"/>
<path fill="#6C63FF" d="M922.9,529.7c-13.1,9.7-68.9,14.2-68.9,14.2s20.5-52,33.6-61.7c13-10,31.6-7.6,41.6,5.4s7.6,31.6-5.4,41.6
	C923.4,529.3,923.2,529.6,922.9,529.7z"/>
<path fill="#6C63FF" d="M831.2,298.8c11.7,11.3,66.4,23.2,66.4,23.2s-13.4-54.3-25.1-65.8c-11.7-11.3-30.5-11.1-41.9,0.5
	C819.2,268.7,819.5,287.5,831.2,298.8z"/>
<path fill="#6C63FF" d="M800.3,435.7c14.6,7.4,70.2,2.3,70.2,2.3s-29-47.8-43.6-55.1c-14.6-7.4-32.4-1.8-39.8,12.8
	s-1.8,32.4,12.8,39.8C800,435.6,800.1,435.7,800.3,435.7z"/>
<path fill="#6C63FF" d="M788.4,573.1c13.1,9.7,68.9,14.2,68.9,14.2s-20.5-52-33.6-61.7c-13.2-9.6-31.7-6.6-41.3,6.6
	C772.9,545.1,775.6,563.4,788.4,573.1L788.4,573.1z"/>
<path opacity="0.5" fill="#FFFFFF" enable-background="new    " d="M904,167.5c0,16.3-29.6,63.7-29.6,63.7s-29.6-47.4-29.6-63.7
	c0-16.3,13.2-29.6,29.6-29.6C890.8,138,904,151.2,904,167.5L904,167.5z"/>
<path opacity="0.5" fill="#FFFFFF" enable-background="new    " d="M953,258.2c-8.9,13.8-59.6,37.4-59.6,37.4s0.9-55.9,9.9-69.7
	c8.9-13.8,27.3-17.7,40.9-8.8C957.9,226.1,961.9,244.5,953,258.2z"/>
<path opacity="0.5" fill="#FFFFFF" enable-background="new    " d="M950.9,413.1c-14.6,7.4-70.2,2.3-70.2,2.3s29-47.8,43.6-55.1
	c14.3-7.8,32.4-2.6,40.2,11.9c7.8,14.3,2.6,32.4-11.9,40.2C952.1,412.4,951.5,412.8,950.9,413.1z"/>
<path opacity="0.5" fill="#FFFFFF" enable-background="new    " d="M922.9,529.7c-13.1,9.7-68.9,14.2-68.9,14.2s20.5-52,33.6-61.7
	c13-10,31.6-7.6,41.6,5.4s7.6,31.6-5.4,41.6C923.4,529.3,923.2,529.6,922.9,529.7z"/>
<path opacity="0.5" fill="#FFFFFF" enable-background="new    " d="M831.2,298.8c11.7,11.3,66.4,23.2,66.4,23.2
	s-13.4-54.3-25.1-65.8c-11.7-11.3-30.5-11.1-41.9,0.5C819.2,268.7,819.5,287.5,831.2,298.8z"/>
<path opacity="0.5" fill="#FFFFFF" enable-background="new    " d="M800.3,435.7c14.6,7.4,70.2,2.3,70.2,2.3s-29-47.8-43.6-55.1
	c-14.6-7.4-32.4-1.8-39.8,12.8s-1.8,32.4,12.8,39.8C800,435.6,800.1,435.7,800.3,435.7z"/>
<path opacity="0.5" fill="#FFFFFF" enable-background="new    " d="M788.4,573.1c13.1,9.7,68.9,14.2,68.9,14.2s-20.5-52-33.6-61.7
	c-13.2-9.6-31.7-6.6-41.3,6.6C772.9,545.1,775.6,563.4,788.4,573.1L788.4,573.1z"/>
<linearGradient id="SVGID_1_" gradientUnits="userSpaceOnUse" x1="780.8103" y1="840.2758" x2="780.8103" y2="104.2402" gradientTransform="matrix(1.017 0 0 1.017 -117.2488 -83.0023)">
	<stop  offset="0" style="stop-color:#808080;stop-opacity:0.25"/>
	<stop  offset="0.54" style="stop-color:#808080;stop-opacity:0.12"/>
	<stop  offset="1" style="stop-color:#808080;stop-opacity:0.1"/>
</linearGradient>
<path fill="url(#SVGID_1_)" d="M845.9,718.4c0-0.1,0-0.4,0.1-0.5c0.1-0.1,0-0.1,0-0.1c0-0.3,0-0.7,0-1.1c0,0-1.8-3.5-3.9-8.2l0,0
	c-2.8-6.5-6.3-15.5-6.3-21.5c0,0-31.6-110.5-52.9-122.5c0,0-17.6-31.3-17.4-48.9c0-5.7-0.4-11.2-1.4-16.7
	c-3.1-19.4-8.4-56.6-3.5-63.3c6.1-8.6,16.1-46.2-8-74.5l4.2-0.7c0,0-0.3-0.3-0.7-0.8l0.7-0.1c0,0-9.3-11.2-9.3-35.8
	c0.1-14.2,3.4-32.7,13-56c1.2-3.1,2.4-6.2,3.5-9.2c4.5-2.3,8.6-5.1,12.2-8.8l0.4-0.4l0.5-0.4c8.9-8.9,14.2-20.8,18-32.8
	c3.4-11.1,5.7-22.4,6.5-33.9c0.9-12.6,0.4-25.1,0-37.7c-0.7-14.6-1.4-29.7-7.2-43.1c-2.3-5.3-5.4-10.1-6.8-15.7
	c-0.8-3.8-1.4-7.7-1.6-11.5c-1.9-15.1-9.2-29.8-20.9-39.6s-28.2-14-42.9-10c-8.4,2.3-15.9,7.2-23,12.4c-3,2.3-5.8,4.7-8.5,7.4
	c-8.5,8.2-14.9,19.2-8.8,30.7c0.4,0.8,0.9,1.6,1.5,2.4C671,97,677,122.8,696.6,135c2,1.4,4.2,2.4,6.5,3.4l1.1,1.9h0.1
	c3.2,5.9,6.8,13.4,7.6,18.9c-4.1,2.8-7.7,6.2-10.8,10c-10.9,13-16.9,21.9-20.1,27.7c-3.1,5.4-6.6,10.4-10.7,15
	c-5,5.8-10.8,17.3-10.8,38.6c0,1.6,0,3.2,0,4.9c-26.2,28.5-128.2,7.6-128.2,7.6c-12.3-4.7-26.6,0.9-33.2,4.3c-2,0.9-2.8,3.4-1.9,5.4
	c0.1,0.3,0.3,0.5,0.5,0.8c10.8,13,37.4,5.3,37.4,5.3s95.6,16.7,103,22.3c5,3.8,13.9,0.7,19.2-1.6l-1.1,1.2l1.4-0.7l-7.3,66h0.1
	l-0.1,0.9c0,0,1.8-0.1,4.5-0.4l2.3,5.8h-0.1l2.3,5.5l0,0l1.9,4.6c-5.8,20.8-29,106.7-26.6,126.3c0,0-14.9,35.2-9.3,54.7
	c0,0-20.4,146.7-33.4,154.1l1.8,0.8c-13.9,8-44,22.8-65,15.9c0,0-13,3.8,7.4,16.7c0,0,83.5,22.3,94.7,14.9l-1.9-32.1l0.9,0.4
	c0.1-1.8,1.4-15.1,6.5-21.2c0,0,33.4-90.9,31.6-137.3l31.2-75.4c3.4,8.6,7,15.9,10.5,20.7l13,33.4l21.3,27.8
	c0,0,66.8,105.7,62.1,137.3l1.6,0.4c-6.2,11.1-21.9,33.9-44.3,33.9c0,0-19.4,20.4,16.7,17.7c0,0,45.5-2.8,78.9-21.3L845.9,718.4z"/>
<path fill="#333333" d="M609.1,709.9c0,0-42.9,28.6-69.8,19.7c0,0-12.6,3.6,7.2,16.1c0,0,80.6,21.5,91.3,14.3l-2.7-46.6L609.1,709.9
	z"/>
<path fill="#333333" d="M811.3,709.9c0,0-17,38.5-45.6,38.5c0,0-18.8,19.7,16.1,17c0,0,43.9-2.7,76-20.5l-15.4-40.1L811.3,709.9z"/>
<polygon fill="#FDB797" points="658.3,368.4 665.1,385.9 708.9,382.7 704.4,353.2 "/>
<path fill="#252A62" d="M668.2,385.9c0,0-29.6,104.8-26.9,126.3c0,0-14.3,34-8.9,52.8c0,0-19.7,141.4-32.3,148.5
	c0,0,36.5,16.5,37.5,16.1c12.6-4.5-0.9,0-0.9,0s0.9-14.3,6.2-20.5c0,0,32.3-87.8,30.4-132.5l42.9-103.8L668.2,385.9z"/>
<path opacity="0.1" enable-background="new    " d="M668.2,385.9c0,0-29.6,104.8-26.9,126.3c0,0-14.3,34-8.9,52.8
	c0,0-19.7,141.4-32.3,148.5c0,0,36.5,16.5,37.5,16.1c12.6-4.5-0.9,0-0.9,0s0.9-14.3,6.2-20.5c0,0,32.3-87.8,30.4-132.5l42.9-103.8
	L668.2,385.9z"/>
<path fill="#252A62" d="M662.8,380.5l19.7,46.6c0,0,15.3,76,31.3,96.7l12.6,32.3l20.5,26.9c0,0,64.4,102,60,132.5
	c0,0,40.2,10.8,39.4-2.7c0,0-9.9-18.8-9.9-28.6c0,0-30.4-106.6-51-118.2c0,0-16.9-30.1-16.7-47.1c0-5.4-0.4-10.8-1.4-16.2
	c-3-18.8-8-54.6-3.4-61c6.2-8.9,17-50.1-13.4-77.9L662.8,380.5z"/>
<path opacity="0.1" enable-background="new    " d="M846.3,712.6c0,0-9.9-18.8-9.9-28.6c0,0-30.4-106.6-51-118.2
	c0,0-16.9-30.1-16.7-47.1c0-5.4-0.4-10.8-1.4-16.2c-3-18.8-8-54.6-3.4-61c6.2-8.9,17-50.1-13.4-77.9l-5.1,1.1
	c29,27.7,18.5,68.1,12.4,76.8c-6.2,8.9,5.4,72.5,5.4,72.5c-4.5,15.3,16.1,51.9,16.1,51.9c20.5,11.6,51,118.2,51,118.2
	c0,9.9,9.9,28.6,9.9,28.6c0.3,4.5-3.9,6.2-9.7,6.6C839,719.6,846.7,718.4,846.3,712.6z"/>
<path fill="#FDB797" d="M704,146.9c0,0,17,25.9,12.6,34l43.9-10.8c0,0-11.6-12.6-8.9-42.9L704,146.9z"/>
<path opacity="0.1" enable-background="new    " d="M766.6,165.6c0,0-36.7-8.1-60,19.7c-10.5,12.6-16.3,21.1-19.4,26.6
	c-3,5.1-6.5,10-10.3,14.6c-5.8,6.9-13,21.7-9.6,51.9l-10.8,96.7c0,0,31.3-2.7,39.4,0c8.1,2.7,64.4-6.2,64.4-6.2s-22.4-26.9,3.6-89.5
	C789.9,216.7,766.6,165.6,766.6,165.6z"/>
<path fill="#F55F44" d="M766.6,164.8c0,0-36.7-8.1-60,19.7c-10.5,12.6-16.3,21.1-19.4,26.6c-3,5.1-6.5,10-10.3,14.6
	c-5.8,6.9-13,21.7-9.6,51.9l-10.8,96.7c0,0,31.3-2.7,39.4,0s64.4-6.2,64.4-6.2s-22.4-26.9,3.6-89.5
	C789.9,215.8,766.6,164.8,766.6,164.8z"/>
<path opacity="0.1" enable-background="new    " d="M722.4,247.5c0,0-35,50.1-51,59.1l-8.9,4.5C662.4,311.1,718.7,247.5,722.4,247.5
	z"/>
<path fill="#FDB797" d="M689.7,222.1c0,0,23-9,32.8,20.9c0.8,2.4,0.3,5.3-1.5,7.2l-53.6,57.9c0,0-15.3,8.9-22.4,3.5
	c-7.2-5.4-99.4-21.5-99.4-21.5s-25.7,7.6-36.1-5c-1.4-1.6-1.2-4.1,0.5-5.4c0.3-0.1,0.5-0.4,0.8-0.5c5-2.6,13.4-1.1,23.2-2.3
	c7.6-0.9,15.1-0.7,22.7,0.4c30.7,4.9,103,12.7,114.2-16.7C685.2,222.9,689.7,222.1,689.7,222.1z"/>
<path opacity="0.1" enable-background="new    " d="M689.3,222.5c0,0,27.7-4.5,34,23.2V244C723.2,244,715.2,213.6,689.3,222.5z"/>
<path opacity="0.1" enable-background="new    " d="M752.3,129.1l-47.5,19.7c0,0,2.2,3.2,4.7,7.8c4.6,1.9,11.1,0.7,16.3,0.7
	c10.8,0,18.6-2.8,25.9-9.9C751.3,142,751.7,136.3,752.3,129.1z"/>
<circle fill="#FDB797" cx="723.7" cy="117.3" r="40.2"/>
<path opacity="0.1" enable-background="new    " d="M723.7,111.9c0.9,3.1-1.8,5.9-3.5,8.6c-6.5,9.2-5.3,21.7-2.3,32.7
	c1.5,5.4,3.6,10.9,8.4,13.8c3.8,2.2,8.5,2.2,12.8,3.2c7.7,2,13.9,8.1,17.6,15.1s5,15.1,5.4,23.1c1.4,23-4.2,45.8-15.9,65.6
	c11.9,2,24.3-3.4,32.8-12c8.5-8.6,13.8-20,17.3-31.6c3.4-10.7,5.4-21.6,6.3-32.7c0.9-12,0.4-24.2,0-36.3c-0.5-14.2-1.2-28.6-7-41.6
	c-2.3-5-5.1-9.9-6.6-15.1c-0.8-3.6-1.4-7.4-1.6-11.1c-1.9-14.6-8.8-28.8-20.1-38.2c-11.3-9.5-27.3-13.5-41.5-9.6
	c-8.1,2.3-15.4,6.9-22.1,12c-10.9,8.2-23.4,21.6-15.7,35.8C694.8,106.1,709.7,114.1,723.7,111.9z"/>
<path fill="#72351C" d="M724.7,111c0.9,3.1-1.8,5.9-3.5,8.6c-6.5,9.2-5.3,21.7-2.3,32.7c1.5,5.4,3.6,10.9,8.4,13.8
	c3.8,2.2,8.5,2.2,12.8,3.2c7.7,2,13.9,8.1,17.6,15.1s5,15.1,5.4,23.1c1.4,23-4.2,45.8-15.9,65.6c11.9,2,24.3-3.4,32.8-12
	s13.8-20,17.3-31.6c3.4-10.7,5.4-21.6,6.3-32.7c0.9-12,0.4-24.2,0-36.3c-0.5-14.2-1.2-28.6-7-41.6c-2.3-5-5.1-9.9-6.6-15.1
	c-0.8-3.6-1.4-7.4-1.6-11.1c-1.9-14.6-8.8-28.8-20.1-38.2c-11.3-9.5-27.3-13.5-41.5-9.6c-8.1,2.3-15.4,6.9-22.1,12
	c-10.9,8.2-23.4,21.6-15.7,35.8C695.8,105.1,710.5,113.3,724.7,111z"/>
<path opacity="0.1" enable-background="new    " d="M728.6,311.1c0,0,17,0,23.2-8.1"/>
<path opacity="0.1" enable-background="new    " d="M728.6,317.3c0,0,17,0,23.2-8.1"/>
<path opacity="0.1" enable-background="new    " d="M744.8,214.4c0,0-2.7,21.5-12.6,31.3"/>
<g opacity="0.1">
	
		<linearGradient id="SVGID_2_" gradientUnits="userSpaceOnUse" x1="465.8379" y1="819.7838" x2="465.8379" y2="819.5714" gradientTransform="matrix(1.017 0 0 1.017 -117.2488 -83.0023)">
		<stop  offset="0" style="stop-color:#808080;stop-opacity:0.25"/>
		<stop  offset="0.54" style="stop-color:#808080;stop-opacity:0.12"/>
		<stop  offset="1" style="stop-color:#808080;stop-opacity:0.1"/>
	</linearGradient>
	<path fill="url(#SVGID_2_)" d="M356.7,750.8v-0.3l-0.3,0.1L356.7,750.8z"/>
</g>
<g opacity="0.1">
	
		<linearGradient id="SVGID_3_" gradientUnits="userSpaceOnUse" x1="462.621" y1="819.7842" x2="462.621" y2="817.7128" gradientTransform="matrix(1.017 0 0 1.017 -117.2488 -83.0023)">
		<stop  offset="0" style="stop-color:#808080;stop-opacity:0.25"/>
		<stop  offset="0.54" style="stop-color:#808080;stop-opacity:0.12"/>
		<stop  offset="1" style="stop-color:#808080;stop-opacity:0.1"/>
	</linearGradient>
	<path fill="url(#SVGID_3_)" d="M355.7,750.8c0.3,0,0.4,0,0.7-0.1C354.2,749.9,343.8,746.5,355.7,750.8z"/>
</g>
<linearGradient id="SVGID_4_" gradientUnits="userSpaceOnUse" x1="418.0126" y1="843.5985" x2="418.0126" y2="116.353" gradientTransform="matrix(1.017 0 0 1.017 -117.2488 -83.0023)">
	<stop  offset="0" style="stop-color:#808080;stop-opacity:0.25"/>
	<stop  offset="0.54" style="stop-color:#808080;stop-opacity:0.12"/>
	<stop  offset="1" style="stop-color:#808080;stop-opacity:0.1"/>
</linearGradient>
<path fill="url(#SVGID_4_)" d="M490.1,276.7c-6.9-3.4-21.5-9-33.9-4.3c0,0-120.2,23.8-135.3-14.7c-0.7-1.8-1.4-3.5-2-5.3
	c0.3-2.6,0.4-5,0.4-7.6c0-3.1-0.1-6.2-0.7-9.3c-0.8-4.5-2.6-8.8-5.1-12.6c-3-5-5.4-10.3-7.3-15.8c-5.9-16.1-18.4-28.9-34.3-35.1
	c0.3-5.8,4.3-14.2,8-20.8h0.1l1.1-1.9c15.9-6.1,26.5-21.2,26.6-38.2c0-8-2.4-15.8-6.9-22.4c12.7-2,8.4-12.8,0.5-22.1
	c-1.5-1.8-3.1-3.5-4.9-5.1c-7.7-7.6-17.3-12.8-27.8-15.1c-1.2-0.3-2.6-0.5-3.8-0.7c-15.3-5.3-32.3-3.2-45.8,5.5
	c-3.4-9.6-12.4-15.8-22.6-15.8c-13.1,0-23.6,10.3-23.6,23s10.5,23,23.6,23h1.4c-0.8,3.6-1.4,7.3-1.4,11.1
	c0,23.1,16.3,42.5,38.5,47.9l0.4,0.4c0,0.4,0,0.8-0.1,1.2l0.1,0.1c-0.8,6.8-3,13.4-6.3,19.3l-0.8-0.1
	c-17.4,12.2-23.8,30.5-23.6,49.8c-0.1,16.3,4.5,33.4,10.8,47.3c2.3,5.5,3.5,11.5,3.4,17.6c-0.4,20.8-9.9,45.8-16.5,60.4
	c-2.6,5.8-40,96.3-40,96.3l0.8-0.3l-0.8,2c8.2-2.3,17-1.2,24.4,0.8c10.4,2.7,21.3,1.2,30.7-4.3c0.9,4.3,2.7,8.5,5.1,12.3
	c4.9,6.8-0.4,43.3-3.6,62.5c-0.9,5.5-1.4,11.1-1.4,16.6c0.1,17.4-17.7,48.2-17.7,48.2c-21.7,11.9-54,121-54,121
	c0,5.8-3.5,14.7-6.5,21.2l0,0c-2.2,4.7-4.1,8.1-4.1,8.1c0,0.3,0,0.7,0,0.9v0.1c0,0.1,0,0.4,0.1,0.5L123,753.6
	c34,18.4,80.5,21.1,80.5,21.1c36.9,2.7,17-17.4,17-17.4c-23,0-38.8-22.6-45.1-33.5l1.6-0.4c-4.7-31.2,63.5-135.6,63.5-135.6
	l21.7-27.5l13.2-33.1c3.6-4.6,7.3-11.7,10.8-20.4l31.7,74.4c-1.9,45.8,32.1,135.6,32.1,135.6c5.3,5.9,6.5,19,6.6,20.9l0.9-0.3
	l-1.9,31.7c11.3,7.3,96.6-14.7,96.6-14.7c20.8-12.8,7.6-16.5,7.6-16.5c-21.2,6.9-52.1-7.8-66.2-15.7l1.9-0.8
	c-13.2-7.3-34-152.1-34-152.1c5.7-19.3-9.5-54-9.5-54c1.8-13.4-9.2-58.3-18-91.4c11.2-0.1,22.6-1.2,33.6-3.4c-0.7-0.4-1.4-0.9-2-1.4
	c1.4-0.3,2-0.4,2-0.4c-29.3-18.6-45.9-81.8-53.1-117.6c1.8,1.5,3.8,2.8,5.8,4.1l9.5,4.6l-1.1-1.2c5.3,2.3,14.3,5.4,19.6,1.6
	c7.6-5.5,105.1-22,105.1-22s27,7.7,38.1-5.1c1.5-1.6,1.4-4.1-0.3-5.5C490.8,277.1,490.5,276.8,490.1,276.7z"/>
<circle fill="#72351C" cx="250.6" cy="101.6" r="48.3"/>
<path fill="#FDB797" d="M287,149.6c0,0-17,25.9-12.6,34l-43.9-10.8c0,0,11.6-12.6,8.9-42.9L287,149.6z"/>
<path opacity="0.1" enable-background="new    " d="M238.6,131.6l47.4,19.7c0,0-2.2,3.2-4.7,7.8c-4.6,1.9-11.1,0.7-16.3,0.7
	c-10.8,0-18.8-2.8-25.9-9.9C239.7,144.7,239.2,139,238.6,131.6z"/>
<circle fill="#FDB797" cx="267.3" cy="120" r="40.2"/>
<circle fill="#72351C" cx="202.3" cy="68.6" r="22.4"/>
<path opacity="0.1" enable-background="new    " d="M295.9,98.4c-10.1-0.1-21.5-2.2-29,4.5c-5.4,4.7-6.9,12.6-8.6,19.4
	c-2.7,10.5-8.9,22-19.6,23.6c-6.6,0.9-13.2-2.3-17.8-7c-4.6-4.7-7.7-10.8-10.5-16.7c-2.8-5.9-5.7-12.2-5.4-18.8
	c0.3-7.8,4.9-14.9,9.6-21.1c2.8-3.9,5.9-7.7,9.5-11.1c20.9-20.1,54.3-19.6,74.4,1.4c1.2,1.2,2.3,2.6,3.4,3.9
	C309.8,86.6,314,98.8,295.9,98.4z"/>
<path fill="#72351C" d="M294.9,97.6c-10.1-0.1-21.5-2.2-29,4.5c-5.4,4.7-6.9,12.6-8.6,19.4c-2.7,10.5-8.9,22-19.6,23.6
	c-6.6,0.9-13.2-2.3-17.8-7c-4.6-4.7-7.7-10.8-10.5-16.7s-5.7-12.2-5.4-18.8c0.3-7.8,4.9-14.9,9.6-21.1c2.8-3.9,5.9-7.7,9.5-11.1
	c20.9-20.1,54.3-19.6,74.4,1.4c1.2,1.2,2.3,2.6,3.4,3.9C309,85.8,313.2,97.9,294.9,97.6z"/>
<path fill="#333333" d="M381.8,712.6c0,0,42.9,28.6,69.8,19.7c0,0,12.6,3.6-7.2,16.1c0,0-80.6,21.5-91.3,14.3l2.7-46.6L381.8,712.6z
	"/>
<path fill="#333333" d="M179.5,712.6c0,0,17,38.5,45.6,38.5c0,0,18.8,19.7-16.1,17c0,0-43.9-2.7-76-20.5l15.4-40.1L179.5,712.6z"/>
<path fill="#3AD29F" d="M322.8,388.5c0,0,29.6,104.7,26.9,126.1c0,0,14.3,34,8.9,52.8c0,0,19.7,141.4,32.3,148.5
	c0,0-36.5,16.5-37.5,16.1c-12.6-4.5,0.9,0,0.9,0s-0.9-14.3-6.2-20.5c0,0-32.3-87.8-30.4-132.5l-42.9-103.8L322.8,388.5z"/>
<path opacity="0.1" enable-background="new    " d="M322.8,388.5c0,0,29.6,104.7,26.9,126.1c0,0,14.3,34,8.9,52.8
	c0,0,19.7,141.4,32.3,148.5c0,0-36.5,16.5-37.5,16.1c-12.6-4.5,0.9,0,0.9,0s-0.9-14.3-6.2-20.5c0,0-32.3-87.8-30.4-132.5
	l-42.9-103.8L322.8,388.5z"/>
<path fill="#3AD29F" d="M328.2,383.2l-19.7,46.5c0,0-15.3,76-31.3,96.7l-12.6,32.3L244,585.4c0,0-64.4,102-60,132.5
	c0,0-40.2,10.8-39.4-2.7c0,0,9.9-18.8,9.9-28.6c0,0,30.4-106.6,51-118.2c0,0,16.9-30.1,16.7-47.1c0-5.4,0.4-10.8,1.4-16.2
	c3-18.8,8-54.6,3.4-61c-6.2-8.9-17-50.1,13.4-77.9L328.2,383.2z"/>
<path opacity="0.1" enable-background="new    " d="M144.6,715.1c0,0,9.9-18.8,9.9-28.6c0,0,30.4-106.6,51-118.2
	c0,0,16.9-30.1,16.7-47.1c0-5.4,0.4-10.8,1.4-16.2c3-18.8,8-54.6,3.4-61c-6.2-8.9-17-50.1,13.4-77.9l5.1,1.1
	c-29.2,27.7-18.6,68.1-12.4,76.8s-5.4,72.5-5.4,72.5c4.5,15.3-16.1,51.9-16.1,51.9c-20.5,11.6-51,118.2-51,118.2
	c0,9.9-9.9,28.6-9.9,28.6c-0.3,4.5,3.9,6.2,9.6,6.6C151.9,722.3,144.2,721.1,144.6,715.1z"/>
<path opacity="0.1" enable-background="new    " d="M232.4,170.5l33.2,8.2c18.9,4.7,34,18.5,40.5,36.9c1.8,5.4,4.1,10.5,6.9,15.4
	c2.4,3.8,4.1,8,4.9,12.3c1.4,8.8,1.2,23-8,39c0,0,15.1,113.7,54.4,139.6c0,0-38.4,8.8-72-2c-22.6-7.3-47.3-4.2-66.6,9.6l-0.8,0.7
	c-9,6.8-20.7,9-31.6,6.1c-7-2-15.4-3-23.1-0.7c0,0,35.4-88.3,37.8-94c8.2-19.2,21.7-56.6,12.3-77.8
	C207.2,234.1,202.3,190.2,232.4,170.5z"/>
<path fill="#535461" d="M232.4,168.8l33.2,8.2c18.9,4.7,34,18.5,40.5,36.9c1.8,5.4,4.1,10.5,6.9,15.4c2.4,3.8,4.1,8,4.9,12.3
	c1.4,8.8,1.2,23-8,39c0,0,15.1,113.7,54.4,139.6c0,0-38.4,8.8-72-2c-22.6-7.3-47.3-4.2-66.6,9.6l-0.8,0.7c-9,6.8-20.7,9-31.6,6.1
	c-7-2-15.4-3-23.1-0.7c0,0,35.4-88.3,37.8-94c8.2-19.2,21.7-56.6,12.3-77.9C207.2,232.4,202.3,190.2,232.4,168.8z"/>
<path opacity="0.1" enable-background="new    " d="M268.6,250.2c0,0,35,50.1,51,59l8.9,4.5C328.6,313.8,272.1,250.2,268.6,250.2z"
	/>
<path fill="#FDB797" d="M301.3,224.8c0,0-23-9-32.8,20.9c-0.8,2.4-0.3,5.3,1.5,7.2l53.6,57.9c0,0,15.3,8.9,22.4,3.6
	c7.2-5.4,99.4-21.5,99.4-21.5s25.4,7.4,35.9-4.9c1.5-1.6,1.2-4.2-0.4-5.5c-0.3-0.1-0.5-0.4-0.7-0.5c-5.5-2.8-15.7-2.7-26.6-3.6
	c-3.8-0.3-7.6-0.1-11.3,0.5c-23.4,4.2-109.8,17-122.1-15.4C305.7,225.6,301.3,224.8,301.3,224.8z"/>
<path opacity="0.1" enable-background="new    " d="M301.7,225.2c0,0-27.7-4.5-34,23.2v-1.8C267.7,246.7,275.8,216.3,301.7,225.2z"
	/>
<path fill="#FFC533" d="M591.6,183.1c0,54.8-44.4,99.4-99.4,99.4s-99.4-44.4-99.4-99.4s44.4-99.4,99.4-99.4l0,0
	C547.2,83.8,591.6,128.2,591.6,183.1z M510.1,203.9c-3.4,13.5-26.2,6.2-33.5,4.5l5.9-24C489.8,186.2,513.6,189.8,510.1,203.9
	L510.1,203.9z"/>
<path fill="none" stroke="#535461" stroke-width="2" stroke-miterlimit="10" d="M480.9,706.6c0,0-21.3-72.2,4.1-125.5
	c10.7-22.3,13.9-47.4,9.2-71.6c-2.3-11.5-5.8-22.7-10.1-33.6"/>
<path fill="#6C63FF" d="M499.7,442.5c0,8.9-16.1,34.6-16.1,34.6s-16.1-25.7-16.1-34.6s7.2-16.1,16.1-16.1S499.7,433.6,499.7,442.5
	L499.7,442.5z"/>
<path fill="#6C63FF" d="M526.1,491.5c-4.9,7.4-32.3,20.3-32.3,20.3s0.5-30.3,5.3-37.7c4.9-7.4,14.7-9.6,22.1-4.7
	C528.7,474.2,531,484.1,526.1,491.5L526.1,491.5z"/>
<path fill="#6C63FF" d="M525.1,575.2c-7.8,4.1-38.1,1.2-38.1,1.2s15.7-25.9,23.6-29.8c8-4.1,17.6-0.8,21.5,7.2
	C536,561.7,532.9,571.3,525.1,575.2L525.1,575.2z"/>
<path fill="#6C63FF" d="M509.8,638.6c-7.2,5.3-37.3,7.7-37.3,7.7s11.1-28.1,18.2-33.5c7.2-5.3,17.2-3.8,22.4,3.4
	C518.4,623.2,517,633.3,509.8,638.6L509.8,638.6z"/>
<path fill="#6C63FF" d="M460.2,513.5c6.3,6.2,35.9,12.6,35.9,12.6s-7.3-29.4-13.6-35.5c-6.1-6.3-16.2-6.6-22.7-0.5
	c-6.3,6.1-6.6,16.2-0.5,22.7C459.7,513,460,513.3,460.2,513.5L460.2,513.5z"/>
<path fill="#6C63FF" d="M443.5,587.7c7.8,4.1,38.1,1.2,38.1,1.2S465.9,563,457.9,559c-8-4.1-17.6-0.8-21.5,7.2
	C432.5,574.2,435.7,583.6,443.5,587.7L443.5,587.7z"/>
<path fill="#6C63FF" d="M437,661.9c7.2,5.3,37.3,7.7,37.3,7.7s-11.1-28.1-18.2-33.5c-7.2-5.3-17.2-3.8-22.4,3.4
	C428.5,646.7,430,656.7,437,661.9L437,661.9z"/>
<path opacity="0.5" fill="#FFFFFF" enable-background="new    " d="M499.7,442.5c0,8.9-16.1,34.6-16.1,34.6s-16.1-25.7-16.1-34.6
	s7.2-16.1,16.1-16.1S499.7,433.6,499.7,442.5L499.7,442.5z"/>
<path opacity="0.5" fill="#FFFFFF" enable-background="new    " d="M526.1,491.5c-4.9,7.4-32.3,20.3-32.3,20.3s0.5-30.3,5.3-37.7
	c4.9-7.4,14.7-9.6,22.1-4.7C528.7,474.2,531,484.1,526.1,491.5L526.1,491.5z"/>
<path opacity="0.5" fill="#FFFFFF" enable-background="new    " d="M525.1,575.2c-7.8,4.1-38.1,1.2-38.1,1.2s15.7-25.9,23.6-29.8
	c8-4.1,17.6-0.8,21.5,7.2C536,561.7,532.9,571.3,525.1,575.2L525.1,575.2z"/>
<path opacity="0.5" fill="#FFFFFF" enable-background="new    " d="M509.8,638.6c-7.2,5.3-37.3,7.7-37.3,7.7s11.1-28.1,18.2-33.5
	c7.2-5.3,17.2-3.8,22.4,3.4C518.4,623.2,517,633.3,509.8,638.6L509.8,638.6z"/>
<path opacity="0.5" fill="#FFFFFF" enable-background="new    " d="M460.2,513.5c6.3,6.2,35.9,12.6,35.9,12.6s-7.3-29.4-13.6-35.5
	c-6.1-6.3-16.2-6.6-22.7-0.5c-6.3,6.1-6.6,16.2-0.5,22.7C459.7,513,460,513.3,460.2,513.5L460.2,513.5z"/>
<path opacity="0.5" fill="#FFFFFF" enable-background="new    " d="M443.5,587.7c7.8,4.1,38.1,1.2,38.1,1.2S465.9,563,457.9,559
	c-8-4.1-17.6-0.8-21.5,7.2C432.5,574.2,435.7,583.6,443.5,587.7L443.5,587.7z"/>
<path opacity="0.5" fill="#FFFFFF" enable-background="new    " d="M437,661.9c7.2,5.3,37.3,7.7,37.3,7.7s-11.1-28.1-18.2-33.5
	c-7.2-5.3-17.2-3.8-22.4,3.4C428.5,646.7,430,656.7,437,661.9L437,661.9z"/>
<g>
	<path fill="#E59310" d="M531,159.7c-0.5-0.5-1.2-0.8-2-0.8h-15c-0.9-4.9-2.8-9-5.7-12.7h20.5c0.8,0,1.5-0.3,2-0.8
		c0.5-0.5,0.8-1.2,0.8-2v-8.9c0-0.8-0.3-1.5-0.8-2c-0.5-0.5-1.2-0.8-2-0.8h-73.2c-0.8,0-1.5,0.3-2,0.8c-0.5,0.5-0.8,1.2-0.8,2v11.7
		c0,0.8,0.3,1.5,0.8,2c0.5,0.5,1.2,0.8,2,0.8h12.7c12.4,0,20.3,3.4,23.6,10h-36.3c-0.8,0-1.5,0.3-2,0.8c-0.5,0.5-0.8,1.2-0.8,2v8.9
		c0,0.8,0.3,1.5,0.8,2c0.5,0.5,1.2,0.8,2,0.8h37.5c-1.4,4.9-4.3,8.5-9,10.9c-4.7,2.6-10.9,3.8-18.6,3.8h-9.9c-0.8,0-1.5,0.3-2,0.8
		c-0.5,0.5-0.8,1.2-0.8,2v11.2c0,0.8,0.3,1.4,0.8,1.9c11.2,12,25.9,28.8,43.9,50.2c0.5,0.7,1.2,1.1,2.2,1.1h17.2
		c1.2,0,2-0.5,2.6-1.6c0.5-1.1,0.5-2-0.4-3c-17.2-21.1-30.7-36.7-40.4-47.1c10-1.2,18.1-4.5,24.3-9.7c6.2-5.3,10-12.2,11.3-20.5H529
		c0.8,0,1.5-0.3,2-0.8c0.5-0.5,0.8-1.2,0.8-2v-8.9C531.8,160.9,531.5,160.2,531,159.7L531,159.7z"/>
</g>
</svg>
